G75*
%MOIN*%
%OFA0B0*%
%FSLAX25Y25*%
%IPPOS*%
%LPD*%
%AMOC8*
5,1,8,0,0,1.08239X$1,22.5*
%
%ADD10C,0.11824*%
%ADD11C,0.07400*%
%ADD12C,0.13398*%
%ADD13C,0.06200*%
%ADD14C,0.15800*%
%ADD15C,0.07296*%
%ADD16C,0.00600*%
%ADD17C,0.07100*%
%ADD18OC8,0.07100*%
%ADD19C,0.11800*%
%ADD20C,0.05750*%
%ADD21OC8,0.05800*%
%ADD22C,0.17800*%
%ADD23C,0.08318*%
%ADD24C,0.07887*%
%ADD25C,0.07296*%
%ADD26C,0.10800*%
D10*
X0073848Y0095535D03*
X0073848Y0446042D03*
D11*
X0180662Y0409400D02*
X0180662Y0402800D01*
X0190662Y0402800D02*
X0190662Y0409400D01*
X0200662Y0409400D02*
X0200662Y0402800D01*
X0210662Y0402800D02*
X0210662Y0409400D01*
X0220662Y0409400D02*
X0220662Y0402800D01*
X0230662Y0402800D02*
X0230662Y0409400D01*
X0240662Y0409400D02*
X0240662Y0402800D01*
X0260662Y0402800D02*
X0260662Y0409400D01*
X0270662Y0409400D02*
X0270662Y0402800D01*
X0280662Y0402800D02*
X0280662Y0409400D01*
X0290662Y0409400D02*
X0290662Y0402800D01*
X0300662Y0402800D02*
X0300662Y0409400D01*
X0310662Y0409400D02*
X0310662Y0402800D01*
X0310662Y0221900D02*
X0310662Y0215300D01*
X0300662Y0215300D02*
X0300662Y0221900D01*
X0290662Y0221900D02*
X0290662Y0215300D01*
X0280662Y0215300D02*
X0280662Y0221900D01*
X0270662Y0221900D02*
X0270662Y0215300D01*
X0260662Y0215300D02*
X0260662Y0221900D01*
X0250662Y0221900D02*
X0250662Y0215300D01*
X0240662Y0215300D02*
X0240662Y0221900D01*
X0224662Y0221900D02*
X0224662Y0215300D01*
X0214662Y0215300D02*
X0214662Y0221900D01*
X0204662Y0221900D02*
X0204662Y0215300D01*
X0194662Y0215300D02*
X0194662Y0221900D01*
X0184662Y0221900D02*
X0184662Y0215300D01*
X0174662Y0215300D02*
X0174662Y0221900D01*
X0164662Y0221900D02*
X0164662Y0215300D01*
X0154662Y0215300D02*
X0154662Y0221900D01*
D12*
X0320662Y0276100D03*
D13*
X0275662Y0438400D02*
X0275662Y0443800D01*
X0265662Y0443800D02*
X0265662Y0438400D01*
D14*
X0234963Y0177350D03*
X0234963Y0109850D03*
X0368860Y0109850D03*
X0368860Y0177350D03*
D15*
X0400662Y0202852D02*
X0400662Y0209348D01*
X0410662Y0209348D02*
X0410662Y0202852D01*
X0420662Y0202852D02*
X0420662Y0209348D01*
X0430662Y0209348D02*
X0430662Y0202852D01*
X0440662Y0202852D02*
X0440662Y0209348D01*
X0450662Y0209348D02*
X0450662Y0202852D01*
D16*
X0061662Y0104200D02*
X0061662Y0074200D01*
X0091662Y0074200D01*
X0061662Y0438000D02*
X0061662Y0468000D01*
X0091662Y0468000D01*
X0661662Y0468000D02*
X0691662Y0468000D01*
X0691662Y0438000D01*
X0691662Y0104200D02*
X0691662Y0074200D01*
X0661662Y0074200D01*
D17*
X0670662Y0426100D03*
D18*
X0660662Y0426100D03*
X0650662Y0426100D03*
X0650662Y0416100D03*
X0660662Y0416100D03*
X0670662Y0416100D03*
X0670662Y0406100D03*
X0670662Y0396100D03*
X0660662Y0396100D03*
X0660662Y0406100D03*
X0650662Y0406100D03*
X0650662Y0396100D03*
X0650662Y0386100D03*
X0660662Y0386100D03*
X0670662Y0386100D03*
X0670662Y0376100D03*
X0660662Y0376100D03*
X0650662Y0376100D03*
X0650662Y0366100D03*
X0660662Y0366100D03*
X0670662Y0366100D03*
X0670662Y0356100D03*
X0660662Y0356100D03*
X0650662Y0356100D03*
X0650662Y0346100D03*
X0660662Y0346100D03*
X0670662Y0346100D03*
X0670662Y0336100D03*
X0670662Y0326100D03*
X0660662Y0326100D03*
X0660662Y0336100D03*
X0650662Y0336100D03*
X0650662Y0326100D03*
X0650662Y0316100D03*
X0660662Y0316100D03*
X0670662Y0316100D03*
X0670662Y0306100D03*
X0660662Y0306100D03*
X0650662Y0306100D03*
X0650662Y0296100D03*
X0660662Y0296100D03*
X0670662Y0296100D03*
X0670662Y0286100D03*
X0660662Y0286100D03*
X0650662Y0286100D03*
X0650662Y0276100D03*
X0660662Y0276100D03*
X0670662Y0276100D03*
X0670662Y0266100D03*
X0660662Y0266100D03*
X0650662Y0266100D03*
X0650662Y0256100D03*
X0660662Y0256100D03*
X0670662Y0256100D03*
X0670662Y0246100D03*
X0660662Y0246100D03*
X0650662Y0246100D03*
X0650662Y0236100D03*
X0660662Y0236100D03*
X0670662Y0236100D03*
X0670662Y0226100D03*
X0660662Y0226100D03*
X0650662Y0226100D03*
X0650662Y0216100D03*
X0660662Y0216100D03*
X0670662Y0216100D03*
X0670662Y0206100D03*
X0660662Y0206100D03*
X0650662Y0206100D03*
X0650662Y0196100D03*
X0660662Y0196100D03*
X0670662Y0196100D03*
X0670662Y0186100D03*
X0660662Y0186100D03*
X0650662Y0186100D03*
X0650662Y0176100D03*
X0660662Y0176100D03*
X0670662Y0176100D03*
X0670662Y0166100D03*
X0660662Y0166100D03*
X0650662Y0166100D03*
X0650662Y0156100D03*
X0660662Y0156100D03*
X0670662Y0156100D03*
X0670662Y0146100D03*
X0670662Y0136100D03*
X0660662Y0136100D03*
X0660662Y0146100D03*
X0650662Y0146100D03*
X0650662Y0136100D03*
X0650662Y0126100D03*
X0660662Y0126100D03*
X0670662Y0126100D03*
X0670662Y0116100D03*
X0660662Y0116100D03*
X0650662Y0116100D03*
D19*
X0680662Y0096100D03*
X0680662Y0446100D03*
D20*
X0600662Y0324722D03*
X0600662Y0277478D03*
D21*
X0073401Y0308150D03*
X0073401Y0318150D03*
X0072968Y0326150D03*
X0072968Y0336150D03*
X0072535Y0344150D03*
X0072535Y0354150D03*
X0073835Y0143150D03*
X0073835Y0133150D03*
D22*
X0090287Y0154596D03*
X0078476Y0173100D03*
X0102099Y0173100D03*
D23*
X0425662Y0156100D03*
X0610662Y0091100D03*
X0625662Y0161100D03*
X0615662Y0186100D03*
X0615662Y0301100D03*
X0590662Y0356100D03*
X0590662Y0391100D03*
X0625662Y0401100D03*
X0635662Y0381100D03*
X0635662Y0436100D03*
X0545662Y0441100D03*
X0430662Y0431100D03*
X0325662Y0456100D03*
D24*
X0475662Y0436100D03*
X0125662Y0091100D03*
D25*
X0115662Y0146100D03*
X0210662Y0151100D03*
X0270662Y0191100D03*
X0310662Y0096100D03*
X0220662Y0086100D03*
X0405662Y0096100D03*
X0490662Y0101100D03*
X0490662Y0121100D03*
X0508162Y0128600D03*
X0510662Y0156100D03*
X0370662Y0361100D03*
D26*
X0600787Y0324600D03*
X0600662Y0277475D03*
M02*
