G75*
%MOIN*%
%OFA0B0*%
%FSLAX25Y25*%
%IPPOS*%
%LPD*%
%AMOC8*
5,1,8,0,0,1.08239X$1,22.5*
%
%ADD10R,0.02200X0.05200*%
%ADD11R,0.02000X0.05200*%
%ADD12R,0.07098X0.06299*%
%ADD13R,0.05906X0.07874*%
%ADD14R,0.10236X0.09449*%
%ADD15R,0.09843X0.13780*%
%ADD16R,0.06299X0.07098*%
%ADD17R,0.09449X0.09449*%
%ADD18R,0.09449X0.10236*%
%ADD19R,0.08661X0.02362*%
%ADD20R,0.07874X0.05906*%
%ADD21R,0.02600X0.08000*%
%ADD22R,0.05512X0.03937*%
%ADD23R,0.08800X0.04800*%
%ADD24R,0.08661X0.14173*%
D10*
X0131962Y0166800D03*
X0139362Y0166800D03*
D11*
X0135662Y0175400D03*
D12*
X0118162Y0098002D03*
X0118162Y0109198D03*
X0130662Y0115502D03*
X0130662Y0126698D03*
X0130662Y0140502D03*
X0130662Y0151698D03*
X0184401Y0112809D03*
X0184401Y0101612D03*
X0410662Y0135502D03*
X0410662Y0146698D03*
X0460662Y0146698D03*
X0460662Y0135502D03*
X0490662Y0135502D03*
X0490662Y0146698D03*
X0470662Y0190502D03*
X0470662Y0201698D03*
X0470662Y0400502D03*
X0470662Y0411698D03*
X0505662Y0410502D03*
X0505662Y0421698D03*
X0505662Y0435502D03*
X0505662Y0446698D03*
D13*
X0241567Y0421100D03*
X0229756Y0421100D03*
X0434756Y0176100D03*
X0446567Y0176100D03*
D14*
X0438063Y0441100D03*
X0463260Y0441100D03*
X0248260Y0441100D03*
X0223063Y0441100D03*
D15*
X0490662Y0198895D03*
X0490662Y0173305D03*
D16*
X0525063Y0226100D03*
X0536260Y0226100D03*
X0511260Y0093600D03*
X0500063Y0093600D03*
X0197649Y0092006D03*
X0186452Y0092006D03*
X0155149Y0112173D03*
X0143952Y0112173D03*
X0166174Y0121027D03*
X0177371Y0121027D03*
X0101596Y0138460D03*
X0090399Y0138460D03*
X0160063Y0186100D03*
X0171260Y0186100D03*
X0105096Y0308060D03*
X0093899Y0308060D03*
X0093899Y0325727D03*
X0105096Y0325727D03*
X0105096Y0343394D03*
X0093899Y0343394D03*
X0605063Y0401100D03*
X0616260Y0401100D03*
X0621260Y0381100D03*
X0610063Y0381100D03*
X0615063Y0356100D03*
X0626260Y0356100D03*
X0616260Y0421100D03*
X0605063Y0421100D03*
D17*
X0594323Y0186100D03*
X0577000Y0186100D03*
X0577000Y0161100D03*
X0594323Y0161100D03*
X0594323Y0136100D03*
X0577000Y0136100D03*
X0546081Y0152340D03*
X0528758Y0152340D03*
X0577000Y0111100D03*
X0594323Y0111100D03*
X0200088Y0119019D03*
X0200088Y0101696D03*
D18*
X0525662Y0178502D03*
X0525662Y0203698D03*
X0625662Y0208502D03*
X0625662Y0233698D03*
X0565662Y0413502D03*
X0565662Y0438698D03*
D19*
X0395898Y0441100D03*
X0395898Y0436100D03*
X0395898Y0431100D03*
X0395898Y0426100D03*
X0395898Y0421100D03*
X0395898Y0416100D03*
X0395898Y0411100D03*
X0375425Y0411100D03*
X0375425Y0416100D03*
X0375425Y0421100D03*
X0375425Y0426100D03*
X0375425Y0431100D03*
X0375425Y0436100D03*
X0375425Y0441100D03*
D20*
X0350662Y0432006D03*
X0350662Y0420194D03*
X0418162Y0420194D03*
X0418162Y0432006D03*
X0530662Y0427006D03*
X0530662Y0415194D03*
X0195662Y0152006D03*
X0195662Y0140194D03*
D21*
X0173162Y0139000D03*
X0168162Y0139000D03*
X0163162Y0139000D03*
X0158162Y0139000D03*
X0158162Y0163200D03*
X0163162Y0163200D03*
X0168162Y0163200D03*
X0173162Y0163200D03*
D22*
X0132064Y0104066D03*
X0140726Y0100325D03*
X0132064Y0096585D03*
X0155411Y0099066D03*
X0164072Y0095325D03*
X0155411Y0091585D03*
D23*
X0522092Y0109451D03*
X0522092Y0118551D03*
X0522092Y0127651D03*
D24*
X0546493Y0118551D03*
M02*
