G75*
%MOIN*%
%OFA0B0*%
%FSLAX25Y25*%
%IPPOS*%
%LPD*%
%AMOC8*
5,1,8,0,0,1.08239X$1,22.5*
%
%ADD10C,0.00000*%
%ADD11R,0.27500X0.37500*%
%ADD12C,0.06600*%
%ADD13C,0.05400*%
%ADD14R,0.02200X0.05200*%
%ADD15R,0.02000X0.05200*%
%ADD16R,0.07098X0.06299*%
%ADD17R,0.05906X0.07874*%
%ADD18R,0.10236X0.09449*%
%ADD19C,0.15000*%
%ADD20R,0.09843X0.13780*%
%ADD21C,0.06496*%
%ADD22R,0.06299X0.07098*%
%ADD23R,0.09449X0.09449*%
%ADD24R,0.09449X0.10236*%
%ADD25C,0.05000*%
%ADD26C,0.06300*%
%ADD27OC8,0.06300*%
%ADD28R,0.08661X0.02362*%
%ADD29R,0.07874X0.05906*%
%ADD30C,0.04950*%
%ADD31R,0.02600X0.08000*%
%ADD32R,0.05512X0.03937*%
%ADD33R,0.08800X0.04800*%
%ADD34R,0.08661X0.14173*%
%ADD35OC8,0.05000*%
%ADD36C,0.17000*%
%ADD37C,0.01600*%
%ADD38C,0.05600*%
%ADD39C,0.02400*%
%ADD40C,0.03200*%
%ADD41C,0.07518*%
%ADD42C,0.04000*%
%ADD43C,0.07087*%
%ADD44C,0.06496*%
%ADD45C,0.10000*%
D10*
X0061662Y0074200D02*
X0061662Y0468000D01*
X0691662Y0468000D01*
X0691662Y0074200D01*
X0061662Y0074200D01*
X0068336Y0095535D02*
X0068338Y0095683D01*
X0068344Y0095831D01*
X0068354Y0095979D01*
X0068368Y0096126D01*
X0068386Y0096273D01*
X0068407Y0096419D01*
X0068433Y0096565D01*
X0068463Y0096710D01*
X0068496Y0096854D01*
X0068534Y0096997D01*
X0068575Y0097139D01*
X0068620Y0097280D01*
X0068668Y0097420D01*
X0068721Y0097559D01*
X0068777Y0097696D01*
X0068837Y0097831D01*
X0068900Y0097965D01*
X0068967Y0098097D01*
X0069038Y0098227D01*
X0069112Y0098355D01*
X0069189Y0098481D01*
X0069270Y0098605D01*
X0069354Y0098727D01*
X0069441Y0098846D01*
X0069532Y0098963D01*
X0069626Y0099078D01*
X0069722Y0099190D01*
X0069822Y0099300D01*
X0069924Y0099406D01*
X0070030Y0099510D01*
X0070138Y0099611D01*
X0070249Y0099709D01*
X0070362Y0099805D01*
X0070478Y0099897D01*
X0070596Y0099986D01*
X0070717Y0100071D01*
X0070840Y0100154D01*
X0070965Y0100233D01*
X0071092Y0100309D01*
X0071221Y0100381D01*
X0071352Y0100450D01*
X0071485Y0100515D01*
X0071620Y0100576D01*
X0071756Y0100634D01*
X0071893Y0100689D01*
X0072032Y0100739D01*
X0072173Y0100786D01*
X0072314Y0100829D01*
X0072457Y0100869D01*
X0072601Y0100904D01*
X0072745Y0100936D01*
X0072891Y0100963D01*
X0073037Y0100987D01*
X0073184Y0101007D01*
X0073331Y0101023D01*
X0073478Y0101035D01*
X0073626Y0101043D01*
X0073774Y0101047D01*
X0073922Y0101047D01*
X0074070Y0101043D01*
X0074218Y0101035D01*
X0074365Y0101023D01*
X0074512Y0101007D01*
X0074659Y0100987D01*
X0074805Y0100963D01*
X0074951Y0100936D01*
X0075095Y0100904D01*
X0075239Y0100869D01*
X0075382Y0100829D01*
X0075523Y0100786D01*
X0075664Y0100739D01*
X0075803Y0100689D01*
X0075940Y0100634D01*
X0076076Y0100576D01*
X0076211Y0100515D01*
X0076344Y0100450D01*
X0076475Y0100381D01*
X0076604Y0100309D01*
X0076731Y0100233D01*
X0076856Y0100154D01*
X0076979Y0100071D01*
X0077100Y0099986D01*
X0077218Y0099897D01*
X0077334Y0099805D01*
X0077447Y0099709D01*
X0077558Y0099611D01*
X0077666Y0099510D01*
X0077772Y0099406D01*
X0077874Y0099300D01*
X0077974Y0099190D01*
X0078070Y0099078D01*
X0078164Y0098963D01*
X0078255Y0098846D01*
X0078342Y0098727D01*
X0078426Y0098605D01*
X0078507Y0098481D01*
X0078584Y0098355D01*
X0078658Y0098227D01*
X0078729Y0098097D01*
X0078796Y0097965D01*
X0078859Y0097831D01*
X0078919Y0097696D01*
X0078975Y0097559D01*
X0079028Y0097420D01*
X0079076Y0097280D01*
X0079121Y0097139D01*
X0079162Y0096997D01*
X0079200Y0096854D01*
X0079233Y0096710D01*
X0079263Y0096565D01*
X0079289Y0096419D01*
X0079310Y0096273D01*
X0079328Y0096126D01*
X0079342Y0095979D01*
X0079352Y0095831D01*
X0079358Y0095683D01*
X0079360Y0095535D01*
X0079358Y0095387D01*
X0079352Y0095239D01*
X0079342Y0095091D01*
X0079328Y0094944D01*
X0079310Y0094797D01*
X0079289Y0094651D01*
X0079263Y0094505D01*
X0079233Y0094360D01*
X0079200Y0094216D01*
X0079162Y0094073D01*
X0079121Y0093931D01*
X0079076Y0093790D01*
X0079028Y0093650D01*
X0078975Y0093511D01*
X0078919Y0093374D01*
X0078859Y0093239D01*
X0078796Y0093105D01*
X0078729Y0092973D01*
X0078658Y0092843D01*
X0078584Y0092715D01*
X0078507Y0092589D01*
X0078426Y0092465D01*
X0078342Y0092343D01*
X0078255Y0092224D01*
X0078164Y0092107D01*
X0078070Y0091992D01*
X0077974Y0091880D01*
X0077874Y0091770D01*
X0077772Y0091664D01*
X0077666Y0091560D01*
X0077558Y0091459D01*
X0077447Y0091361D01*
X0077334Y0091265D01*
X0077218Y0091173D01*
X0077100Y0091084D01*
X0076979Y0090999D01*
X0076856Y0090916D01*
X0076731Y0090837D01*
X0076604Y0090761D01*
X0076475Y0090689D01*
X0076344Y0090620D01*
X0076211Y0090555D01*
X0076076Y0090494D01*
X0075940Y0090436D01*
X0075803Y0090381D01*
X0075664Y0090331D01*
X0075523Y0090284D01*
X0075382Y0090241D01*
X0075239Y0090201D01*
X0075095Y0090166D01*
X0074951Y0090134D01*
X0074805Y0090107D01*
X0074659Y0090083D01*
X0074512Y0090063D01*
X0074365Y0090047D01*
X0074218Y0090035D01*
X0074070Y0090027D01*
X0073922Y0090023D01*
X0073774Y0090023D01*
X0073626Y0090027D01*
X0073478Y0090035D01*
X0073331Y0090047D01*
X0073184Y0090063D01*
X0073037Y0090083D01*
X0072891Y0090107D01*
X0072745Y0090134D01*
X0072601Y0090166D01*
X0072457Y0090201D01*
X0072314Y0090241D01*
X0072173Y0090284D01*
X0072032Y0090331D01*
X0071893Y0090381D01*
X0071756Y0090436D01*
X0071620Y0090494D01*
X0071485Y0090555D01*
X0071352Y0090620D01*
X0071221Y0090689D01*
X0071092Y0090761D01*
X0070965Y0090837D01*
X0070840Y0090916D01*
X0070717Y0090999D01*
X0070596Y0091084D01*
X0070478Y0091173D01*
X0070362Y0091265D01*
X0070249Y0091361D01*
X0070138Y0091459D01*
X0070030Y0091560D01*
X0069924Y0091664D01*
X0069822Y0091770D01*
X0069722Y0091880D01*
X0069626Y0091992D01*
X0069532Y0092107D01*
X0069441Y0092224D01*
X0069354Y0092343D01*
X0069270Y0092465D01*
X0069189Y0092589D01*
X0069112Y0092715D01*
X0069038Y0092843D01*
X0068967Y0092973D01*
X0068900Y0093105D01*
X0068837Y0093239D01*
X0068777Y0093374D01*
X0068721Y0093511D01*
X0068668Y0093650D01*
X0068620Y0093790D01*
X0068575Y0093931D01*
X0068534Y0094073D01*
X0068496Y0094216D01*
X0068463Y0094360D01*
X0068433Y0094505D01*
X0068407Y0094651D01*
X0068386Y0094797D01*
X0068368Y0094944D01*
X0068354Y0095091D01*
X0068344Y0095239D01*
X0068338Y0095387D01*
X0068336Y0095535D01*
X0314363Y0276100D02*
X0314365Y0276258D01*
X0314371Y0276416D01*
X0314381Y0276574D01*
X0314395Y0276732D01*
X0314413Y0276889D01*
X0314434Y0277046D01*
X0314460Y0277202D01*
X0314490Y0277358D01*
X0314523Y0277513D01*
X0314561Y0277666D01*
X0314602Y0277819D01*
X0314647Y0277971D01*
X0314696Y0278122D01*
X0314749Y0278271D01*
X0314805Y0278419D01*
X0314865Y0278565D01*
X0314929Y0278710D01*
X0314997Y0278853D01*
X0315068Y0278995D01*
X0315142Y0279135D01*
X0315220Y0279272D01*
X0315302Y0279408D01*
X0315386Y0279542D01*
X0315475Y0279673D01*
X0315566Y0279802D01*
X0315661Y0279929D01*
X0315758Y0280054D01*
X0315859Y0280176D01*
X0315963Y0280295D01*
X0316070Y0280412D01*
X0316180Y0280526D01*
X0316293Y0280637D01*
X0316408Y0280746D01*
X0316526Y0280851D01*
X0316647Y0280953D01*
X0316770Y0281053D01*
X0316896Y0281149D01*
X0317024Y0281242D01*
X0317154Y0281332D01*
X0317287Y0281418D01*
X0317422Y0281502D01*
X0317558Y0281581D01*
X0317697Y0281658D01*
X0317838Y0281730D01*
X0317980Y0281800D01*
X0318124Y0281865D01*
X0318270Y0281927D01*
X0318417Y0281985D01*
X0318566Y0282040D01*
X0318716Y0282091D01*
X0318867Y0282138D01*
X0319019Y0282181D01*
X0319172Y0282220D01*
X0319327Y0282256D01*
X0319482Y0282287D01*
X0319638Y0282315D01*
X0319794Y0282339D01*
X0319951Y0282359D01*
X0320109Y0282375D01*
X0320266Y0282387D01*
X0320425Y0282395D01*
X0320583Y0282399D01*
X0320741Y0282399D01*
X0320899Y0282395D01*
X0321058Y0282387D01*
X0321215Y0282375D01*
X0321373Y0282359D01*
X0321530Y0282339D01*
X0321686Y0282315D01*
X0321842Y0282287D01*
X0321997Y0282256D01*
X0322152Y0282220D01*
X0322305Y0282181D01*
X0322457Y0282138D01*
X0322608Y0282091D01*
X0322758Y0282040D01*
X0322907Y0281985D01*
X0323054Y0281927D01*
X0323200Y0281865D01*
X0323344Y0281800D01*
X0323486Y0281730D01*
X0323627Y0281658D01*
X0323766Y0281581D01*
X0323902Y0281502D01*
X0324037Y0281418D01*
X0324170Y0281332D01*
X0324300Y0281242D01*
X0324428Y0281149D01*
X0324554Y0281053D01*
X0324677Y0280953D01*
X0324798Y0280851D01*
X0324916Y0280746D01*
X0325031Y0280637D01*
X0325144Y0280526D01*
X0325254Y0280412D01*
X0325361Y0280295D01*
X0325465Y0280176D01*
X0325566Y0280054D01*
X0325663Y0279929D01*
X0325758Y0279802D01*
X0325849Y0279673D01*
X0325938Y0279542D01*
X0326022Y0279408D01*
X0326104Y0279272D01*
X0326182Y0279135D01*
X0326256Y0278995D01*
X0326327Y0278853D01*
X0326395Y0278710D01*
X0326459Y0278565D01*
X0326519Y0278419D01*
X0326575Y0278271D01*
X0326628Y0278122D01*
X0326677Y0277971D01*
X0326722Y0277819D01*
X0326763Y0277666D01*
X0326801Y0277513D01*
X0326834Y0277358D01*
X0326864Y0277202D01*
X0326890Y0277046D01*
X0326911Y0276889D01*
X0326929Y0276732D01*
X0326943Y0276574D01*
X0326953Y0276416D01*
X0326959Y0276258D01*
X0326961Y0276100D01*
X0326959Y0275942D01*
X0326953Y0275784D01*
X0326943Y0275626D01*
X0326929Y0275468D01*
X0326911Y0275311D01*
X0326890Y0275154D01*
X0326864Y0274998D01*
X0326834Y0274842D01*
X0326801Y0274687D01*
X0326763Y0274534D01*
X0326722Y0274381D01*
X0326677Y0274229D01*
X0326628Y0274078D01*
X0326575Y0273929D01*
X0326519Y0273781D01*
X0326459Y0273635D01*
X0326395Y0273490D01*
X0326327Y0273347D01*
X0326256Y0273205D01*
X0326182Y0273065D01*
X0326104Y0272928D01*
X0326022Y0272792D01*
X0325938Y0272658D01*
X0325849Y0272527D01*
X0325758Y0272398D01*
X0325663Y0272271D01*
X0325566Y0272146D01*
X0325465Y0272024D01*
X0325361Y0271905D01*
X0325254Y0271788D01*
X0325144Y0271674D01*
X0325031Y0271563D01*
X0324916Y0271454D01*
X0324798Y0271349D01*
X0324677Y0271247D01*
X0324554Y0271147D01*
X0324428Y0271051D01*
X0324300Y0270958D01*
X0324170Y0270868D01*
X0324037Y0270782D01*
X0323902Y0270698D01*
X0323766Y0270619D01*
X0323627Y0270542D01*
X0323486Y0270470D01*
X0323344Y0270400D01*
X0323200Y0270335D01*
X0323054Y0270273D01*
X0322907Y0270215D01*
X0322758Y0270160D01*
X0322608Y0270109D01*
X0322457Y0270062D01*
X0322305Y0270019D01*
X0322152Y0269980D01*
X0321997Y0269944D01*
X0321842Y0269913D01*
X0321686Y0269885D01*
X0321530Y0269861D01*
X0321373Y0269841D01*
X0321215Y0269825D01*
X0321058Y0269813D01*
X0320899Y0269805D01*
X0320741Y0269801D01*
X0320583Y0269801D01*
X0320425Y0269805D01*
X0320266Y0269813D01*
X0320109Y0269825D01*
X0319951Y0269841D01*
X0319794Y0269861D01*
X0319638Y0269885D01*
X0319482Y0269913D01*
X0319327Y0269944D01*
X0319172Y0269980D01*
X0319019Y0270019D01*
X0318867Y0270062D01*
X0318716Y0270109D01*
X0318566Y0270160D01*
X0318417Y0270215D01*
X0318270Y0270273D01*
X0318124Y0270335D01*
X0317980Y0270400D01*
X0317838Y0270470D01*
X0317697Y0270542D01*
X0317558Y0270619D01*
X0317422Y0270698D01*
X0317287Y0270782D01*
X0317154Y0270868D01*
X0317024Y0270958D01*
X0316896Y0271051D01*
X0316770Y0271147D01*
X0316647Y0271247D01*
X0316526Y0271349D01*
X0316408Y0271454D01*
X0316293Y0271563D01*
X0316180Y0271674D01*
X0316070Y0271788D01*
X0315963Y0271905D01*
X0315859Y0272024D01*
X0315758Y0272146D01*
X0315661Y0272271D01*
X0315566Y0272398D01*
X0315475Y0272527D01*
X0315386Y0272658D01*
X0315302Y0272792D01*
X0315220Y0272928D01*
X0315142Y0273065D01*
X0315068Y0273205D01*
X0314997Y0273347D01*
X0314929Y0273490D01*
X0314865Y0273635D01*
X0314805Y0273781D01*
X0314749Y0273929D01*
X0314696Y0274078D01*
X0314647Y0274229D01*
X0314602Y0274381D01*
X0314561Y0274534D01*
X0314523Y0274687D01*
X0314490Y0274842D01*
X0314460Y0274998D01*
X0314434Y0275154D01*
X0314413Y0275311D01*
X0314395Y0275468D01*
X0314381Y0275626D01*
X0314371Y0275784D01*
X0314365Y0275942D01*
X0314363Y0276100D01*
X0068336Y0446042D02*
X0068338Y0446190D01*
X0068344Y0446338D01*
X0068354Y0446486D01*
X0068368Y0446633D01*
X0068386Y0446780D01*
X0068407Y0446926D01*
X0068433Y0447072D01*
X0068463Y0447217D01*
X0068496Y0447361D01*
X0068534Y0447504D01*
X0068575Y0447646D01*
X0068620Y0447787D01*
X0068668Y0447927D01*
X0068721Y0448066D01*
X0068777Y0448203D01*
X0068837Y0448338D01*
X0068900Y0448472D01*
X0068967Y0448604D01*
X0069038Y0448734D01*
X0069112Y0448862D01*
X0069189Y0448988D01*
X0069270Y0449112D01*
X0069354Y0449234D01*
X0069441Y0449353D01*
X0069532Y0449470D01*
X0069626Y0449585D01*
X0069722Y0449697D01*
X0069822Y0449807D01*
X0069924Y0449913D01*
X0070030Y0450017D01*
X0070138Y0450118D01*
X0070249Y0450216D01*
X0070362Y0450312D01*
X0070478Y0450404D01*
X0070596Y0450493D01*
X0070717Y0450578D01*
X0070840Y0450661D01*
X0070965Y0450740D01*
X0071092Y0450816D01*
X0071221Y0450888D01*
X0071352Y0450957D01*
X0071485Y0451022D01*
X0071620Y0451083D01*
X0071756Y0451141D01*
X0071893Y0451196D01*
X0072032Y0451246D01*
X0072173Y0451293D01*
X0072314Y0451336D01*
X0072457Y0451376D01*
X0072601Y0451411D01*
X0072745Y0451443D01*
X0072891Y0451470D01*
X0073037Y0451494D01*
X0073184Y0451514D01*
X0073331Y0451530D01*
X0073478Y0451542D01*
X0073626Y0451550D01*
X0073774Y0451554D01*
X0073922Y0451554D01*
X0074070Y0451550D01*
X0074218Y0451542D01*
X0074365Y0451530D01*
X0074512Y0451514D01*
X0074659Y0451494D01*
X0074805Y0451470D01*
X0074951Y0451443D01*
X0075095Y0451411D01*
X0075239Y0451376D01*
X0075382Y0451336D01*
X0075523Y0451293D01*
X0075664Y0451246D01*
X0075803Y0451196D01*
X0075940Y0451141D01*
X0076076Y0451083D01*
X0076211Y0451022D01*
X0076344Y0450957D01*
X0076475Y0450888D01*
X0076604Y0450816D01*
X0076731Y0450740D01*
X0076856Y0450661D01*
X0076979Y0450578D01*
X0077100Y0450493D01*
X0077218Y0450404D01*
X0077334Y0450312D01*
X0077447Y0450216D01*
X0077558Y0450118D01*
X0077666Y0450017D01*
X0077772Y0449913D01*
X0077874Y0449807D01*
X0077974Y0449697D01*
X0078070Y0449585D01*
X0078164Y0449470D01*
X0078255Y0449353D01*
X0078342Y0449234D01*
X0078426Y0449112D01*
X0078507Y0448988D01*
X0078584Y0448862D01*
X0078658Y0448734D01*
X0078729Y0448604D01*
X0078796Y0448472D01*
X0078859Y0448338D01*
X0078919Y0448203D01*
X0078975Y0448066D01*
X0079028Y0447927D01*
X0079076Y0447787D01*
X0079121Y0447646D01*
X0079162Y0447504D01*
X0079200Y0447361D01*
X0079233Y0447217D01*
X0079263Y0447072D01*
X0079289Y0446926D01*
X0079310Y0446780D01*
X0079328Y0446633D01*
X0079342Y0446486D01*
X0079352Y0446338D01*
X0079358Y0446190D01*
X0079360Y0446042D01*
X0079358Y0445894D01*
X0079352Y0445746D01*
X0079342Y0445598D01*
X0079328Y0445451D01*
X0079310Y0445304D01*
X0079289Y0445158D01*
X0079263Y0445012D01*
X0079233Y0444867D01*
X0079200Y0444723D01*
X0079162Y0444580D01*
X0079121Y0444438D01*
X0079076Y0444297D01*
X0079028Y0444157D01*
X0078975Y0444018D01*
X0078919Y0443881D01*
X0078859Y0443746D01*
X0078796Y0443612D01*
X0078729Y0443480D01*
X0078658Y0443350D01*
X0078584Y0443222D01*
X0078507Y0443096D01*
X0078426Y0442972D01*
X0078342Y0442850D01*
X0078255Y0442731D01*
X0078164Y0442614D01*
X0078070Y0442499D01*
X0077974Y0442387D01*
X0077874Y0442277D01*
X0077772Y0442171D01*
X0077666Y0442067D01*
X0077558Y0441966D01*
X0077447Y0441868D01*
X0077334Y0441772D01*
X0077218Y0441680D01*
X0077100Y0441591D01*
X0076979Y0441506D01*
X0076856Y0441423D01*
X0076731Y0441344D01*
X0076604Y0441268D01*
X0076475Y0441196D01*
X0076344Y0441127D01*
X0076211Y0441062D01*
X0076076Y0441001D01*
X0075940Y0440943D01*
X0075803Y0440888D01*
X0075664Y0440838D01*
X0075523Y0440791D01*
X0075382Y0440748D01*
X0075239Y0440708D01*
X0075095Y0440673D01*
X0074951Y0440641D01*
X0074805Y0440614D01*
X0074659Y0440590D01*
X0074512Y0440570D01*
X0074365Y0440554D01*
X0074218Y0440542D01*
X0074070Y0440534D01*
X0073922Y0440530D01*
X0073774Y0440530D01*
X0073626Y0440534D01*
X0073478Y0440542D01*
X0073331Y0440554D01*
X0073184Y0440570D01*
X0073037Y0440590D01*
X0072891Y0440614D01*
X0072745Y0440641D01*
X0072601Y0440673D01*
X0072457Y0440708D01*
X0072314Y0440748D01*
X0072173Y0440791D01*
X0072032Y0440838D01*
X0071893Y0440888D01*
X0071756Y0440943D01*
X0071620Y0441001D01*
X0071485Y0441062D01*
X0071352Y0441127D01*
X0071221Y0441196D01*
X0071092Y0441268D01*
X0070965Y0441344D01*
X0070840Y0441423D01*
X0070717Y0441506D01*
X0070596Y0441591D01*
X0070478Y0441680D01*
X0070362Y0441772D01*
X0070249Y0441868D01*
X0070138Y0441966D01*
X0070030Y0442067D01*
X0069924Y0442171D01*
X0069822Y0442277D01*
X0069722Y0442387D01*
X0069626Y0442499D01*
X0069532Y0442614D01*
X0069441Y0442731D01*
X0069354Y0442850D01*
X0069270Y0442972D01*
X0069189Y0443096D01*
X0069112Y0443222D01*
X0069038Y0443350D01*
X0068967Y0443480D01*
X0068900Y0443612D01*
X0068837Y0443746D01*
X0068777Y0443881D01*
X0068721Y0444018D01*
X0068668Y0444157D01*
X0068620Y0444297D01*
X0068575Y0444438D01*
X0068534Y0444580D01*
X0068496Y0444723D01*
X0068463Y0444867D01*
X0068433Y0445012D01*
X0068407Y0445158D01*
X0068386Y0445304D01*
X0068368Y0445451D01*
X0068354Y0445598D01*
X0068344Y0445746D01*
X0068338Y0445894D01*
X0068336Y0446042D01*
X0675162Y0446100D02*
X0675164Y0446248D01*
X0675170Y0446396D01*
X0675180Y0446544D01*
X0675194Y0446692D01*
X0675212Y0446839D01*
X0675234Y0446986D01*
X0675260Y0447132D01*
X0675289Y0447277D01*
X0675323Y0447422D01*
X0675361Y0447565D01*
X0675402Y0447708D01*
X0675447Y0447849D01*
X0675497Y0447989D01*
X0675549Y0448127D01*
X0675606Y0448265D01*
X0675666Y0448400D01*
X0675730Y0448534D01*
X0675797Y0448666D01*
X0675868Y0448796D01*
X0675943Y0448925D01*
X0676021Y0449051D01*
X0676102Y0449175D01*
X0676186Y0449297D01*
X0676274Y0449416D01*
X0676365Y0449533D01*
X0676459Y0449648D01*
X0676557Y0449760D01*
X0676657Y0449869D01*
X0676760Y0449976D01*
X0676866Y0450080D01*
X0676974Y0450181D01*
X0677086Y0450279D01*
X0677200Y0450374D01*
X0677316Y0450465D01*
X0677435Y0450554D01*
X0677556Y0450639D01*
X0677680Y0450721D01*
X0677806Y0450800D01*
X0677933Y0450875D01*
X0678063Y0450947D01*
X0678195Y0451016D01*
X0678328Y0451080D01*
X0678463Y0451141D01*
X0678600Y0451199D01*
X0678738Y0451253D01*
X0678878Y0451303D01*
X0679019Y0451349D01*
X0679161Y0451391D01*
X0679304Y0451430D01*
X0679448Y0451464D01*
X0679594Y0451495D01*
X0679739Y0451522D01*
X0679886Y0451545D01*
X0680033Y0451564D01*
X0680181Y0451579D01*
X0680328Y0451590D01*
X0680477Y0451597D01*
X0680625Y0451600D01*
X0680773Y0451599D01*
X0680921Y0451594D01*
X0681069Y0451585D01*
X0681217Y0451572D01*
X0681365Y0451555D01*
X0681511Y0451534D01*
X0681658Y0451509D01*
X0681803Y0451480D01*
X0681948Y0451448D01*
X0682091Y0451411D01*
X0682234Y0451371D01*
X0682376Y0451326D01*
X0682516Y0451278D01*
X0682655Y0451226D01*
X0682792Y0451171D01*
X0682928Y0451111D01*
X0683063Y0451048D01*
X0683195Y0450982D01*
X0683326Y0450912D01*
X0683455Y0450838D01*
X0683581Y0450761D01*
X0683706Y0450681D01*
X0683828Y0450597D01*
X0683949Y0450510D01*
X0684066Y0450420D01*
X0684182Y0450326D01*
X0684294Y0450230D01*
X0684404Y0450131D01*
X0684512Y0450028D01*
X0684616Y0449923D01*
X0684718Y0449815D01*
X0684816Y0449704D01*
X0684912Y0449591D01*
X0685005Y0449475D01*
X0685094Y0449357D01*
X0685180Y0449236D01*
X0685263Y0449113D01*
X0685343Y0448988D01*
X0685419Y0448861D01*
X0685492Y0448731D01*
X0685561Y0448600D01*
X0685626Y0448467D01*
X0685689Y0448333D01*
X0685747Y0448196D01*
X0685802Y0448058D01*
X0685852Y0447919D01*
X0685900Y0447778D01*
X0685943Y0447637D01*
X0685983Y0447494D01*
X0686018Y0447350D01*
X0686050Y0447205D01*
X0686078Y0447059D01*
X0686102Y0446913D01*
X0686122Y0446766D01*
X0686138Y0446618D01*
X0686150Y0446471D01*
X0686158Y0446322D01*
X0686162Y0446174D01*
X0686162Y0446026D01*
X0686158Y0445878D01*
X0686150Y0445729D01*
X0686138Y0445582D01*
X0686122Y0445434D01*
X0686102Y0445287D01*
X0686078Y0445141D01*
X0686050Y0444995D01*
X0686018Y0444850D01*
X0685983Y0444706D01*
X0685943Y0444563D01*
X0685900Y0444422D01*
X0685852Y0444281D01*
X0685802Y0444142D01*
X0685747Y0444004D01*
X0685689Y0443867D01*
X0685626Y0443733D01*
X0685561Y0443600D01*
X0685492Y0443469D01*
X0685419Y0443339D01*
X0685343Y0443212D01*
X0685263Y0443087D01*
X0685180Y0442964D01*
X0685094Y0442843D01*
X0685005Y0442725D01*
X0684912Y0442609D01*
X0684816Y0442496D01*
X0684718Y0442385D01*
X0684616Y0442277D01*
X0684512Y0442172D01*
X0684404Y0442069D01*
X0684294Y0441970D01*
X0684182Y0441874D01*
X0684066Y0441780D01*
X0683949Y0441690D01*
X0683828Y0441603D01*
X0683706Y0441519D01*
X0683581Y0441439D01*
X0683455Y0441362D01*
X0683326Y0441288D01*
X0683195Y0441218D01*
X0683063Y0441152D01*
X0682928Y0441089D01*
X0682792Y0441029D01*
X0682655Y0440974D01*
X0682516Y0440922D01*
X0682376Y0440874D01*
X0682234Y0440829D01*
X0682091Y0440789D01*
X0681948Y0440752D01*
X0681803Y0440720D01*
X0681658Y0440691D01*
X0681511Y0440666D01*
X0681365Y0440645D01*
X0681217Y0440628D01*
X0681069Y0440615D01*
X0680921Y0440606D01*
X0680773Y0440601D01*
X0680625Y0440600D01*
X0680477Y0440603D01*
X0680328Y0440610D01*
X0680181Y0440621D01*
X0680033Y0440636D01*
X0679886Y0440655D01*
X0679739Y0440678D01*
X0679594Y0440705D01*
X0679448Y0440736D01*
X0679304Y0440770D01*
X0679161Y0440809D01*
X0679019Y0440851D01*
X0678878Y0440897D01*
X0678738Y0440947D01*
X0678600Y0441001D01*
X0678463Y0441059D01*
X0678328Y0441120D01*
X0678195Y0441184D01*
X0678063Y0441253D01*
X0677933Y0441325D01*
X0677806Y0441400D01*
X0677680Y0441479D01*
X0677556Y0441561D01*
X0677435Y0441646D01*
X0677316Y0441735D01*
X0677200Y0441826D01*
X0677086Y0441921D01*
X0676974Y0442019D01*
X0676866Y0442120D01*
X0676760Y0442224D01*
X0676657Y0442331D01*
X0676557Y0442440D01*
X0676459Y0442552D01*
X0676365Y0442667D01*
X0676274Y0442784D01*
X0676186Y0442903D01*
X0676102Y0443025D01*
X0676021Y0443149D01*
X0675943Y0443275D01*
X0675868Y0443404D01*
X0675797Y0443534D01*
X0675730Y0443666D01*
X0675666Y0443800D01*
X0675606Y0443935D01*
X0675549Y0444073D01*
X0675497Y0444211D01*
X0675447Y0444351D01*
X0675402Y0444492D01*
X0675361Y0444635D01*
X0675323Y0444778D01*
X0675289Y0444923D01*
X0675260Y0445068D01*
X0675234Y0445214D01*
X0675212Y0445361D01*
X0675194Y0445508D01*
X0675180Y0445656D01*
X0675170Y0445804D01*
X0675164Y0445952D01*
X0675162Y0446100D01*
X0675162Y0096100D02*
X0675164Y0096248D01*
X0675170Y0096396D01*
X0675180Y0096544D01*
X0675194Y0096692D01*
X0675212Y0096839D01*
X0675234Y0096986D01*
X0675260Y0097132D01*
X0675289Y0097277D01*
X0675323Y0097422D01*
X0675361Y0097565D01*
X0675402Y0097708D01*
X0675447Y0097849D01*
X0675497Y0097989D01*
X0675549Y0098127D01*
X0675606Y0098265D01*
X0675666Y0098400D01*
X0675730Y0098534D01*
X0675797Y0098666D01*
X0675868Y0098796D01*
X0675943Y0098925D01*
X0676021Y0099051D01*
X0676102Y0099175D01*
X0676186Y0099297D01*
X0676274Y0099416D01*
X0676365Y0099533D01*
X0676459Y0099648D01*
X0676557Y0099760D01*
X0676657Y0099869D01*
X0676760Y0099976D01*
X0676866Y0100080D01*
X0676974Y0100181D01*
X0677086Y0100279D01*
X0677200Y0100374D01*
X0677316Y0100465D01*
X0677435Y0100554D01*
X0677556Y0100639D01*
X0677680Y0100721D01*
X0677806Y0100800D01*
X0677933Y0100875D01*
X0678063Y0100947D01*
X0678195Y0101016D01*
X0678328Y0101080D01*
X0678463Y0101141D01*
X0678600Y0101199D01*
X0678738Y0101253D01*
X0678878Y0101303D01*
X0679019Y0101349D01*
X0679161Y0101391D01*
X0679304Y0101430D01*
X0679448Y0101464D01*
X0679594Y0101495D01*
X0679739Y0101522D01*
X0679886Y0101545D01*
X0680033Y0101564D01*
X0680181Y0101579D01*
X0680328Y0101590D01*
X0680477Y0101597D01*
X0680625Y0101600D01*
X0680773Y0101599D01*
X0680921Y0101594D01*
X0681069Y0101585D01*
X0681217Y0101572D01*
X0681365Y0101555D01*
X0681511Y0101534D01*
X0681658Y0101509D01*
X0681803Y0101480D01*
X0681948Y0101448D01*
X0682091Y0101411D01*
X0682234Y0101371D01*
X0682376Y0101326D01*
X0682516Y0101278D01*
X0682655Y0101226D01*
X0682792Y0101171D01*
X0682928Y0101111D01*
X0683063Y0101048D01*
X0683195Y0100982D01*
X0683326Y0100912D01*
X0683455Y0100838D01*
X0683581Y0100761D01*
X0683706Y0100681D01*
X0683828Y0100597D01*
X0683949Y0100510D01*
X0684066Y0100420D01*
X0684182Y0100326D01*
X0684294Y0100230D01*
X0684404Y0100131D01*
X0684512Y0100028D01*
X0684616Y0099923D01*
X0684718Y0099815D01*
X0684816Y0099704D01*
X0684912Y0099591D01*
X0685005Y0099475D01*
X0685094Y0099357D01*
X0685180Y0099236D01*
X0685263Y0099113D01*
X0685343Y0098988D01*
X0685419Y0098861D01*
X0685492Y0098731D01*
X0685561Y0098600D01*
X0685626Y0098467D01*
X0685689Y0098333D01*
X0685747Y0098196D01*
X0685802Y0098058D01*
X0685852Y0097919D01*
X0685900Y0097778D01*
X0685943Y0097637D01*
X0685983Y0097494D01*
X0686018Y0097350D01*
X0686050Y0097205D01*
X0686078Y0097059D01*
X0686102Y0096913D01*
X0686122Y0096766D01*
X0686138Y0096618D01*
X0686150Y0096471D01*
X0686158Y0096322D01*
X0686162Y0096174D01*
X0686162Y0096026D01*
X0686158Y0095878D01*
X0686150Y0095729D01*
X0686138Y0095582D01*
X0686122Y0095434D01*
X0686102Y0095287D01*
X0686078Y0095141D01*
X0686050Y0094995D01*
X0686018Y0094850D01*
X0685983Y0094706D01*
X0685943Y0094563D01*
X0685900Y0094422D01*
X0685852Y0094281D01*
X0685802Y0094142D01*
X0685747Y0094004D01*
X0685689Y0093867D01*
X0685626Y0093733D01*
X0685561Y0093600D01*
X0685492Y0093469D01*
X0685419Y0093339D01*
X0685343Y0093212D01*
X0685263Y0093087D01*
X0685180Y0092964D01*
X0685094Y0092843D01*
X0685005Y0092725D01*
X0684912Y0092609D01*
X0684816Y0092496D01*
X0684718Y0092385D01*
X0684616Y0092277D01*
X0684512Y0092172D01*
X0684404Y0092069D01*
X0684294Y0091970D01*
X0684182Y0091874D01*
X0684066Y0091780D01*
X0683949Y0091690D01*
X0683828Y0091603D01*
X0683706Y0091519D01*
X0683581Y0091439D01*
X0683455Y0091362D01*
X0683326Y0091288D01*
X0683195Y0091218D01*
X0683063Y0091152D01*
X0682928Y0091089D01*
X0682792Y0091029D01*
X0682655Y0090974D01*
X0682516Y0090922D01*
X0682376Y0090874D01*
X0682234Y0090829D01*
X0682091Y0090789D01*
X0681948Y0090752D01*
X0681803Y0090720D01*
X0681658Y0090691D01*
X0681511Y0090666D01*
X0681365Y0090645D01*
X0681217Y0090628D01*
X0681069Y0090615D01*
X0680921Y0090606D01*
X0680773Y0090601D01*
X0680625Y0090600D01*
X0680477Y0090603D01*
X0680328Y0090610D01*
X0680181Y0090621D01*
X0680033Y0090636D01*
X0679886Y0090655D01*
X0679739Y0090678D01*
X0679594Y0090705D01*
X0679448Y0090736D01*
X0679304Y0090770D01*
X0679161Y0090809D01*
X0679019Y0090851D01*
X0678878Y0090897D01*
X0678738Y0090947D01*
X0678600Y0091001D01*
X0678463Y0091059D01*
X0678328Y0091120D01*
X0678195Y0091184D01*
X0678063Y0091253D01*
X0677933Y0091325D01*
X0677806Y0091400D01*
X0677680Y0091479D01*
X0677556Y0091561D01*
X0677435Y0091646D01*
X0677316Y0091735D01*
X0677200Y0091826D01*
X0677086Y0091921D01*
X0676974Y0092019D01*
X0676866Y0092120D01*
X0676760Y0092224D01*
X0676657Y0092331D01*
X0676557Y0092440D01*
X0676459Y0092552D01*
X0676365Y0092667D01*
X0676274Y0092784D01*
X0676186Y0092903D01*
X0676102Y0093025D01*
X0676021Y0093149D01*
X0675943Y0093275D01*
X0675868Y0093404D01*
X0675797Y0093534D01*
X0675730Y0093666D01*
X0675666Y0093800D01*
X0675606Y0093935D01*
X0675549Y0094073D01*
X0675497Y0094211D01*
X0675447Y0094351D01*
X0675402Y0094492D01*
X0675361Y0094635D01*
X0675323Y0094778D01*
X0675289Y0094923D01*
X0675260Y0095068D01*
X0675234Y0095214D01*
X0675212Y0095361D01*
X0675194Y0095508D01*
X0675180Y0095656D01*
X0675170Y0095804D01*
X0675164Y0095952D01*
X0675162Y0096100D01*
D11*
X0549412Y0119850D03*
D12*
X0310662Y0215300D02*
X0310662Y0221900D01*
X0300662Y0221900D02*
X0300662Y0215300D01*
X0290662Y0215300D02*
X0290662Y0221900D01*
X0280662Y0221900D02*
X0280662Y0215300D01*
X0270662Y0215300D02*
X0270662Y0221900D01*
X0260662Y0221900D02*
X0260662Y0215300D01*
X0250662Y0215300D02*
X0250662Y0221900D01*
X0240662Y0221900D02*
X0240662Y0215300D01*
X0224662Y0215300D02*
X0224662Y0221900D01*
X0214662Y0221900D02*
X0214662Y0215300D01*
X0204662Y0215300D02*
X0204662Y0221900D01*
X0194662Y0221900D02*
X0194662Y0215300D01*
X0184662Y0215300D02*
X0184662Y0221900D01*
X0174662Y0221900D02*
X0174662Y0215300D01*
X0164662Y0215300D02*
X0164662Y0221900D01*
X0154662Y0221900D02*
X0154662Y0215300D01*
X0180662Y0402800D02*
X0180662Y0409400D01*
X0190662Y0409400D02*
X0190662Y0402800D01*
X0200662Y0402800D02*
X0200662Y0409400D01*
X0210662Y0409400D02*
X0210662Y0402800D01*
X0220662Y0402800D02*
X0220662Y0409400D01*
X0230662Y0409400D02*
X0230662Y0402800D01*
X0240662Y0402800D02*
X0240662Y0409400D01*
X0260662Y0409400D02*
X0260662Y0402800D01*
X0270662Y0402800D02*
X0270662Y0409400D01*
X0280662Y0409400D02*
X0280662Y0402800D01*
X0290662Y0402800D02*
X0290662Y0409400D01*
X0300662Y0409400D02*
X0300662Y0402800D01*
X0310662Y0402800D02*
X0310662Y0409400D01*
D13*
X0275662Y0438400D02*
X0275662Y0443800D01*
X0265662Y0443800D02*
X0265662Y0438400D01*
D14*
X0139362Y0166800D03*
X0131962Y0166800D03*
D15*
X0135662Y0175400D03*
D16*
X0130662Y0151698D03*
X0130662Y0140502D03*
X0130662Y0126698D03*
X0130662Y0115502D03*
X0118162Y0109198D03*
X0118162Y0098002D03*
X0184401Y0101612D03*
X0184401Y0112809D03*
X0410662Y0135502D03*
X0410662Y0146698D03*
X0460662Y0146698D03*
X0460662Y0135502D03*
X0490662Y0135502D03*
X0490662Y0146698D03*
X0470662Y0190502D03*
X0470662Y0201698D03*
X0470662Y0400502D03*
X0470662Y0411698D03*
X0505662Y0410502D03*
X0505662Y0421698D03*
X0505662Y0435502D03*
X0505662Y0446698D03*
D17*
X0241567Y0421100D03*
X0229756Y0421100D03*
X0434756Y0176100D03*
X0446567Y0176100D03*
D18*
X0438063Y0441100D03*
X0463260Y0441100D03*
X0248260Y0441100D03*
X0223063Y0441100D03*
D19*
X0234963Y0177350D03*
X0234963Y0109850D03*
X0368860Y0109850D03*
X0368860Y0177350D03*
D20*
X0490662Y0173305D03*
X0490662Y0198895D03*
D21*
X0450662Y0202852D02*
X0450662Y0209348D01*
X0440662Y0209348D02*
X0440662Y0202852D01*
X0430662Y0202852D02*
X0430662Y0209348D01*
X0420662Y0209348D02*
X0420662Y0202852D01*
X0410662Y0202852D02*
X0410662Y0209348D01*
X0400662Y0209348D02*
X0400662Y0202852D01*
D22*
X0525063Y0226100D03*
X0536260Y0226100D03*
X0511260Y0093600D03*
X0500063Y0093600D03*
X0197649Y0092006D03*
X0186452Y0092006D03*
X0155149Y0112173D03*
X0143952Y0112173D03*
X0166174Y0121027D03*
X0177371Y0121027D03*
X0101596Y0138460D03*
X0090399Y0138460D03*
X0160063Y0186100D03*
X0171260Y0186100D03*
X0105096Y0308060D03*
X0093899Y0308060D03*
X0093899Y0325727D03*
X0105096Y0325727D03*
X0105096Y0343394D03*
X0093899Y0343394D03*
X0605063Y0401100D03*
X0616260Y0401100D03*
X0621260Y0381100D03*
X0610063Y0381100D03*
X0615063Y0356100D03*
X0626260Y0356100D03*
X0616260Y0421100D03*
X0605063Y0421100D03*
D23*
X0594323Y0186100D03*
X0577000Y0186100D03*
X0577000Y0161100D03*
X0594323Y0161100D03*
X0594323Y0136100D03*
X0577000Y0136100D03*
X0546081Y0152340D03*
X0528758Y0152340D03*
X0577000Y0111100D03*
X0594323Y0111100D03*
X0200088Y0119019D03*
X0200088Y0101696D03*
D24*
X0525662Y0178502D03*
X0525662Y0203698D03*
X0625662Y0208502D03*
X0625662Y0233698D03*
X0565662Y0413502D03*
X0565662Y0438698D03*
D25*
X0089162Y0071700D02*
X0059162Y0071700D01*
X0059162Y0101700D01*
X0073835Y0133150D02*
X0085089Y0133150D01*
X0090399Y0138460D01*
X0101596Y0138460D02*
X0104949Y0141813D01*
X0120063Y0126698D01*
X0130662Y0126698D01*
X0105662Y0142526D02*
X0105662Y0170237D01*
X0104962Y0170237D01*
X0102099Y0173100D01*
X0105662Y0142526D02*
X0104949Y0141813D01*
X0200088Y0119019D02*
X0217742Y0119019D01*
X0220662Y0116100D01*
X0220662Y0101100D01*
X0225662Y0096100D01*
X0310662Y0096100D01*
X0335662Y0096100D02*
X0335662Y0301100D01*
X0325662Y0311100D01*
X0265662Y0311100D01*
X0250662Y0326100D01*
X0250662Y0361100D01*
X0270662Y0366100D02*
X0270662Y0331100D01*
X0280662Y0321100D01*
X0335662Y0321100D01*
X0345662Y0311100D01*
X0345662Y0146100D01*
X0353162Y0138600D01*
X0405662Y0096100D02*
X0460662Y0096100D01*
X0475662Y0111100D01*
X0515443Y0111100D01*
X0518162Y0108600D02*
X0525662Y0108600D01*
X0525662Y0103600D01*
X0533162Y0091100D01*
X0570662Y0091100D01*
X0578162Y0098600D01*
X0578162Y0109939D01*
X0577000Y0111100D01*
X0546493Y0118551D02*
X0522092Y0118551D01*
X0522092Y0127651D02*
X0509111Y0127651D01*
X0508162Y0128600D01*
X0490662Y0135502D02*
X0490662Y0121100D01*
X0490662Y0101100D02*
X0490063Y0100502D01*
X0498760Y0100502D01*
X0500662Y0098600D01*
X0500662Y0094198D01*
X0500063Y0093600D01*
X0492563Y0086100D01*
X0480662Y0086100D01*
X0511260Y0093600D02*
X0515662Y0093600D01*
X0525662Y0081100D01*
X0655662Y0081100D01*
X0664162Y0071700D02*
X0694162Y0071700D01*
X0694162Y0101700D01*
X0577000Y0136100D02*
X0577000Y0161100D01*
X0577000Y0186100D01*
X0575662Y0187439D01*
X0575662Y0196100D01*
X0580662Y0201100D01*
X0618260Y0201100D01*
X0625662Y0208502D01*
X0640662Y0221100D02*
X0625662Y0236100D01*
X0600662Y0221100D02*
X0600662Y0277475D01*
X0600662Y0277478D01*
X0590662Y0296100D02*
X0595662Y0301100D01*
X0615662Y0301100D01*
X0590662Y0296100D02*
X0590662Y0231100D01*
X0585662Y0226100D01*
X0536260Y0226100D01*
X0525662Y0225502D02*
X0525063Y0226100D01*
X0525063Y0226698D01*
X0520662Y0231100D01*
X0375662Y0231100D01*
X0370662Y0236100D01*
X0370662Y0361100D01*
X0470662Y0441100D02*
X0475662Y0436100D01*
X0470662Y0441100D02*
X0463260Y0441100D01*
X0438162Y0441198D02*
X0438063Y0441100D01*
X0438162Y0441198D02*
X0438162Y0451100D01*
X0438162Y0456100D01*
X0443162Y0461100D01*
X0500662Y0461100D01*
X0438162Y0451100D02*
X0355662Y0451100D01*
X0240662Y0406100D02*
X0240662Y0338600D01*
X0233162Y0331100D01*
X0233162Y0198600D01*
X0230662Y0196100D01*
X0265662Y0196100D01*
X0270662Y0191100D01*
X0230662Y0196100D02*
X0220662Y0186100D01*
X0210662Y0186100D01*
X0214662Y0218600D02*
X0215662Y0219600D01*
X0215662Y0331100D01*
X0203368Y0343394D01*
X0105096Y0343394D01*
X0105096Y0325727D02*
X0186035Y0325727D01*
X0195662Y0316100D01*
X0195662Y0219600D01*
X0194662Y0218600D01*
X0185662Y0219600D02*
X0184662Y0218600D01*
X0185662Y0219600D02*
X0185662Y0301100D01*
X0178701Y0308060D01*
X0105096Y0308060D01*
X0072535Y0354150D02*
X0074485Y0356100D01*
X0210662Y0356100D01*
X0220662Y0366100D01*
X0220662Y0406100D01*
X0089162Y0470500D02*
X0059162Y0470500D01*
X0059162Y0440500D01*
X0400662Y0216100D02*
X0400662Y0206100D01*
X0410662Y0206100D02*
X0410662Y0181100D01*
X0415662Y0176100D01*
X0430662Y0176100D01*
X0430662Y0201100D01*
X0450662Y0206100D02*
X0450662Y0181100D01*
X0445662Y0176100D01*
X0470662Y0190502D02*
X0485063Y0190502D01*
X0490662Y0196100D01*
X0490662Y0198895D01*
X0490662Y0211100D01*
X0480662Y0221100D01*
X0405662Y0221100D01*
X0400662Y0216100D01*
X0450662Y0206100D02*
X0466260Y0206100D01*
X0470662Y0201698D01*
X0495858Y0178502D02*
X0490662Y0173305D01*
X0495858Y0178502D02*
X0525662Y0178502D01*
X0528758Y0152340D02*
X0514422Y0152340D01*
X0510662Y0156100D01*
X0546081Y0152340D02*
X0556901Y0152340D01*
X0560662Y0156100D01*
X0560662Y0201100D01*
X0575662Y0216100D01*
X0595662Y0216100D01*
X0600662Y0221100D01*
X0525662Y0225502D02*
X0525662Y0203698D01*
X0546081Y0152340D02*
X0546081Y0118963D01*
X0546493Y0118551D01*
X0590662Y0356100D02*
X0615662Y0356100D01*
X0625662Y0356698D02*
X0626260Y0356100D01*
X0625662Y0356698D02*
X0625662Y0376100D01*
X0621260Y0380502D01*
X0621260Y0381100D01*
X0610063Y0381100D02*
X0605662Y0381100D01*
X0605662Y0400502D01*
X0605063Y0401100D01*
X0590662Y0391100D02*
X0590662Y0416100D01*
X0595662Y0421100D01*
X0605063Y0421100D01*
X0605063Y0381100D02*
X0605662Y0381100D01*
X0694162Y0440500D02*
X0694162Y0470500D01*
X0664162Y0470500D01*
D26*
X0670662Y0426100D03*
D27*
X0660662Y0426100D03*
X0650662Y0426100D03*
X0650662Y0416100D03*
X0660662Y0416100D03*
X0670662Y0416100D03*
X0670662Y0406100D03*
X0670662Y0396100D03*
X0660662Y0396100D03*
X0660662Y0406100D03*
X0650662Y0406100D03*
X0650662Y0396100D03*
X0650662Y0386100D03*
X0660662Y0386100D03*
X0670662Y0386100D03*
X0670662Y0376100D03*
X0660662Y0376100D03*
X0650662Y0376100D03*
X0650662Y0366100D03*
X0660662Y0366100D03*
X0670662Y0366100D03*
X0670662Y0356100D03*
X0660662Y0356100D03*
X0650662Y0356100D03*
X0650662Y0346100D03*
X0660662Y0346100D03*
X0670662Y0346100D03*
X0670662Y0336100D03*
X0670662Y0326100D03*
X0660662Y0326100D03*
X0660662Y0336100D03*
X0650662Y0336100D03*
X0650662Y0326100D03*
X0650662Y0316100D03*
X0660662Y0316100D03*
X0670662Y0316100D03*
X0670662Y0306100D03*
X0660662Y0306100D03*
X0650662Y0306100D03*
X0650662Y0296100D03*
X0660662Y0296100D03*
X0670662Y0296100D03*
X0670662Y0286100D03*
X0660662Y0286100D03*
X0650662Y0286100D03*
X0650662Y0276100D03*
X0660662Y0276100D03*
X0670662Y0276100D03*
X0670662Y0266100D03*
X0660662Y0266100D03*
X0650662Y0266100D03*
X0650662Y0256100D03*
X0660662Y0256100D03*
X0670662Y0256100D03*
X0670662Y0246100D03*
X0660662Y0246100D03*
X0650662Y0246100D03*
X0650662Y0236100D03*
X0660662Y0236100D03*
X0670662Y0236100D03*
X0670662Y0226100D03*
X0660662Y0226100D03*
X0650662Y0226100D03*
X0650662Y0216100D03*
X0660662Y0216100D03*
X0670662Y0216100D03*
X0670662Y0206100D03*
X0660662Y0206100D03*
X0650662Y0206100D03*
X0650662Y0196100D03*
X0660662Y0196100D03*
X0670662Y0196100D03*
X0670662Y0186100D03*
X0660662Y0186100D03*
X0650662Y0186100D03*
X0650662Y0176100D03*
X0660662Y0176100D03*
X0670662Y0176100D03*
X0670662Y0166100D03*
X0660662Y0166100D03*
X0650662Y0166100D03*
X0650662Y0156100D03*
X0660662Y0156100D03*
X0670662Y0156100D03*
X0670662Y0146100D03*
X0670662Y0136100D03*
X0660662Y0136100D03*
X0660662Y0146100D03*
X0650662Y0146100D03*
X0650662Y0136100D03*
X0650662Y0126100D03*
X0660662Y0126100D03*
X0670662Y0126100D03*
X0670662Y0116100D03*
X0660662Y0116100D03*
X0650662Y0116100D03*
D28*
X0395898Y0411100D03*
X0395898Y0416100D03*
X0395898Y0421100D03*
X0395898Y0426100D03*
X0395898Y0431100D03*
X0395898Y0436100D03*
X0395898Y0441100D03*
X0375425Y0441100D03*
X0375425Y0436100D03*
X0375425Y0431100D03*
X0375425Y0426100D03*
X0375425Y0421100D03*
X0375425Y0416100D03*
X0375425Y0411100D03*
D29*
X0350662Y0420194D03*
X0350662Y0432006D03*
X0418162Y0432006D03*
X0418162Y0420194D03*
X0530662Y0415194D03*
X0530662Y0427006D03*
X0195662Y0152006D03*
X0195662Y0140194D03*
D30*
X0600662Y0277478D03*
X0600662Y0324722D03*
D31*
X0173162Y0163200D03*
X0168162Y0163200D03*
X0163162Y0163200D03*
X0158162Y0163200D03*
X0158162Y0139000D03*
X0163162Y0139000D03*
X0168162Y0139000D03*
X0173162Y0139000D03*
D32*
X0132064Y0104066D03*
X0140726Y0100325D03*
X0132064Y0096585D03*
X0155411Y0099066D03*
X0164072Y0095325D03*
X0155411Y0091585D03*
D33*
X0522092Y0109451D03*
X0522092Y0118551D03*
X0522092Y0127651D03*
D34*
X0546493Y0118551D03*
D35*
X0073835Y0133150D03*
X0073835Y0143150D03*
X0073401Y0308150D03*
X0073401Y0318150D03*
X0072968Y0326150D03*
X0072968Y0336150D03*
X0072535Y0344150D03*
X0072535Y0354150D03*
D36*
X0078476Y0173100D03*
X0090287Y0154596D03*
X0102099Y0173100D03*
D37*
X0625662Y0141100D02*
X0665662Y0141100D01*
X0670662Y0136100D01*
X0660662Y0216100D02*
X0655662Y0221100D01*
X0640662Y0221100D01*
X0640662Y0281100D02*
X0680662Y0281100D01*
X0660662Y0316100D02*
X0655662Y0321100D01*
X0640662Y0321100D01*
X0635662Y0381100D02*
X0665662Y0381100D01*
X0665662Y0401100D02*
X0640662Y0401100D01*
X0640662Y0411100D02*
X0665662Y0411100D01*
D38*
X0670662Y0406100D02*
X0680662Y0406100D01*
X0685662Y0401100D01*
X0685662Y0286100D01*
X0680662Y0281100D01*
X0640662Y0281100D02*
X0615662Y0301100D01*
X0640662Y0321100D02*
X0625662Y0336100D01*
X0626260Y0356100D01*
X0621260Y0381100D02*
X0635662Y0381100D01*
X0640662Y0401100D02*
X0625662Y0401100D01*
X0616260Y0401100D01*
X0626260Y0411100D02*
X0640662Y0411100D01*
X0626260Y0411100D02*
X0616260Y0421100D01*
X0635662Y0436100D02*
X0590662Y0436100D01*
X0568063Y0413502D01*
X0565662Y0413502D02*
X0532354Y0413502D01*
X0530662Y0427006D02*
X0530662Y0436100D01*
X0535662Y0441100D01*
X0545662Y0441100D01*
X0563260Y0441100D01*
X0535662Y0456100D02*
X0650662Y0456100D01*
X0670662Y0436100D01*
X0670662Y0426100D01*
X0605063Y0381100D02*
X0300662Y0381100D01*
X0290662Y0386100D01*
X0290662Y0406100D01*
X0300662Y0406100D02*
X0300662Y0396100D01*
X0310662Y0391100D01*
X0590662Y0391100D01*
X0535662Y0456100D02*
X0515662Y0436100D01*
X0506260Y0436100D01*
X0505662Y0435502D02*
X0505662Y0421698D01*
X0504465Y0411698D02*
X0470662Y0411698D01*
X0470063Y0411100D02*
X0415662Y0411100D01*
X0405662Y0401100D02*
X0455662Y0401100D01*
X0465063Y0400502D01*
X0470662Y0400502D01*
X0430662Y0431100D02*
X0424756Y0431100D01*
X0415662Y0431100D01*
X0405662Y0401100D02*
X0320662Y0401100D01*
X0315662Y0406100D01*
X0310662Y0406100D01*
X0325662Y0426100D02*
X0331567Y0420194D01*
X0350662Y0420194D01*
X0351567Y0431100D02*
X0360662Y0431100D01*
X0350662Y0432006D02*
X0350662Y0446100D01*
X0355662Y0451100D01*
X0325662Y0456100D02*
X0325662Y0426100D01*
X0325662Y0456100D02*
X0230662Y0456100D01*
X0225662Y0451100D01*
X0225662Y0443698D01*
X0220662Y0441100D02*
X0229756Y0432006D01*
X0229756Y0421100D01*
X0229756Y0407006D01*
X0241567Y0407006D02*
X0241567Y0421100D01*
X0241567Y0434407D01*
X0248260Y0441100D01*
X0265662Y0441100D01*
X0260662Y0421100D02*
X0275662Y0421100D01*
X0280662Y0416100D01*
X0280662Y0406100D01*
X0270662Y0406100D02*
X0270662Y0366100D01*
X0250662Y0361100D02*
X0250662Y0411100D01*
X0260662Y0421100D01*
X0500662Y0461100D02*
X0505662Y0456100D01*
X0505662Y0446698D01*
X0594323Y0186100D02*
X0615662Y0186100D01*
X0625662Y0161100D02*
X0594323Y0161100D01*
X0610662Y0141100D02*
X0625662Y0141100D01*
X0610662Y0141100D02*
X0605662Y0136100D01*
X0594323Y0136100D01*
X0577000Y0136100D02*
X0577000Y0111100D01*
X0594323Y0111100D02*
X0605662Y0111100D01*
X0610662Y0106100D01*
X0610662Y0091100D01*
X0610662Y0106100D02*
X0630662Y0106100D01*
X0655662Y0081100D02*
X0660662Y0086100D01*
X0680662Y0106100D02*
X0685662Y0111100D01*
X0685662Y0131100D01*
X0680662Y0136100D01*
X0670662Y0136100D01*
X0490662Y0146698D02*
X0460662Y0146698D01*
X0475063Y0146698D01*
X0475662Y0146100D02*
X0475662Y0131100D01*
X0455662Y0111100D01*
X0370110Y0111100D01*
X0368860Y0109850D01*
X0356260Y0135502D02*
X0353162Y0138600D01*
X0350662Y0141100D01*
X0356260Y0135502D02*
X0410662Y0135502D01*
X0460662Y0135502D01*
X0490662Y0146698D02*
X0490662Y0173305D01*
X0425662Y0156100D02*
X0415662Y0156100D01*
X0410662Y0146698D01*
X0345662Y0086100D02*
X0335662Y0096100D01*
X0345662Y0086100D02*
X0480662Y0086100D01*
X0210662Y0186100D02*
X0190662Y0186100D01*
X0195662Y0181100D01*
X0195662Y0152006D01*
X0170662Y0176100D02*
X0170662Y0185502D01*
X0171260Y0186100D02*
X0190662Y0186100D01*
D39*
X0186662Y0177100D02*
X0179662Y0177100D01*
X0179662Y0174310D01*
X0178624Y0171805D01*
X0179718Y0170712D01*
X0180662Y0168433D01*
X0180662Y0157967D01*
X0179718Y0155688D01*
X0177974Y0153944D01*
X0175695Y0153000D01*
X0155628Y0153000D01*
X0153349Y0153944D01*
X0151605Y0155688D01*
X0150662Y0157967D01*
X0150662Y0168433D01*
X0150762Y0168675D01*
X0150762Y0178740D01*
X0150636Y0179745D01*
X0150762Y0180199D01*
X0150762Y0180670D01*
X0150872Y0180936D01*
X0150713Y0181318D01*
X0150713Y0190882D01*
X0151657Y0193161D01*
X0151863Y0193367D01*
X0151863Y0197133D01*
X0153111Y0200146D01*
X0158710Y0205745D01*
X0161017Y0208052D01*
X0164030Y0209300D01*
X0167227Y0209300D01*
X0166608Y0209919D01*
X0166600Y0209937D01*
X0165996Y0209740D01*
X0165110Y0209600D01*
X0164662Y0209600D01*
X0164662Y0218600D01*
X0164661Y0218600D01*
X0164661Y0227600D01*
X0164213Y0227600D01*
X0163327Y0227460D01*
X0162723Y0227263D01*
X0162715Y0227281D01*
X0160043Y0229954D01*
X0156551Y0231400D01*
X0152772Y0231400D01*
X0149280Y0229954D01*
X0146608Y0227281D01*
X0145162Y0223790D01*
X0145162Y0217197D01*
X0141175Y0213210D01*
X0141862Y0214867D01*
X0141862Y0299360D01*
X0175098Y0299360D01*
X0176962Y0297496D01*
X0176962Y0231230D01*
X0176551Y0231400D01*
X0172772Y0231400D01*
X0169280Y0229954D01*
X0166608Y0227281D01*
X0166600Y0227263D01*
X0165996Y0227460D01*
X0165110Y0227600D01*
X0164662Y0227600D01*
X0164662Y0218600D01*
X0164661Y0218600D01*
X0164661Y0209600D01*
X0164213Y0209600D01*
X0163327Y0209740D01*
X0162723Y0209937D01*
X0162715Y0209919D01*
X0160043Y0207246D01*
X0157246Y0206088D01*
X0138462Y0187303D01*
X0138462Y0183965D01*
X0140174Y0183256D01*
X0141918Y0181512D01*
X0142862Y0179233D01*
X0142862Y0171567D01*
X0142494Y0170679D01*
X0142588Y0170537D01*
X0142769Y0170100D01*
X0142862Y0169636D01*
X0142862Y0166800D01*
X0140162Y0166800D01*
X0140162Y0166800D01*
X0142862Y0166800D01*
X0142862Y0163964D01*
X0142769Y0163500D01*
X0142588Y0163063D01*
X0142326Y0162670D01*
X0141991Y0162336D01*
X0141598Y0162073D01*
X0141162Y0161892D01*
X0140698Y0161800D01*
X0139362Y0161800D01*
X0139362Y0163238D01*
X0139361Y0163237D01*
X0139361Y0161800D01*
X0138862Y0161800D01*
X0138862Y0158965D01*
X0139467Y0158360D01*
X0140411Y0156081D01*
X0140411Y0152300D01*
X0146895Y0152300D01*
X0149174Y0151356D01*
X0150918Y0149612D01*
X0151862Y0147333D01*
X0151862Y0128900D01*
X0158580Y0128900D01*
X0159109Y0129429D01*
X0158349Y0129744D01*
X0156605Y0131488D01*
X0156095Y0132720D01*
X0155725Y0132873D01*
X0155332Y0133136D01*
X0154997Y0133470D01*
X0154735Y0133863D01*
X0154554Y0134300D01*
X0154462Y0134764D01*
X0154462Y0139000D01*
X0155662Y0139000D01*
X0155662Y0139000D01*
X0154462Y0139000D01*
X0154462Y0143236D01*
X0154554Y0143700D01*
X0154735Y0144137D01*
X0154997Y0144530D01*
X0155332Y0144864D01*
X0155725Y0145127D01*
X0156095Y0145280D01*
X0156605Y0146512D01*
X0158349Y0148256D01*
X0160628Y0149200D01*
X0175695Y0149200D01*
X0177974Y0148256D01*
X0179718Y0146512D01*
X0180662Y0144233D01*
X0180662Y0133767D01*
X0179718Y0131488D01*
X0179006Y0130776D01*
X0181754Y0130776D01*
X0184032Y0129832D01*
X0185038Y0128827D01*
X0191679Y0128827D01*
X0191852Y0129000D01*
X0194131Y0129944D01*
X0206046Y0129944D01*
X0208325Y0129000D01*
X0209605Y0127719D01*
X0219473Y0127719D01*
X0222670Y0126395D01*
X0225590Y0123475D01*
X0228037Y0121028D01*
X0229298Y0117983D01*
X0230166Y0118528D01*
X0231168Y0119011D01*
X0232218Y0119378D01*
X0233302Y0119625D01*
X0234407Y0119750D01*
X0234883Y0119750D01*
X0234883Y0109930D01*
X0235042Y0109930D01*
X0235042Y0119750D01*
X0235519Y0119750D01*
X0236624Y0119625D01*
X0237708Y0119378D01*
X0238757Y0119011D01*
X0239759Y0118528D01*
X0240701Y0117937D01*
X0241570Y0117243D01*
X0242356Y0116457D01*
X0243049Y0115588D01*
X0243641Y0114646D01*
X0244123Y0113645D01*
X0244491Y0112595D01*
X0244738Y0111511D01*
X0244863Y0110406D01*
X0244863Y0109930D01*
X0235042Y0109930D01*
X0235042Y0109770D01*
X0244863Y0109770D01*
X0244863Y0109294D01*
X0244738Y0108189D01*
X0244491Y0107105D01*
X0244123Y0106055D01*
X0243641Y0105054D01*
X0243482Y0104800D01*
X0306976Y0104800D01*
X0308782Y0105548D01*
X0312541Y0105548D01*
X0316013Y0104110D01*
X0318671Y0101452D01*
X0320110Y0097979D01*
X0320110Y0094221D01*
X0318671Y0090748D01*
X0316013Y0088090D01*
X0312541Y0086652D01*
X0308782Y0086652D01*
X0306976Y0087400D01*
X0230110Y0087400D01*
X0230110Y0084221D01*
X0228671Y0080748D01*
X0226013Y0078090D01*
X0222541Y0076652D01*
X0218782Y0076652D01*
X0215769Y0077900D01*
X0201591Y0077900D01*
X0200505Y0077758D01*
X0199974Y0077900D01*
X0199425Y0077900D01*
X0198412Y0078319D01*
X0197354Y0078603D01*
X0196918Y0078938D01*
X0196411Y0079148D01*
X0195636Y0079923D01*
X0194767Y0080590D01*
X0194493Y0081066D01*
X0194104Y0081455D01*
X0193772Y0082257D01*
X0193266Y0082257D01*
X0192051Y0082761D01*
X0190835Y0082257D01*
X0182069Y0082257D01*
X0179791Y0083201D01*
X0178047Y0084945D01*
X0177103Y0087224D01*
X0177103Y0093444D01*
X0176734Y0093812D01*
X0173590Y0093812D01*
X0173028Y0093250D01*
X0173028Y0092124D01*
X0172084Y0089845D01*
X0170340Y0088101D01*
X0168061Y0087157D01*
X0160083Y0087157D01*
X0159291Y0087485D01*
X0158867Y0087309D01*
X0158403Y0087217D01*
X0155411Y0087217D01*
X0155411Y0090897D01*
X0155411Y0090897D01*
X0155411Y0087217D01*
X0152419Y0087217D01*
X0151955Y0087309D01*
X0151518Y0087490D01*
X0151125Y0087753D01*
X0150791Y0088087D01*
X0150528Y0088480D01*
X0150347Y0088917D01*
X0150255Y0089380D01*
X0150255Y0091380D01*
X0149143Y0091841D01*
X0147438Y0093546D01*
X0146993Y0093101D01*
X0144715Y0092157D01*
X0136736Y0092157D01*
X0135945Y0092485D01*
X0135520Y0092309D01*
X0135056Y0092217D01*
X0132064Y0092217D01*
X0132064Y0095897D01*
X0132064Y0095897D01*
X0132064Y0092217D01*
X0129072Y0092217D01*
X0128608Y0092309D01*
X0128171Y0092490D01*
X0127778Y0092753D01*
X0127444Y0093087D01*
X0127181Y0093480D01*
X0127000Y0093917D01*
X0126908Y0094380D01*
X0126908Y0096380D01*
X0125796Y0096841D01*
X0124111Y0098526D01*
X0124111Y0098376D01*
X0118536Y0098376D01*
X0118536Y0097627D01*
X0118536Y0092452D01*
X0121947Y0092452D01*
X0122411Y0092544D01*
X0122848Y0092725D01*
X0123241Y0092988D01*
X0123575Y0093322D01*
X0123838Y0093715D01*
X0124018Y0094152D01*
X0124111Y0094616D01*
X0124111Y0097627D01*
X0118536Y0097627D01*
X0117787Y0097627D01*
X0117787Y0092452D01*
X0114376Y0092452D01*
X0113912Y0092544D01*
X0113475Y0092725D01*
X0113082Y0092988D01*
X0112748Y0093322D01*
X0112485Y0093715D01*
X0112305Y0094152D01*
X0112212Y0094616D01*
X0112212Y0097627D01*
X0117787Y0097627D01*
X0117787Y0098376D01*
X0112212Y0098376D01*
X0112212Y0100332D01*
X0111100Y0100793D01*
X0109356Y0102537D01*
X0108412Y0104816D01*
X0108412Y0113581D01*
X0109356Y0115860D01*
X0111100Y0117604D01*
X0111435Y0117743D01*
X0111549Y0118018D01*
X0113994Y0120464D01*
X0105747Y0128711D01*
X0101819Y0128711D01*
X0103418Y0127112D01*
X0104362Y0124833D01*
X0104362Y0073600D01*
X0521034Y0073600D01*
X0520733Y0073724D01*
X0520383Y0074075D01*
X0519949Y0074314D01*
X0519169Y0075289D01*
X0518286Y0076172D01*
X0518096Y0076630D01*
X0512319Y0083851D01*
X0506877Y0083851D01*
X0505662Y0084354D01*
X0504446Y0083851D01*
X0502618Y0083851D01*
X0497491Y0078724D01*
X0494294Y0077400D01*
X0483176Y0077400D01*
X0482452Y0077100D01*
X0343871Y0077100D01*
X0340563Y0078470D01*
X0328032Y0091002D01*
X0326662Y0094310D01*
X0326662Y0097890D01*
X0326962Y0098614D01*
X0326962Y0259900D01*
X0299428Y0259900D01*
X0297149Y0260844D01*
X0295405Y0262588D01*
X0294462Y0264867D01*
X0294462Y0292333D01*
X0295405Y0294612D01*
X0297149Y0296356D01*
X0299428Y0297300D01*
X0326962Y0297300D01*
X0326962Y0297496D01*
X0322058Y0302400D01*
X0263931Y0302400D01*
X0260733Y0303724D01*
X0258286Y0306172D01*
X0243286Y0321172D01*
X0241962Y0324369D01*
X0241962Y0327596D01*
X0241862Y0327496D01*
X0241862Y0231400D01*
X0242551Y0231400D01*
X0245662Y0230112D01*
X0248772Y0231400D01*
X0252551Y0231400D01*
X0255662Y0230112D01*
X0258772Y0231400D01*
X0262551Y0231400D01*
X0265662Y0230112D01*
X0268772Y0231400D01*
X0272551Y0231400D01*
X0275662Y0230112D01*
X0278772Y0231400D01*
X0282551Y0231400D01*
X0285662Y0230112D01*
X0288772Y0231400D01*
X0292551Y0231400D01*
X0295662Y0230112D01*
X0298772Y0231400D01*
X0302551Y0231400D01*
X0305662Y0230112D01*
X0308772Y0231400D01*
X0312551Y0231400D01*
X0316043Y0229954D01*
X0318715Y0227281D01*
X0320162Y0223790D01*
X0320162Y0213410D01*
X0318715Y0209919D01*
X0316043Y0207246D01*
X0312551Y0205800D01*
X0308772Y0205800D01*
X0305662Y0207088D01*
X0302551Y0205800D01*
X0298772Y0205800D01*
X0295662Y0207088D01*
X0292551Y0205800D01*
X0288772Y0205800D01*
X0285662Y0207088D01*
X0282551Y0205800D01*
X0278772Y0205800D01*
X0275662Y0207088D01*
X0272551Y0205800D01*
X0268772Y0205800D01*
X0265662Y0207088D01*
X0262551Y0205800D01*
X0258772Y0205800D01*
X0255662Y0207088D01*
X0252551Y0205800D01*
X0248772Y0205800D01*
X0245662Y0207088D01*
X0242551Y0205800D01*
X0241862Y0205800D01*
X0241862Y0204800D01*
X0267392Y0204800D01*
X0270590Y0203475D01*
X0273037Y0201028D01*
X0274207Y0199858D01*
X0276013Y0199110D01*
X0278671Y0196452D01*
X0280110Y0192979D01*
X0280110Y0189221D01*
X0278671Y0185748D01*
X0276013Y0183090D01*
X0272541Y0181652D01*
X0268782Y0181652D01*
X0265310Y0183090D01*
X0262652Y0185748D01*
X0261968Y0187400D01*
X0244287Y0187400D01*
X0245925Y0185762D01*
X0247729Y0182638D01*
X0248663Y0179154D01*
X0248663Y0175546D01*
X0247729Y0172062D01*
X0245925Y0168938D01*
X0243375Y0166387D01*
X0240251Y0164584D01*
X0236766Y0163650D01*
X0233159Y0163650D01*
X0229675Y0164584D01*
X0226551Y0166387D01*
X0224000Y0168938D01*
X0222196Y0172062D01*
X0221263Y0175546D01*
X0221263Y0177400D01*
X0213176Y0177400D01*
X0212452Y0177100D01*
X0204662Y0177100D01*
X0204662Y0158900D01*
X0205100Y0158900D01*
X0205310Y0159110D01*
X0208782Y0160548D01*
X0212541Y0160548D01*
X0216013Y0159110D01*
X0218671Y0156452D01*
X0220110Y0152979D01*
X0220110Y0149221D01*
X0218671Y0145748D01*
X0216013Y0143090D01*
X0212541Y0141652D01*
X0208782Y0141652D01*
X0205310Y0143090D01*
X0205100Y0143300D01*
X0201999Y0143300D01*
X0201999Y0140471D01*
X0195938Y0140471D01*
X0195938Y0139918D01*
X0201999Y0139918D01*
X0201999Y0137005D01*
X0201906Y0136542D01*
X0201725Y0136105D01*
X0201463Y0135712D01*
X0201128Y0135378D01*
X0200735Y0135115D01*
X0200299Y0134934D01*
X0199835Y0134842D01*
X0195938Y0134842D01*
X0195938Y0139918D01*
X0195385Y0139918D01*
X0189325Y0139918D01*
X0189325Y0137005D01*
X0189417Y0136542D01*
X0189598Y0136105D01*
X0189860Y0135712D01*
X0190195Y0135378D01*
X0190588Y0135115D01*
X0191024Y0134934D01*
X0191488Y0134842D01*
X0195385Y0134842D01*
X0195385Y0139918D01*
X0195385Y0140471D01*
X0189325Y0140471D01*
X0189325Y0143336D01*
X0188212Y0143797D01*
X0186468Y0145541D01*
X0185525Y0147819D01*
X0185525Y0156192D01*
X0186468Y0158470D01*
X0186662Y0158663D01*
X0186662Y0177100D01*
X0186662Y0175826D02*
X0179662Y0175826D01*
X0179296Y0173428D02*
X0186662Y0173428D01*
X0186662Y0171029D02*
X0179401Y0171029D01*
X0180580Y0168630D02*
X0186662Y0168630D01*
X0186662Y0166232D02*
X0180662Y0166232D01*
X0180662Y0163833D02*
X0186662Y0163833D01*
X0186662Y0161435D02*
X0180662Y0161435D01*
X0180662Y0159036D02*
X0186662Y0159036D01*
X0185709Y0156638D02*
X0180111Y0156638D01*
X0178269Y0154239D02*
X0185525Y0154239D01*
X0185525Y0151841D02*
X0148003Y0151841D01*
X0150988Y0149442D02*
X0185525Y0149442D01*
X0185846Y0147044D02*
X0179186Y0147044D01*
X0180491Y0144645D02*
X0187364Y0144645D01*
X0189325Y0142247D02*
X0180662Y0142247D01*
X0180662Y0139848D02*
X0189325Y0139848D01*
X0189325Y0137450D02*
X0180662Y0137450D01*
X0180662Y0135051D02*
X0190741Y0135051D01*
X0195385Y0135051D02*
X0195938Y0135051D01*
X0195938Y0137450D02*
X0195385Y0137450D01*
X0195385Y0139848D02*
X0195938Y0139848D01*
X0195662Y0140194D02*
X0196567Y0141100D01*
X0201999Y0142247D02*
X0207346Y0142247D01*
X0201999Y0139848D02*
X0326962Y0139848D01*
X0326962Y0137450D02*
X0201999Y0137450D01*
X0200582Y0135051D02*
X0326962Y0135051D01*
X0326962Y0132653D02*
X0180200Y0132653D01*
X0183013Y0130254D02*
X0326962Y0130254D01*
X0326962Y0127856D02*
X0209469Y0127856D01*
X0223608Y0125457D02*
X0326962Y0125457D01*
X0326962Y0123059D02*
X0226006Y0123059D01*
X0228189Y0120660D02*
X0326962Y0120660D01*
X0326962Y0118262D02*
X0240183Y0118262D01*
X0242830Y0115863D02*
X0326962Y0115863D01*
X0326962Y0113465D02*
X0244186Y0113465D01*
X0244788Y0111066D02*
X0326962Y0111066D01*
X0326962Y0108668D02*
X0244792Y0108668D01*
X0244198Y0106269D02*
X0326962Y0106269D01*
X0326962Y0103871D02*
X0316252Y0103871D01*
X0318651Y0101472D02*
X0326962Y0101472D01*
X0326962Y0099074D02*
X0319656Y0099074D01*
X0320110Y0096675D02*
X0326662Y0096675D01*
X0326675Y0094277D02*
X0320110Y0094277D01*
X0319139Y0091878D02*
X0327669Y0091878D01*
X0329554Y0089480D02*
X0317403Y0089480D01*
X0313577Y0087081D02*
X0331952Y0087081D01*
X0334351Y0084683D02*
X0230110Y0084683D01*
X0230110Y0087081D02*
X0307746Y0087081D01*
X0336750Y0082284D02*
X0229307Y0082284D01*
X0227809Y0079886D02*
X0339148Y0079886D01*
X0342937Y0077487D02*
X0224557Y0077487D01*
X0216766Y0077487D02*
X0104362Y0077487D01*
X0104362Y0075089D02*
X0519329Y0075089D01*
X0517410Y0077487D02*
X0494504Y0077487D01*
X0498652Y0079886D02*
X0515492Y0079886D01*
X0513573Y0082284D02*
X0501051Y0082284D01*
X0515443Y0111100D02*
X0522092Y0109451D01*
X0500411Y0134211D02*
X0500411Y0139884D01*
X0499467Y0142163D01*
X0497723Y0143907D01*
X0496611Y0144368D01*
X0496611Y0146324D01*
X0491036Y0146324D01*
X0491036Y0147073D01*
X0490287Y0147073D01*
X0490287Y0146324D01*
X0484712Y0146324D01*
X0484712Y0144368D01*
X0483600Y0143907D01*
X0481856Y0142163D01*
X0480912Y0139884D01*
X0480912Y0131119D01*
X0481856Y0128840D01*
X0481962Y0128735D01*
X0481962Y0124785D01*
X0481213Y0122979D01*
X0481213Y0119800D01*
X0473931Y0119800D01*
X0470733Y0118475D01*
X0468286Y0116028D01*
X0457058Y0104800D01*
X0409347Y0104800D01*
X0407541Y0105548D01*
X0403782Y0105548D01*
X0400310Y0104110D01*
X0397652Y0101452D01*
X0396213Y0097979D01*
X0396213Y0095100D01*
X0349389Y0095100D01*
X0344362Y0100128D01*
X0344362Y0134672D01*
X0348063Y0130970D01*
X0348063Y0130970D01*
X0348630Y0130403D01*
X0351162Y0127872D01*
X0354470Y0126502D01*
X0405035Y0126502D01*
X0405879Y0126152D01*
X0415444Y0126152D01*
X0416288Y0126502D01*
X0455035Y0126502D01*
X0455879Y0126152D01*
X0465444Y0126152D01*
X0467723Y0127096D01*
X0469467Y0128840D01*
X0470411Y0131119D01*
X0470411Y0139884D01*
X0469467Y0142163D01*
X0467723Y0143907D01*
X0466611Y0144368D01*
X0466611Y0146324D01*
X0461036Y0146324D01*
X0461036Y0147073D01*
X0460287Y0147073D01*
X0460287Y0146324D01*
X0454712Y0146324D01*
X0454712Y0144502D01*
X0420411Y0144502D01*
X0420411Y0145863D01*
X0421069Y0147100D01*
X0421365Y0147100D01*
X0423681Y0146141D01*
X0427642Y0146141D01*
X0431303Y0147657D01*
X0434104Y0150459D01*
X0435621Y0154119D01*
X0435621Y0158081D01*
X0434104Y0161741D01*
X0431303Y0164543D01*
X0427642Y0166059D01*
X0423681Y0166059D01*
X0421365Y0165100D01*
X0416094Y0165100D01*
X0414743Y0165230D01*
X0414317Y0165100D01*
X0413871Y0165100D01*
X0412617Y0164580D01*
X0411319Y0164184D01*
X0410975Y0163900D01*
X0410563Y0163730D01*
X0409604Y0162770D01*
X0408556Y0161907D01*
X0408347Y0161513D01*
X0408032Y0161198D01*
X0407512Y0159944D01*
X0405316Y0155815D01*
X0403600Y0155104D01*
X0401856Y0153360D01*
X0400912Y0151081D01*
X0400912Y0144502D01*
X0359988Y0144502D01*
X0355760Y0148730D01*
X0355035Y0149030D01*
X0354362Y0149704D01*
X0354362Y0312831D01*
X0353037Y0316028D01*
X0350590Y0318475D01*
X0340590Y0328475D01*
X0337392Y0329800D01*
X0284265Y0329800D01*
X0279362Y0334704D01*
X0279362Y0363586D01*
X0279662Y0364310D01*
X0279662Y0393300D01*
X0281662Y0393300D01*
X0281662Y0386419D01*
X0281557Y0384952D01*
X0281662Y0384639D01*
X0281662Y0384310D01*
X0282224Y0382951D01*
X0282689Y0381556D01*
X0282906Y0381307D01*
X0283032Y0381002D01*
X0284072Y0379962D01*
X0285035Y0378851D01*
X0285330Y0378703D01*
X0285563Y0378470D01*
X0286922Y0377907D01*
X0295330Y0373703D01*
X0295563Y0373470D01*
X0296922Y0372907D01*
X0298238Y0372250D01*
X0298567Y0372226D01*
X0298871Y0372100D01*
X0300342Y0372100D01*
X0301809Y0371996D01*
X0302122Y0372100D01*
X0376962Y0372100D01*
X0376962Y0368162D01*
X0376013Y0369110D01*
X0372541Y0370548D01*
X0368782Y0370548D01*
X0365310Y0369110D01*
X0362652Y0366452D01*
X0361213Y0362979D01*
X0361213Y0359221D01*
X0361962Y0357415D01*
X0361962Y0234369D01*
X0363286Y0231172D01*
X0365733Y0228724D01*
X0370733Y0223724D01*
X0373931Y0222400D01*
X0394658Y0222400D01*
X0393286Y0221028D01*
X0391962Y0217831D01*
X0391962Y0213033D01*
X0391213Y0211227D01*
X0391213Y0200973D01*
X0392652Y0197500D01*
X0395310Y0194842D01*
X0398782Y0193404D01*
X0402541Y0193404D01*
X0406013Y0194842D01*
X0408671Y0197500D01*
X0408693Y0197553D01*
X0409339Y0197343D01*
X0410217Y0197204D01*
X0410661Y0197204D01*
X0410661Y0206100D01*
X0410662Y0206100D01*
X0410662Y0197204D01*
X0411106Y0197204D01*
X0411984Y0197343D01*
X0412630Y0197553D01*
X0412652Y0197500D01*
X0415310Y0194842D01*
X0418782Y0193404D01*
X0422541Y0193404D01*
X0426013Y0194842D01*
X0428671Y0197500D01*
X0428693Y0197553D01*
X0429339Y0197343D01*
X0430217Y0197204D01*
X0430661Y0197204D01*
X0430661Y0206100D01*
X0430662Y0206100D01*
X0430662Y0197204D01*
X0431106Y0197204D01*
X0431984Y0197343D01*
X0432630Y0197553D01*
X0432652Y0197500D01*
X0435310Y0194842D01*
X0438782Y0193404D01*
X0441962Y0193404D01*
X0441962Y0186063D01*
X0440102Y0185293D01*
X0438358Y0183549D01*
X0437898Y0182437D01*
X0435032Y0182437D01*
X0435032Y0176376D01*
X0434480Y0176376D01*
X0434480Y0175824D01*
X0435032Y0175824D01*
X0435032Y0169763D01*
X0437898Y0169763D01*
X0438358Y0168651D01*
X0440102Y0166907D01*
X0442381Y0165963D01*
X0450753Y0165963D01*
X0453032Y0166907D01*
X0454776Y0168651D01*
X0455720Y0170930D01*
X0455720Y0173855D01*
X0458037Y0176172D01*
X0459362Y0179369D01*
X0459362Y0197400D01*
X0460912Y0197400D01*
X0460912Y0197316D01*
X0461416Y0196100D01*
X0460912Y0194884D01*
X0460912Y0186119D01*
X0461856Y0183840D01*
X0463600Y0182096D01*
X0465879Y0181152D01*
X0475444Y0181152D01*
X0477012Y0181802D01*
X0483953Y0181802D01*
X0483876Y0181724D01*
X0483613Y0181331D01*
X0483432Y0180895D01*
X0483340Y0180431D01*
X0483340Y0174505D01*
X0489461Y0174505D01*
X0489461Y0172105D01*
X0483340Y0172105D01*
X0483340Y0166179D01*
X0483432Y0165715D01*
X0483613Y0165278D01*
X0483876Y0164885D01*
X0484210Y0164551D01*
X0484603Y0164288D01*
X0485040Y0164107D01*
X0485504Y0164015D01*
X0489462Y0164015D01*
X0489462Y0172105D01*
X0491861Y0172105D01*
X0491861Y0164015D01*
X0495819Y0164015D01*
X0496283Y0164107D01*
X0496720Y0164288D01*
X0497113Y0164551D01*
X0497447Y0164885D01*
X0497710Y0165278D01*
X0497891Y0165715D01*
X0497983Y0166179D01*
X0497983Y0172105D01*
X0491862Y0172105D01*
X0491862Y0174505D01*
X0497983Y0174505D01*
X0497983Y0180431D01*
X0497891Y0180895D01*
X0497710Y0181331D01*
X0497447Y0181724D01*
X0497113Y0182059D01*
X0496720Y0182321D01*
X0496283Y0182502D01*
X0495819Y0182594D01*
X0491861Y0182594D01*
X0491861Y0174505D01*
X0489462Y0174505D01*
X0489462Y0182594D01*
X0488708Y0182594D01*
X0489991Y0183126D01*
X0492671Y0185806D01*
X0496816Y0185806D01*
X0499095Y0186749D01*
X0500839Y0188493D01*
X0501783Y0190772D01*
X0501783Y0207018D01*
X0500839Y0209297D01*
X0499362Y0210774D01*
X0499362Y0212831D01*
X0498037Y0216028D01*
X0491665Y0222400D01*
X0515713Y0222400D01*
X0515713Y0221318D01*
X0516657Y0219039D01*
X0516962Y0218735D01*
X0516962Y0213609D01*
X0515681Y0212329D01*
X0514737Y0210050D01*
X0514737Y0197347D01*
X0515681Y0195068D01*
X0517425Y0193324D01*
X0519704Y0192380D01*
X0531619Y0192380D01*
X0533898Y0193324D01*
X0535642Y0195068D01*
X0536586Y0197347D01*
X0536586Y0210050D01*
X0535642Y0212329D01*
X0534362Y0213609D01*
X0534362Y0216351D01*
X0540643Y0216351D01*
X0542922Y0217295D01*
X0543027Y0217400D01*
X0564658Y0217400D01*
X0553286Y0206028D01*
X0551962Y0202831D01*
X0551962Y0163264D01*
X0540123Y0163264D01*
X0537844Y0162320D01*
X0537419Y0161895D01*
X0536994Y0162320D01*
X0534716Y0163264D01*
X0522800Y0163264D01*
X0520522Y0162320D01*
X0519241Y0161040D01*
X0518842Y0161040D01*
X0518671Y0161452D01*
X0516013Y0164110D01*
X0512541Y0165548D01*
X0508782Y0165548D01*
X0505310Y0164110D01*
X0502652Y0161452D01*
X0501213Y0157979D01*
X0501213Y0154221D01*
X0502652Y0150748D01*
X0505310Y0148090D01*
X0507116Y0147342D01*
X0509494Y0144964D01*
X0512691Y0143640D01*
X0519241Y0143640D01*
X0519462Y0143419D01*
X0519462Y0136351D01*
X0513772Y0136351D01*
X0513513Y0136610D01*
X0510041Y0138048D01*
X0506282Y0138048D01*
X0502810Y0136610D01*
X0500411Y0134211D01*
X0500411Y0135051D02*
X0501251Y0135051D01*
X0500411Y0137450D02*
X0504838Y0137450D01*
X0500411Y0139848D02*
X0519462Y0139848D01*
X0519462Y0137450D02*
X0511485Y0137450D01*
X0510264Y0144645D02*
X0496611Y0144645D01*
X0496611Y0147073D02*
X0496611Y0150084D01*
X0496518Y0150548D01*
X0496338Y0150985D01*
X0496075Y0151378D01*
X0495741Y0151712D01*
X0495348Y0151975D01*
X0494911Y0152156D01*
X0494447Y0152248D01*
X0491036Y0152248D01*
X0491036Y0147073D01*
X0496611Y0147073D01*
X0496611Y0149442D02*
X0503958Y0149442D01*
X0502199Y0151841D02*
X0495548Y0151841D01*
X0491036Y0151841D02*
X0490287Y0151841D01*
X0490287Y0152248D02*
X0486876Y0152248D01*
X0486412Y0152156D01*
X0485975Y0151975D01*
X0485582Y0151712D01*
X0485248Y0151378D01*
X0484985Y0150985D01*
X0484805Y0150548D01*
X0484712Y0150084D01*
X0484712Y0147073D01*
X0490287Y0147073D01*
X0490287Y0152248D01*
X0490287Y0149442D02*
X0491036Y0149442D01*
X0491036Y0147044D02*
X0507414Y0147044D01*
X0499383Y0142247D02*
X0519462Y0142247D01*
X0501213Y0154239D02*
X0435621Y0154239D01*
X0435621Y0156638D02*
X0501213Y0156638D01*
X0501651Y0159036D02*
X0435225Y0159036D01*
X0434231Y0161435D02*
X0502645Y0161435D01*
X0505033Y0163833D02*
X0432012Y0163833D01*
X0431567Y0169763D02*
X0434480Y0169763D01*
X0434480Y0175824D01*
X0429403Y0175824D01*
X0429403Y0171927D01*
X0429495Y0171463D01*
X0429676Y0171026D01*
X0429939Y0170633D01*
X0430273Y0170299D01*
X0430666Y0170036D01*
X0431103Y0169855D01*
X0431567Y0169763D01*
X0429675Y0171029D02*
X0381030Y0171029D01*
X0381627Y0172062D02*
X0382560Y0175546D01*
X0382560Y0179154D01*
X0381627Y0182638D01*
X0379823Y0185762D01*
X0377272Y0188313D01*
X0374148Y0190116D01*
X0370664Y0191050D01*
X0367057Y0191050D01*
X0363572Y0190116D01*
X0360448Y0188313D01*
X0357898Y0185762D01*
X0356094Y0182638D01*
X0355160Y0179154D01*
X0355160Y0175546D01*
X0356094Y0172062D01*
X0357898Y0168938D01*
X0360448Y0166387D01*
X0363572Y0164584D01*
X0367057Y0163650D01*
X0370664Y0163650D01*
X0374148Y0164584D01*
X0377272Y0166387D01*
X0379823Y0168938D01*
X0381627Y0172062D01*
X0381993Y0173428D02*
X0429403Y0173428D01*
X0429403Y0176376D02*
X0434480Y0176376D01*
X0434480Y0182437D01*
X0431567Y0182437D01*
X0431103Y0182345D01*
X0430666Y0182164D01*
X0430273Y0181901D01*
X0429939Y0181567D01*
X0429676Y0181174D01*
X0429495Y0180737D01*
X0429403Y0180273D01*
X0429403Y0176376D01*
X0429403Y0178225D02*
X0382560Y0178225D01*
X0382560Y0175826D02*
X0434480Y0175826D01*
X0435032Y0175826D02*
X0436962Y0175826D01*
X0436962Y0175824D02*
X0435032Y0175824D01*
X0435032Y0176376D01*
X0436962Y0176376D01*
X0436962Y0175824D01*
X0435032Y0173428D02*
X0434480Y0173428D01*
X0434480Y0171029D02*
X0435032Y0171029D01*
X0438379Y0168630D02*
X0379516Y0168630D01*
X0377003Y0166232D02*
X0441732Y0166232D01*
X0451402Y0166232D02*
X0483340Y0166232D01*
X0483340Y0168630D02*
X0454755Y0168630D01*
X0455720Y0171029D02*
X0483340Y0171029D01*
X0483340Y0175826D02*
X0457691Y0175826D01*
X0458887Y0178225D02*
X0483340Y0178225D01*
X0483378Y0180623D02*
X0459362Y0180623D01*
X0459362Y0183022D02*
X0462675Y0183022D01*
X0461202Y0185420D02*
X0459362Y0185420D01*
X0459362Y0187819D02*
X0460912Y0187819D01*
X0460912Y0190217D02*
X0459362Y0190217D01*
X0459362Y0192616D02*
X0460912Y0192616D01*
X0460966Y0195014D02*
X0459362Y0195014D01*
X0441962Y0192616D02*
X0354362Y0192616D01*
X0354362Y0195014D02*
X0395138Y0195014D01*
X0392739Y0197413D02*
X0354362Y0197413D01*
X0354362Y0199811D02*
X0391695Y0199811D01*
X0391213Y0202210D02*
X0354362Y0202210D01*
X0354362Y0204608D02*
X0391213Y0204608D01*
X0391213Y0207007D02*
X0354362Y0207007D01*
X0354362Y0209405D02*
X0391213Y0209405D01*
X0391452Y0211804D02*
X0354362Y0211804D01*
X0354362Y0214202D02*
X0391962Y0214202D01*
X0391962Y0216601D02*
X0354362Y0216601D01*
X0354362Y0218999D02*
X0392446Y0218999D01*
X0393656Y0221398D02*
X0354362Y0221398D01*
X0354362Y0223796D02*
X0370662Y0223796D01*
X0368263Y0226195D02*
X0354362Y0226195D01*
X0354362Y0228593D02*
X0365865Y0228593D01*
X0363466Y0230992D02*
X0354362Y0230992D01*
X0354362Y0233390D02*
X0362367Y0233390D01*
X0361962Y0235789D02*
X0354362Y0235789D01*
X0354362Y0238187D02*
X0361962Y0238187D01*
X0361962Y0240586D02*
X0354362Y0240586D01*
X0354362Y0242984D02*
X0361962Y0242984D01*
X0361962Y0245383D02*
X0354362Y0245383D01*
X0354362Y0247781D02*
X0361962Y0247781D01*
X0361962Y0250180D02*
X0354362Y0250180D01*
X0354362Y0252578D02*
X0361962Y0252578D01*
X0361962Y0254977D02*
X0354362Y0254977D01*
X0354362Y0257375D02*
X0361962Y0257375D01*
X0361962Y0259774D02*
X0354362Y0259774D01*
X0354362Y0262172D02*
X0361962Y0262172D01*
X0361962Y0264571D02*
X0354362Y0264571D01*
X0354362Y0266969D02*
X0361962Y0266969D01*
X0361962Y0269368D02*
X0354362Y0269368D01*
X0354362Y0271766D02*
X0361962Y0271766D01*
X0361962Y0274165D02*
X0354362Y0274165D01*
X0354362Y0276563D02*
X0361962Y0276563D01*
X0361962Y0278962D02*
X0354362Y0278962D01*
X0354362Y0281361D02*
X0361962Y0281361D01*
X0361962Y0283759D02*
X0354362Y0283759D01*
X0354362Y0286158D02*
X0361962Y0286158D01*
X0361962Y0288556D02*
X0354362Y0288556D01*
X0354362Y0290955D02*
X0361962Y0290955D01*
X0361962Y0293353D02*
X0354362Y0293353D01*
X0354362Y0295752D02*
X0361962Y0295752D01*
X0361962Y0298150D02*
X0354362Y0298150D01*
X0354362Y0300549D02*
X0361962Y0300549D01*
X0361962Y0302947D02*
X0354362Y0302947D01*
X0354362Y0305346D02*
X0361962Y0305346D01*
X0361962Y0307744D02*
X0354362Y0307744D01*
X0354362Y0310143D02*
X0361962Y0310143D01*
X0361962Y0312541D02*
X0354362Y0312541D01*
X0353488Y0314940D02*
X0361962Y0314940D01*
X0361962Y0317338D02*
X0351727Y0317338D01*
X0349328Y0319737D02*
X0361962Y0319737D01*
X0361962Y0322135D02*
X0346930Y0322135D01*
X0344531Y0324534D02*
X0361962Y0324534D01*
X0361962Y0326932D02*
X0342133Y0326932D01*
X0338525Y0329331D02*
X0361962Y0329331D01*
X0361962Y0331729D02*
X0282336Y0331729D01*
X0279937Y0334128D02*
X0361962Y0334128D01*
X0361962Y0336526D02*
X0279362Y0336526D01*
X0279362Y0338925D02*
X0361962Y0338925D01*
X0361962Y0341323D02*
X0279362Y0341323D01*
X0279362Y0343722D02*
X0361962Y0343722D01*
X0361962Y0346120D02*
X0279362Y0346120D01*
X0279362Y0348519D02*
X0361962Y0348519D01*
X0361962Y0350917D02*
X0279362Y0350917D01*
X0279362Y0353316D02*
X0361962Y0353316D01*
X0361962Y0355714D02*
X0279362Y0355714D01*
X0279362Y0358113D02*
X0361672Y0358113D01*
X0361213Y0360511D02*
X0279362Y0360511D01*
X0279362Y0362910D02*
X0361213Y0362910D01*
X0362178Y0365308D02*
X0279662Y0365308D01*
X0279662Y0367707D02*
X0363907Y0367707D01*
X0367714Y0370105D02*
X0279662Y0370105D01*
X0279662Y0372504D02*
X0297729Y0372504D01*
X0292932Y0374902D02*
X0279662Y0374902D01*
X0279662Y0377301D02*
X0288135Y0377301D01*
X0284299Y0379699D02*
X0279662Y0379699D01*
X0279662Y0382098D02*
X0282509Y0382098D01*
X0281662Y0384497D02*
X0279662Y0384497D01*
X0279662Y0386895D02*
X0281662Y0386895D01*
X0281662Y0389294D02*
X0279662Y0389294D01*
X0279662Y0391692D02*
X0281662Y0391692D01*
X0312551Y0418900D02*
X0316043Y0417454D01*
X0318715Y0414781D01*
X0318818Y0414534D01*
X0320760Y0413730D01*
X0323291Y0411198D01*
X0324389Y0410100D01*
X0364895Y0410100D01*
X0364895Y0413514D01*
X0364930Y0413600D01*
X0364895Y0413686D01*
X0364895Y0417900D01*
X0364030Y0417900D01*
X0361017Y0419148D01*
X0358065Y0422100D01*
X0356999Y0422100D01*
X0356999Y0420471D01*
X0350938Y0420471D01*
X0350938Y0419918D01*
X0356999Y0419918D01*
X0356999Y0417005D01*
X0356906Y0416542D01*
X0356725Y0416105D01*
X0356463Y0415712D01*
X0356128Y0415378D01*
X0355735Y0415115D01*
X0355299Y0414934D01*
X0354835Y0414842D01*
X0350938Y0414842D01*
X0350938Y0419918D01*
X0350385Y0419918D01*
X0344325Y0419918D01*
X0344325Y0417005D01*
X0344417Y0416542D01*
X0344598Y0416105D01*
X0344860Y0415712D01*
X0345195Y0415378D01*
X0345588Y0415115D01*
X0346024Y0414934D01*
X0346488Y0414842D01*
X0350385Y0414842D01*
X0350385Y0419918D01*
X0350385Y0420471D01*
X0344325Y0420471D01*
X0344325Y0423336D01*
X0343212Y0423797D01*
X0341468Y0425541D01*
X0340525Y0427819D01*
X0340525Y0436192D01*
X0341468Y0438470D01*
X0341662Y0438663D01*
X0341662Y0447890D01*
X0343032Y0451198D01*
X0345563Y0453730D01*
X0350563Y0458730D01*
X0353871Y0460100D01*
X0357452Y0460100D01*
X0358176Y0459800D01*
X0430277Y0459800D01*
X0430786Y0461028D01*
X0433233Y0463475D01*
X0438233Y0468475D01*
X0438534Y0468600D01*
X0103837Y0468600D01*
X0104362Y0467333D01*
X0104362Y0422300D01*
X0136895Y0422300D01*
X0139174Y0421356D01*
X0140918Y0419612D01*
X0141862Y0417333D01*
X0141862Y0359867D01*
X0140918Y0357588D01*
X0139174Y0355844D01*
X0136895Y0354900D01*
X0077435Y0354900D01*
X0077435Y0354150D01*
X0072535Y0354150D01*
X0072535Y0354150D01*
X0077435Y0354150D01*
X0077435Y0352120D01*
X0077151Y0351837D01*
X0077178Y0351810D01*
X0078827Y0351594D01*
X0086632Y0351594D01*
X0087238Y0352199D01*
X0089516Y0353143D01*
X0098282Y0353143D01*
X0099498Y0352639D01*
X0100713Y0353143D01*
X0109479Y0353143D01*
X0111758Y0352199D01*
X0111863Y0352094D01*
X0205099Y0352094D01*
X0208296Y0350769D01*
X0220590Y0338475D01*
X0223037Y0336028D01*
X0224362Y0332831D01*
X0224362Y0231400D01*
X0224462Y0231400D01*
X0224462Y0332831D01*
X0225786Y0336028D01*
X0231962Y0342204D01*
X0231962Y0397235D01*
X0231110Y0397100D01*
X0230662Y0397100D01*
X0230662Y0406100D01*
X0230661Y0406100D01*
X0220662Y0406100D01*
X0226362Y0406100D01*
X0230661Y0406100D01*
X0230661Y0406100D01*
X0230661Y0397100D01*
X0230213Y0397100D01*
X0229327Y0397240D01*
X0228473Y0397518D01*
X0227674Y0397925D01*
X0226948Y0398452D01*
X0226314Y0399087D01*
X0225786Y0399813D01*
X0225662Y0400058D01*
X0225537Y0399813D01*
X0225009Y0399087D01*
X0224375Y0398452D01*
X0223649Y0397925D01*
X0222850Y0397518D01*
X0221996Y0397240D01*
X0221110Y0397100D01*
X0220662Y0397100D01*
X0220662Y0406100D01*
X0220662Y0406100D01*
X0220661Y0406100D01*
X0220661Y0397100D01*
X0220213Y0397100D01*
X0219327Y0397240D01*
X0218723Y0397437D01*
X0218715Y0397419D01*
X0216043Y0394746D01*
X0212551Y0393300D01*
X0208772Y0393300D01*
X0205662Y0394588D01*
X0202551Y0393300D01*
X0198772Y0393300D01*
X0195662Y0394588D01*
X0192551Y0393300D01*
X0188772Y0393300D01*
X0185662Y0394588D01*
X0182551Y0393300D01*
X0178772Y0393300D01*
X0175280Y0394746D01*
X0172608Y0397419D01*
X0171162Y0400910D01*
X0171162Y0411290D01*
X0172608Y0414781D01*
X0175280Y0417454D01*
X0178772Y0418900D01*
X0182551Y0418900D01*
X0185662Y0417612D01*
X0188772Y0418900D01*
X0192551Y0418900D01*
X0195662Y0417612D01*
X0198772Y0418900D01*
X0202551Y0418900D01*
X0205662Y0417612D01*
X0208772Y0418900D01*
X0212551Y0418900D01*
X0216043Y0417454D01*
X0218715Y0414781D01*
X0218723Y0414763D01*
X0219327Y0414960D01*
X0220213Y0415100D01*
X0220661Y0415100D01*
X0220661Y0406100D01*
X0220662Y0406100D01*
X0220662Y0415100D01*
X0221110Y0415100D01*
X0221996Y0414960D01*
X0222850Y0414682D01*
X0223649Y0414275D01*
X0224375Y0413748D01*
X0225009Y0413113D01*
X0225537Y0412387D01*
X0225662Y0412142D01*
X0225786Y0412387D01*
X0226314Y0413113D01*
X0226948Y0413748D01*
X0227674Y0414275D01*
X0228473Y0414682D01*
X0228722Y0414763D01*
X0226567Y0414763D01*
X0226103Y0414855D01*
X0225666Y0415036D01*
X0225273Y0415299D01*
X0224939Y0415633D01*
X0224676Y0416026D01*
X0224495Y0416463D01*
X0224403Y0416927D01*
X0224403Y0420824D01*
X0229480Y0420824D01*
X0229480Y0421376D01*
X0224403Y0421376D01*
X0224403Y0425273D01*
X0224495Y0425737D01*
X0224676Y0426174D01*
X0224939Y0426567D01*
X0225273Y0426901D01*
X0225666Y0427164D01*
X0226103Y0427345D01*
X0226567Y0427437D01*
X0229480Y0427437D01*
X0229480Y0421376D01*
X0230032Y0421376D01*
X0230032Y0427437D01*
X0232567Y0427437D01*
X0232567Y0436197D01*
X0233937Y0439505D01*
X0236942Y0442510D01*
X0236942Y0447058D01*
X0237886Y0449336D01*
X0239630Y0451080D01*
X0241909Y0452024D01*
X0254611Y0452024D01*
X0256890Y0451080D01*
X0257871Y0450100D01*
X0259375Y0450100D01*
X0260620Y0451345D01*
X0263891Y0452700D01*
X0267432Y0452700D01*
X0270662Y0451362D01*
X0273891Y0452700D01*
X0277432Y0452700D01*
X0280703Y0451345D01*
X0283207Y0448841D01*
X0284562Y0445570D01*
X0284562Y0436630D01*
X0283207Y0433359D01*
X0280703Y0430855D01*
X0278166Y0429804D01*
X0280760Y0428730D01*
X0285760Y0423730D01*
X0288291Y0421198D01*
X0289243Y0418900D01*
X0292551Y0418900D01*
X0295662Y0417612D01*
X0298772Y0418900D01*
X0302551Y0418900D01*
X0305662Y0417612D01*
X0308772Y0418900D01*
X0312551Y0418900D01*
X0314541Y0418076D02*
X0344325Y0418076D01*
X0344325Y0420474D02*
X0288591Y0420474D01*
X0286617Y0422873D02*
X0344325Y0422873D01*
X0341738Y0425271D02*
X0284218Y0425271D01*
X0281820Y0427670D02*
X0340587Y0427670D01*
X0340525Y0430068D02*
X0278804Y0430068D01*
X0282315Y0432467D02*
X0340525Y0432467D01*
X0340525Y0434865D02*
X0283831Y0434865D01*
X0284562Y0437264D02*
X0340969Y0437264D01*
X0341662Y0439662D02*
X0284562Y0439662D01*
X0284562Y0442061D02*
X0341662Y0442061D01*
X0341662Y0444459D02*
X0284562Y0444459D01*
X0284028Y0446858D02*
X0341662Y0446858D01*
X0342227Y0449256D02*
X0282792Y0449256D01*
X0279955Y0451655D02*
X0343488Y0451655D01*
X0345887Y0454053D02*
X0104362Y0454053D01*
X0104362Y0451655D02*
X0241016Y0451655D01*
X0237853Y0449256D02*
X0104362Y0449256D01*
X0104362Y0446858D02*
X0215775Y0446858D01*
X0215818Y0446961D02*
X0215637Y0446524D01*
X0215545Y0446061D01*
X0215545Y0442262D01*
X0221901Y0442262D01*
X0221901Y0439938D01*
X0215545Y0439938D01*
X0215545Y0436139D01*
X0215637Y0435676D01*
X0215818Y0435239D01*
X0216081Y0434846D01*
X0216415Y0434511D01*
X0216808Y0434249D01*
X0217245Y0434068D01*
X0217709Y0433976D01*
X0221901Y0433976D01*
X0221901Y0439938D01*
X0224225Y0439938D01*
X0224225Y0433976D01*
X0228418Y0433976D01*
X0228881Y0434068D01*
X0229318Y0434249D01*
X0229711Y0434511D01*
X0230045Y0434846D01*
X0230308Y0435239D01*
X0230489Y0435676D01*
X0230581Y0436139D01*
X0230581Y0439938D01*
X0224225Y0439938D01*
X0224225Y0442262D01*
X0221901Y0442262D01*
X0221901Y0448224D01*
X0217709Y0448224D01*
X0217245Y0448132D01*
X0216808Y0447951D01*
X0216415Y0447689D01*
X0216081Y0447354D01*
X0215818Y0446961D01*
X0215545Y0444459D02*
X0104362Y0444459D01*
X0104362Y0442061D02*
X0221901Y0442061D01*
X0223063Y0441100D02*
X0220662Y0441100D01*
X0221901Y0439662D02*
X0224225Y0439662D01*
X0224225Y0437264D02*
X0221901Y0437264D01*
X0221901Y0434865D02*
X0224225Y0434865D01*
X0230058Y0434865D02*
X0232567Y0434865D01*
X0232567Y0432467D02*
X0104362Y0432467D01*
X0104362Y0434865D02*
X0216068Y0434865D01*
X0215545Y0437264D02*
X0104362Y0437264D01*
X0104362Y0439662D02*
X0215545Y0439662D01*
X0221901Y0444459D02*
X0224225Y0444459D01*
X0224225Y0442262D02*
X0224225Y0448224D01*
X0228418Y0448224D01*
X0228881Y0448132D01*
X0229318Y0447951D01*
X0229711Y0447689D01*
X0230045Y0447354D01*
X0230308Y0446961D01*
X0230489Y0446524D01*
X0230581Y0446061D01*
X0230581Y0442262D01*
X0224225Y0442262D01*
X0224225Y0442061D02*
X0236493Y0442061D01*
X0236942Y0444459D02*
X0230581Y0444459D01*
X0230351Y0446858D02*
X0236942Y0446858D01*
X0234094Y0439662D02*
X0230581Y0439662D01*
X0230581Y0437264D02*
X0233009Y0437264D01*
X0232567Y0430068D02*
X0104362Y0430068D01*
X0104362Y0427670D02*
X0232567Y0427670D01*
X0230032Y0425271D02*
X0229480Y0425271D01*
X0229480Y0422873D02*
X0230032Y0422873D01*
X0224403Y0422873D02*
X0104362Y0422873D01*
X0104362Y0425271D02*
X0224403Y0425271D01*
X0224403Y0420474D02*
X0140055Y0420474D01*
X0141554Y0418076D02*
X0176782Y0418076D01*
X0173504Y0415677D02*
X0141862Y0415677D01*
X0141862Y0413279D02*
X0171985Y0413279D01*
X0171162Y0410880D02*
X0141862Y0410880D01*
X0141862Y0408482D02*
X0171162Y0408482D01*
X0171162Y0406083D02*
X0141862Y0406083D01*
X0141862Y0403685D02*
X0171162Y0403685D01*
X0171162Y0401286D02*
X0141862Y0401286D01*
X0141862Y0398888D02*
X0171999Y0398888D01*
X0173537Y0396489D02*
X0141862Y0396489D01*
X0141862Y0394091D02*
X0176863Y0394091D01*
X0184460Y0394091D02*
X0186863Y0394091D01*
X0194460Y0394091D02*
X0196863Y0394091D01*
X0204460Y0394091D02*
X0206863Y0394091D01*
X0214460Y0394091D02*
X0231962Y0394091D01*
X0231962Y0396489D02*
X0217786Y0396489D01*
X0220661Y0398888D02*
X0220662Y0398888D01*
X0220661Y0401286D02*
X0220662Y0401286D01*
X0220661Y0403685D02*
X0220662Y0403685D01*
X0220661Y0406083D02*
X0220662Y0406083D01*
X0220661Y0408482D02*
X0220662Y0408482D01*
X0220661Y0410880D02*
X0220662Y0410880D01*
X0220661Y0413279D02*
X0220662Y0413279D01*
X0217819Y0415677D02*
X0224910Y0415677D01*
X0224844Y0413279D02*
X0226479Y0413279D01*
X0224403Y0418076D02*
X0214541Y0418076D01*
X0206782Y0418076D02*
X0204541Y0418076D01*
X0196782Y0418076D02*
X0194541Y0418076D01*
X0186782Y0418076D02*
X0184541Y0418076D01*
X0221901Y0446858D02*
X0224225Y0446858D01*
X0255504Y0451655D02*
X0261368Y0451655D01*
X0269955Y0451655D02*
X0271368Y0451655D01*
X0294541Y0418076D02*
X0296782Y0418076D01*
X0304541Y0418076D02*
X0306782Y0418076D01*
X0317819Y0415677D02*
X0344895Y0415677D01*
X0350385Y0415677D02*
X0350938Y0415677D01*
X0350938Y0418076D02*
X0350385Y0418076D01*
X0356428Y0415677D02*
X0364895Y0415677D01*
X0364895Y0413279D02*
X0321211Y0413279D01*
X0323609Y0410880D02*
X0364895Y0410880D01*
X0363606Y0418076D02*
X0356999Y0418076D01*
X0356999Y0420474D02*
X0359691Y0420474D01*
X0365662Y0426100D02*
X0375425Y0426100D01*
X0390662Y0421100D02*
X0395898Y0421100D01*
X0424756Y0421100D01*
X0418162Y0420194D01*
X0418438Y0420100D02*
X0418438Y0420471D01*
X0424499Y0420471D01*
X0424499Y0422100D01*
X0426365Y0422100D01*
X0428681Y0421141D01*
X0432642Y0421141D01*
X0436303Y0422657D01*
X0439104Y0425459D01*
X0440621Y0429119D01*
X0440621Y0430176D01*
X0444414Y0430176D01*
X0446693Y0431119D01*
X0448437Y0432864D01*
X0449381Y0435142D01*
X0449381Y0447058D01*
X0448437Y0449336D01*
X0446862Y0450912D01*
X0446862Y0452400D01*
X0496459Y0452400D01*
X0495912Y0451081D01*
X0495912Y0442316D01*
X0496416Y0441100D01*
X0495912Y0439884D01*
X0495912Y0431119D01*
X0496662Y0429310D01*
X0496662Y0427890D01*
X0495912Y0426081D01*
X0495912Y0420698D01*
X0476288Y0420698D01*
X0475444Y0421048D01*
X0465879Y0421048D01*
X0463600Y0420104D01*
X0463596Y0420100D01*
X0418438Y0420100D01*
X0424499Y0420474D02*
X0464494Y0420474D01*
X0470662Y0411698D02*
X0470063Y0411100D01*
X0495912Y0422873D02*
X0436518Y0422873D01*
X0438917Y0425271D02*
X0495912Y0425271D01*
X0496570Y0427670D02*
X0440020Y0427670D01*
X0440621Y0430068D02*
X0496347Y0430068D01*
X0495912Y0432467D02*
X0448040Y0432467D01*
X0449266Y0434865D02*
X0456265Y0434865D01*
X0456278Y0434846D02*
X0456612Y0434511D01*
X0457005Y0434249D01*
X0457442Y0434068D01*
X0457905Y0433976D01*
X0462098Y0433976D01*
X0462098Y0439938D01*
X0464422Y0439938D01*
X0464422Y0442262D01*
X0470778Y0442262D01*
X0470778Y0446061D01*
X0470686Y0446524D01*
X0470505Y0446961D01*
X0470242Y0447354D01*
X0469908Y0447689D01*
X0469515Y0447951D01*
X0469078Y0448132D01*
X0468614Y0448224D01*
X0464422Y0448224D01*
X0464422Y0442262D01*
X0462098Y0442262D01*
X0462098Y0439938D01*
X0455742Y0439938D01*
X0455742Y0436139D01*
X0455834Y0435676D01*
X0456015Y0435239D01*
X0456278Y0434846D01*
X0455742Y0437264D02*
X0449381Y0437264D01*
X0449381Y0439662D02*
X0455742Y0439662D01*
X0455742Y0442262D02*
X0462098Y0442262D01*
X0462098Y0448224D01*
X0457905Y0448224D01*
X0457442Y0448132D01*
X0457005Y0447951D01*
X0456612Y0447689D01*
X0456278Y0447354D01*
X0456015Y0446961D01*
X0455834Y0446524D01*
X0455742Y0446061D01*
X0455742Y0442262D01*
X0455742Y0444459D02*
X0449381Y0444459D01*
X0449381Y0442061D02*
X0462098Y0442061D01*
X0464422Y0442061D02*
X0496018Y0442061D01*
X0495912Y0444459D02*
X0470778Y0444459D01*
X0470548Y0446858D02*
X0495912Y0446858D01*
X0495912Y0449256D02*
X0448470Y0449256D01*
X0449381Y0446858D02*
X0455972Y0446858D01*
X0462098Y0446858D02*
X0464422Y0446858D01*
X0464422Y0444459D02*
X0462098Y0444459D01*
X0462098Y0439662D02*
X0464422Y0439662D01*
X0464422Y0439938D02*
X0464422Y0433976D01*
X0468614Y0433976D01*
X0469078Y0434068D01*
X0469515Y0434249D01*
X0469908Y0434511D01*
X0470242Y0434846D01*
X0470505Y0435239D01*
X0470686Y0435676D01*
X0470778Y0436139D01*
X0470778Y0439938D01*
X0464422Y0439938D01*
X0464422Y0437264D02*
X0462098Y0437264D01*
X0462098Y0434865D02*
X0464422Y0434865D01*
X0470255Y0434865D02*
X0495912Y0434865D01*
X0495912Y0437264D02*
X0470778Y0437264D01*
X0470778Y0439662D02*
X0495912Y0439662D01*
X0496150Y0451655D02*
X0446862Y0451655D01*
X0433405Y0463647D02*
X0104362Y0463647D01*
X0104362Y0461249D02*
X0431007Y0461249D01*
X0435804Y0466046D02*
X0104362Y0466046D01*
X0103901Y0468444D02*
X0438202Y0468444D01*
X0424756Y0431100D02*
X0418162Y0432006D01*
X0415662Y0431100D02*
X0410662Y0426100D01*
X0395898Y0426100D01*
X0395898Y0416100D02*
X0410662Y0416100D01*
X0415662Y0411100D01*
X0376962Y0370105D02*
X0373609Y0370105D01*
X0351567Y0431100D02*
X0350662Y0432006D01*
X0348285Y0456452D02*
X0104362Y0456452D01*
X0104362Y0458850D02*
X0350854Y0458850D01*
X0241567Y0407006D02*
X0240662Y0406100D01*
X0230662Y0406083D02*
X0230661Y0406083D01*
X0230662Y0406100D02*
X0229756Y0407006D01*
X0230661Y0403685D02*
X0230662Y0403685D01*
X0230661Y0401286D02*
X0230662Y0401286D01*
X0230661Y0398888D02*
X0230662Y0398888D01*
X0226513Y0398888D02*
X0224810Y0398888D01*
X0231962Y0391692D02*
X0141862Y0391692D01*
X0141862Y0389294D02*
X0231962Y0389294D01*
X0231962Y0386895D02*
X0141862Y0386895D01*
X0141862Y0384497D02*
X0231962Y0384497D01*
X0231962Y0382098D02*
X0141862Y0382098D01*
X0141862Y0379699D02*
X0231962Y0379699D01*
X0231962Y0377301D02*
X0141862Y0377301D01*
X0141862Y0374902D02*
X0231962Y0374902D01*
X0231962Y0372504D02*
X0141862Y0372504D01*
X0141862Y0370105D02*
X0231962Y0370105D01*
X0231962Y0367707D02*
X0141862Y0367707D01*
X0141862Y0365308D02*
X0231962Y0365308D01*
X0231962Y0362910D02*
X0141862Y0362910D01*
X0141862Y0360511D02*
X0231962Y0360511D01*
X0231962Y0358113D02*
X0141135Y0358113D01*
X0138861Y0355714D02*
X0231962Y0355714D01*
X0231962Y0353316D02*
X0077435Y0353316D01*
X0141862Y0298150D02*
X0176308Y0298150D01*
X0176962Y0295752D02*
X0141862Y0295752D01*
X0141862Y0293353D02*
X0176962Y0293353D01*
X0176962Y0290955D02*
X0141862Y0290955D01*
X0141862Y0288556D02*
X0176962Y0288556D01*
X0176962Y0286158D02*
X0141862Y0286158D01*
X0141862Y0283759D02*
X0176962Y0283759D01*
X0176962Y0281361D02*
X0141862Y0281361D01*
X0141862Y0278962D02*
X0176962Y0278962D01*
X0176962Y0276563D02*
X0141862Y0276563D01*
X0141862Y0274165D02*
X0176962Y0274165D01*
X0176962Y0271766D02*
X0141862Y0271766D01*
X0141862Y0269368D02*
X0176962Y0269368D01*
X0176962Y0266969D02*
X0141862Y0266969D01*
X0141862Y0264571D02*
X0176962Y0264571D01*
X0176962Y0262172D02*
X0141862Y0262172D01*
X0141862Y0259774D02*
X0176962Y0259774D01*
X0176962Y0257375D02*
X0141862Y0257375D01*
X0141862Y0254977D02*
X0176962Y0254977D01*
X0176962Y0252578D02*
X0141862Y0252578D01*
X0141862Y0250180D02*
X0176962Y0250180D01*
X0176962Y0247781D02*
X0141862Y0247781D01*
X0141862Y0245383D02*
X0176962Y0245383D01*
X0176962Y0242984D02*
X0141862Y0242984D01*
X0141862Y0240586D02*
X0176962Y0240586D01*
X0176962Y0238187D02*
X0141862Y0238187D01*
X0141862Y0235789D02*
X0176962Y0235789D01*
X0176962Y0233390D02*
X0141862Y0233390D01*
X0141862Y0230992D02*
X0151786Y0230992D01*
X0147920Y0228593D02*
X0141862Y0228593D01*
X0141862Y0226195D02*
X0146158Y0226195D01*
X0145164Y0223796D02*
X0141862Y0223796D01*
X0141862Y0221398D02*
X0145162Y0221398D01*
X0145162Y0218999D02*
X0141862Y0218999D01*
X0141862Y0216601D02*
X0144566Y0216601D01*
X0142167Y0214202D02*
X0141586Y0214202D01*
X0138551Y0210586D02*
X0136895Y0209900D01*
X0060662Y0209900D01*
X0060662Y0129275D01*
X0061928Y0129800D01*
X0065135Y0129800D01*
X0065135Y0136753D01*
X0066459Y0138078D01*
X0066459Y0138078D01*
X0068906Y0140525D01*
X0068906Y0140525D01*
X0069218Y0140837D01*
X0068935Y0141120D01*
X0068935Y0143150D01*
X0073834Y0143150D01*
X0073834Y0143150D01*
X0068935Y0143150D01*
X0068935Y0145179D01*
X0071805Y0148050D01*
X0073835Y0148050D01*
X0073835Y0143150D01*
X0078735Y0143150D01*
X0078735Y0145179D01*
X0075864Y0148050D01*
X0073835Y0148050D01*
X0073835Y0143150D01*
X0073835Y0143150D01*
X0073835Y0143150D01*
X0078735Y0143150D01*
X0078735Y0141850D01*
X0081050Y0141850D01*
X0081050Y0143243D01*
X0081993Y0145521D01*
X0082970Y0146498D01*
X0082147Y0147321D01*
X0081384Y0148279D01*
X0080733Y0149315D01*
X0080201Y0150418D01*
X0079797Y0151574D01*
X0079525Y0152767D01*
X0079454Y0153396D01*
X0089087Y0153396D01*
X0089087Y0155796D01*
X0079454Y0155796D01*
X0079525Y0156425D01*
X0079797Y0157618D01*
X0080201Y0158774D01*
X0080733Y0159877D01*
X0081384Y0160914D01*
X0082147Y0161871D01*
X0083013Y0162736D01*
X0083970Y0163500D01*
X0085007Y0164151D01*
X0086110Y0164682D01*
X0087265Y0165087D01*
X0088459Y0165359D01*
X0089087Y0165430D01*
X0089087Y0155796D01*
X0091487Y0155796D01*
X0091487Y0162922D01*
X0090336Y0164074D01*
X0088400Y0167426D01*
X0088201Y0168171D01*
X0088031Y0167819D01*
X0087380Y0166783D01*
X0086617Y0165825D01*
X0085751Y0164960D01*
X0084794Y0164196D01*
X0083757Y0163545D01*
X0082654Y0163014D01*
X0081499Y0162609D01*
X0080305Y0162337D01*
X0079676Y0162266D01*
X0079676Y0171900D01*
X0077276Y0171900D01*
X0067643Y0171900D01*
X0067714Y0171271D01*
X0067986Y0170078D01*
X0068390Y0168922D01*
X0068922Y0167819D01*
X0069573Y0166783D01*
X0070336Y0165825D01*
X0071202Y0164960D01*
X0072159Y0164196D01*
X0073196Y0163545D01*
X0074299Y0163014D01*
X0075454Y0162609D01*
X0076648Y0162337D01*
X0077276Y0162266D01*
X0077276Y0171900D01*
X0077276Y0174300D01*
X0067643Y0174300D01*
X0067714Y0174929D01*
X0067986Y0176122D01*
X0068390Y0177278D01*
X0068922Y0178381D01*
X0069573Y0179417D01*
X0070336Y0180375D01*
X0071202Y0181240D01*
X0072159Y0182004D01*
X0073196Y0182655D01*
X0074299Y0183186D01*
X0075454Y0183590D01*
X0076648Y0183863D01*
X0077276Y0183934D01*
X0077276Y0174300D01*
X0079676Y0174300D01*
X0079676Y0183934D01*
X0080305Y0183863D01*
X0081499Y0183590D01*
X0082654Y0183186D01*
X0083757Y0182655D01*
X0084794Y0182004D01*
X0085751Y0181240D01*
X0086617Y0180375D01*
X0087380Y0179417D01*
X0088031Y0178381D01*
X0088201Y0178029D01*
X0088400Y0178774D01*
X0090336Y0182126D01*
X0093073Y0184863D01*
X0096425Y0186798D01*
X0100163Y0187800D01*
X0104034Y0187800D01*
X0107773Y0186798D01*
X0111125Y0184863D01*
X0113861Y0182126D01*
X0115797Y0178774D01*
X0116799Y0175035D01*
X0116799Y0171165D01*
X0115797Y0167426D01*
X0114362Y0164940D01*
X0114362Y0155548D01*
X0117541Y0155548D01*
X0120912Y0154152D01*
X0120912Y0156081D01*
X0121856Y0158360D01*
X0122462Y0158965D01*
X0122462Y0167131D01*
X0122862Y0168097D01*
X0122862Y0188503D01*
X0122462Y0189469D01*
X0122462Y0192731D01*
X0123710Y0195745D01*
X0138551Y0210586D01*
X0137370Y0209405D02*
X0060662Y0209405D01*
X0060662Y0207007D02*
X0134972Y0207007D01*
X0132573Y0204608D02*
X0060662Y0204608D01*
X0060662Y0202210D02*
X0130175Y0202210D01*
X0127776Y0199811D02*
X0060662Y0199811D01*
X0060662Y0197413D02*
X0125378Y0197413D01*
X0123407Y0195014D02*
X0060662Y0195014D01*
X0060662Y0192616D02*
X0122462Y0192616D01*
X0122462Y0190217D02*
X0060662Y0190217D01*
X0060662Y0187819D02*
X0122862Y0187819D01*
X0122862Y0185420D02*
X0110160Y0185420D01*
X0112966Y0183022D02*
X0122862Y0183022D01*
X0122862Y0180623D02*
X0114729Y0180623D01*
X0115944Y0178225D02*
X0122862Y0178225D01*
X0122862Y0175826D02*
X0116587Y0175826D01*
X0116799Y0173428D02*
X0122862Y0173428D01*
X0122862Y0171029D02*
X0116762Y0171029D01*
X0116119Y0168630D02*
X0122862Y0168630D01*
X0122462Y0166232D02*
X0115107Y0166232D01*
X0114362Y0163833D02*
X0122462Y0163833D01*
X0122462Y0161435D02*
X0114362Y0161435D01*
X0114362Y0159036D02*
X0122462Y0159036D01*
X0121143Y0156638D02*
X0114362Y0156638D01*
X0120700Y0154239D02*
X0120912Y0154239D01*
X0138862Y0159036D02*
X0150662Y0159036D01*
X0150662Y0161435D02*
X0138862Y0161435D01*
X0142836Y0163833D02*
X0150662Y0163833D01*
X0150662Y0166232D02*
X0142862Y0166232D01*
X0144962Y0166800D02*
X0139362Y0166800D01*
X0142862Y0168630D02*
X0150743Y0168630D01*
X0150762Y0171029D02*
X0142639Y0171029D01*
X0142862Y0173428D02*
X0150762Y0173428D01*
X0150762Y0175826D02*
X0142862Y0175826D01*
X0142862Y0178225D02*
X0150762Y0178225D01*
X0150762Y0180623D02*
X0142286Y0180623D01*
X0140408Y0183022D02*
X0150713Y0183022D01*
X0150713Y0185420D02*
X0138462Y0185420D01*
X0138977Y0187819D02*
X0150713Y0187819D01*
X0150713Y0190217D02*
X0141375Y0190217D01*
X0143774Y0192616D02*
X0151431Y0192616D01*
X0151863Y0195014D02*
X0146172Y0195014D01*
X0148571Y0197413D02*
X0151979Y0197413D01*
X0152973Y0199811D02*
X0150969Y0199811D01*
X0153368Y0202210D02*
X0155175Y0202210D01*
X0155766Y0204608D02*
X0157573Y0204608D01*
X0159464Y0207007D02*
X0159972Y0207007D01*
X0162202Y0209405D02*
X0167121Y0209405D01*
X0164662Y0211804D02*
X0164661Y0211804D01*
X0164661Y0214202D02*
X0164662Y0214202D01*
X0164661Y0216601D02*
X0164662Y0216601D01*
X0164661Y0218999D02*
X0164662Y0218999D01*
X0164661Y0221398D02*
X0164662Y0221398D01*
X0164661Y0223796D02*
X0164662Y0223796D01*
X0164661Y0226195D02*
X0164662Y0226195D01*
X0167920Y0228593D02*
X0161403Y0228593D01*
X0157537Y0230992D02*
X0171786Y0230992D01*
X0171260Y0186100D02*
X0170662Y0185502D01*
X0160063Y0186100D02*
X0158162Y0179198D01*
X0158162Y0163200D01*
X0163162Y0163200D02*
X0163162Y0168600D01*
X0170662Y0176100D01*
X0145662Y0166100D02*
X0144962Y0166800D01*
X0140180Y0156638D02*
X0151212Y0156638D01*
X0153054Y0154239D02*
X0140411Y0154239D01*
X0151862Y0147044D02*
X0157137Y0147044D01*
X0155113Y0144645D02*
X0151862Y0144645D01*
X0151862Y0142247D02*
X0154462Y0142247D01*
X0154462Y0139848D02*
X0151862Y0139848D01*
X0151862Y0137450D02*
X0154462Y0137450D01*
X0154462Y0135051D02*
X0151862Y0135051D01*
X0151862Y0132653D02*
X0156123Y0132653D01*
X0157839Y0130254D02*
X0151862Y0130254D01*
X0158162Y0128600D02*
X0158162Y0139000D01*
X0113798Y0120660D02*
X0104362Y0120660D01*
X0104362Y0118262D02*
X0111792Y0118262D01*
X0109359Y0115863D02*
X0104362Y0115863D01*
X0104362Y0113465D02*
X0108412Y0113465D01*
X0108412Y0111066D02*
X0104362Y0111066D01*
X0104362Y0108668D02*
X0108412Y0108668D01*
X0108412Y0106269D02*
X0104362Y0106269D01*
X0104362Y0103871D02*
X0108804Y0103871D01*
X0110421Y0101472D02*
X0104362Y0101472D01*
X0104362Y0099074D02*
X0112212Y0099074D01*
X0112212Y0096675D02*
X0104362Y0096675D01*
X0104362Y0094277D02*
X0112280Y0094277D01*
X0117787Y0094277D02*
X0118536Y0094277D01*
X0118536Y0096675D02*
X0117787Y0096675D01*
X0118162Y0098002D02*
X0119578Y0096585D01*
X0132064Y0096585D01*
X0125662Y0096585D01*
X0125662Y0091100D01*
X0126929Y0094277D02*
X0124043Y0094277D01*
X0124111Y0096675D02*
X0126197Y0096675D01*
X0132064Y0094277D02*
X0132064Y0094277D01*
X0149106Y0091878D02*
X0104362Y0091878D01*
X0104362Y0089480D02*
X0150255Y0089480D01*
X0155411Y0089480D02*
X0155411Y0089480D01*
X0171719Y0089480D02*
X0177103Y0089480D01*
X0177103Y0091878D02*
X0172926Y0091878D01*
X0177162Y0087081D02*
X0104362Y0087081D01*
X0104362Y0084683D02*
X0178309Y0084683D01*
X0182005Y0082284D02*
X0104362Y0082284D01*
X0104362Y0079886D02*
X0195673Y0079886D01*
X0193202Y0082284D02*
X0190900Y0082284D01*
X0229183Y0118262D02*
X0229742Y0118262D01*
X0234883Y0118262D02*
X0235042Y0118262D01*
X0235042Y0115863D02*
X0234883Y0115863D01*
X0234883Y0113465D02*
X0235042Y0113465D01*
X0235042Y0111066D02*
X0234883Y0111066D01*
X0213977Y0142247D02*
X0326962Y0142247D01*
X0326962Y0144645D02*
X0217568Y0144645D01*
X0219208Y0147044D02*
X0326962Y0147044D01*
X0326962Y0149442D02*
X0220110Y0149442D01*
X0220110Y0151841D02*
X0326962Y0151841D01*
X0326962Y0154239D02*
X0219588Y0154239D01*
X0218485Y0156638D02*
X0326962Y0156638D01*
X0326962Y0159036D02*
X0216087Y0159036D01*
X0205236Y0159036D02*
X0204662Y0159036D01*
X0204662Y0161435D02*
X0326962Y0161435D01*
X0326962Y0163833D02*
X0237451Y0163833D01*
X0232474Y0163833D02*
X0204662Y0163833D01*
X0204662Y0166232D02*
X0226820Y0166232D01*
X0224307Y0168630D02*
X0204662Y0168630D01*
X0204662Y0171029D02*
X0222793Y0171029D01*
X0221830Y0173428D02*
X0204662Y0173428D01*
X0204662Y0175826D02*
X0221263Y0175826D01*
X0243106Y0166232D02*
X0326962Y0166232D01*
X0326962Y0168630D02*
X0245618Y0168630D01*
X0247133Y0171029D02*
X0326962Y0171029D01*
X0326962Y0173428D02*
X0248095Y0173428D01*
X0248663Y0175826D02*
X0326962Y0175826D01*
X0326962Y0178225D02*
X0248663Y0178225D01*
X0248269Y0180623D02*
X0326962Y0180623D01*
X0326962Y0183022D02*
X0275847Y0183022D01*
X0278343Y0185420D02*
X0326962Y0185420D01*
X0326962Y0187819D02*
X0279529Y0187819D01*
X0280110Y0190217D02*
X0326962Y0190217D01*
X0326962Y0192616D02*
X0280110Y0192616D01*
X0279267Y0195014D02*
X0326962Y0195014D01*
X0326962Y0197413D02*
X0277710Y0197413D01*
X0274320Y0199811D02*
X0326962Y0199811D01*
X0326962Y0202210D02*
X0271856Y0202210D01*
X0267855Y0204608D02*
X0326962Y0204608D01*
X0326962Y0207007D02*
X0315464Y0207007D01*
X0318202Y0209405D02*
X0326962Y0209405D01*
X0326962Y0211804D02*
X0319496Y0211804D01*
X0320162Y0214202D02*
X0326962Y0214202D01*
X0326962Y0216601D02*
X0320162Y0216601D01*
X0320162Y0218999D02*
X0326962Y0218999D01*
X0326962Y0221398D02*
X0320162Y0221398D01*
X0320159Y0223796D02*
X0326962Y0223796D01*
X0326962Y0226195D02*
X0319165Y0226195D01*
X0317403Y0228593D02*
X0326962Y0228593D01*
X0326962Y0230992D02*
X0313537Y0230992D01*
X0307786Y0230992D02*
X0303537Y0230992D01*
X0297786Y0230992D02*
X0293537Y0230992D01*
X0287786Y0230992D02*
X0283537Y0230992D01*
X0277786Y0230992D02*
X0273537Y0230992D01*
X0267786Y0230992D02*
X0263537Y0230992D01*
X0257786Y0230992D02*
X0253537Y0230992D01*
X0247786Y0230992D02*
X0243537Y0230992D01*
X0241862Y0233390D02*
X0326962Y0233390D01*
X0326962Y0235789D02*
X0241862Y0235789D01*
X0241862Y0238187D02*
X0326962Y0238187D01*
X0326962Y0240586D02*
X0241862Y0240586D01*
X0241862Y0242984D02*
X0326962Y0242984D01*
X0326962Y0245383D02*
X0241862Y0245383D01*
X0241862Y0247781D02*
X0326962Y0247781D01*
X0326962Y0250180D02*
X0241862Y0250180D01*
X0241862Y0252578D02*
X0326962Y0252578D01*
X0326962Y0254977D02*
X0241862Y0254977D01*
X0241862Y0257375D02*
X0326962Y0257375D01*
X0326962Y0259774D02*
X0241862Y0259774D01*
X0241862Y0262172D02*
X0295821Y0262172D01*
X0294584Y0264571D02*
X0241862Y0264571D01*
X0241862Y0266969D02*
X0294462Y0266969D01*
X0294462Y0269368D02*
X0241862Y0269368D01*
X0241862Y0271766D02*
X0294462Y0271766D01*
X0294462Y0274165D02*
X0241862Y0274165D01*
X0241862Y0276563D02*
X0294462Y0276563D01*
X0294462Y0278962D02*
X0241862Y0278962D01*
X0241862Y0281361D02*
X0294462Y0281361D01*
X0294462Y0283759D02*
X0241862Y0283759D01*
X0241862Y0286158D02*
X0294462Y0286158D01*
X0294462Y0288556D02*
X0241862Y0288556D01*
X0241862Y0290955D02*
X0294462Y0290955D01*
X0294884Y0293353D02*
X0241862Y0293353D01*
X0241862Y0295752D02*
X0296545Y0295752D01*
X0323909Y0300549D02*
X0241862Y0300549D01*
X0241862Y0302947D02*
X0262610Y0302947D01*
X0259112Y0305346D02*
X0241862Y0305346D01*
X0241862Y0307744D02*
X0256714Y0307744D01*
X0254315Y0310143D02*
X0241862Y0310143D01*
X0241862Y0312541D02*
X0251917Y0312541D01*
X0249518Y0314940D02*
X0241862Y0314940D01*
X0241862Y0317338D02*
X0247120Y0317338D01*
X0244721Y0319737D02*
X0241862Y0319737D01*
X0241862Y0322135D02*
X0242887Y0322135D01*
X0241962Y0324534D02*
X0241862Y0324534D01*
X0241862Y0326932D02*
X0241962Y0326932D01*
X0224462Y0326932D02*
X0224362Y0326932D01*
X0224362Y0324534D02*
X0224462Y0324534D01*
X0224462Y0322135D02*
X0224362Y0322135D01*
X0224362Y0319737D02*
X0224462Y0319737D01*
X0224462Y0317338D02*
X0224362Y0317338D01*
X0224362Y0314940D02*
X0224462Y0314940D01*
X0224462Y0312541D02*
X0224362Y0312541D01*
X0224362Y0310143D02*
X0224462Y0310143D01*
X0224462Y0307744D02*
X0224362Y0307744D01*
X0224362Y0305346D02*
X0224462Y0305346D01*
X0224462Y0302947D02*
X0224362Y0302947D01*
X0224362Y0300549D02*
X0224462Y0300549D01*
X0224462Y0298150D02*
X0224362Y0298150D01*
X0224362Y0295752D02*
X0224462Y0295752D01*
X0224462Y0293353D02*
X0224362Y0293353D01*
X0224362Y0290955D02*
X0224462Y0290955D01*
X0224462Y0288556D02*
X0224362Y0288556D01*
X0224362Y0286158D02*
X0224462Y0286158D01*
X0224462Y0283759D02*
X0224362Y0283759D01*
X0224362Y0281361D02*
X0224462Y0281361D01*
X0224462Y0278962D02*
X0224362Y0278962D01*
X0224362Y0276563D02*
X0224462Y0276563D01*
X0224462Y0274165D02*
X0224362Y0274165D01*
X0224362Y0271766D02*
X0224462Y0271766D01*
X0224462Y0269368D02*
X0224362Y0269368D01*
X0224362Y0266969D02*
X0224462Y0266969D01*
X0224462Y0264571D02*
X0224362Y0264571D01*
X0224362Y0262172D02*
X0224462Y0262172D01*
X0224462Y0259774D02*
X0224362Y0259774D01*
X0224362Y0257375D02*
X0224462Y0257375D01*
X0224462Y0254977D02*
X0224362Y0254977D01*
X0224362Y0252578D02*
X0224462Y0252578D01*
X0224462Y0250180D02*
X0224362Y0250180D01*
X0224362Y0247781D02*
X0224462Y0247781D01*
X0224462Y0245383D02*
X0224362Y0245383D01*
X0224362Y0242984D02*
X0224462Y0242984D01*
X0224462Y0240586D02*
X0224362Y0240586D01*
X0224362Y0238187D02*
X0224462Y0238187D01*
X0224462Y0235789D02*
X0224362Y0235789D01*
X0224362Y0233390D02*
X0224462Y0233390D01*
X0245464Y0207007D02*
X0245859Y0207007D01*
X0255464Y0207007D02*
X0255859Y0207007D01*
X0265464Y0207007D02*
X0265859Y0207007D01*
X0275464Y0207007D02*
X0275859Y0207007D01*
X0285464Y0207007D02*
X0285859Y0207007D01*
X0295464Y0207007D02*
X0295859Y0207007D01*
X0305464Y0207007D02*
X0305859Y0207007D01*
X0265476Y0183022D02*
X0247508Y0183022D01*
X0246123Y0185420D02*
X0262980Y0185420D01*
X0344362Y0132653D02*
X0346381Y0132653D01*
X0344362Y0130254D02*
X0348779Y0130254D01*
X0348630Y0130403D02*
X0348630Y0130403D01*
X0351200Y0127856D02*
X0344362Y0127856D01*
X0344362Y0125457D02*
X0481962Y0125457D01*
X0481962Y0127856D02*
X0468483Y0127856D01*
X0470053Y0130254D02*
X0481270Y0130254D01*
X0480912Y0132653D02*
X0470411Y0132653D01*
X0470411Y0135051D02*
X0480912Y0135051D01*
X0480912Y0137450D02*
X0470411Y0137450D01*
X0470411Y0139848D02*
X0480912Y0139848D01*
X0481940Y0142247D02*
X0469383Y0142247D01*
X0466611Y0144645D02*
X0484712Y0144645D01*
X0484712Y0149442D02*
X0466611Y0149442D01*
X0466611Y0150084D02*
X0466518Y0150548D01*
X0466338Y0150985D01*
X0466075Y0151378D01*
X0465741Y0151712D01*
X0465348Y0151975D01*
X0464911Y0152156D01*
X0464447Y0152248D01*
X0461036Y0152248D01*
X0461036Y0147073D01*
X0466611Y0147073D01*
X0466611Y0150084D01*
X0465548Y0151841D02*
X0485775Y0151841D01*
X0490287Y0147044D02*
X0461036Y0147044D01*
X0460287Y0147044D02*
X0429822Y0147044D01*
X0433088Y0149442D02*
X0454712Y0149442D01*
X0454712Y0150084D02*
X0454712Y0147073D01*
X0460287Y0147073D01*
X0460287Y0152248D01*
X0456876Y0152248D01*
X0456412Y0152156D01*
X0455975Y0151975D01*
X0455582Y0151712D01*
X0455248Y0151378D01*
X0454985Y0150985D01*
X0454805Y0150548D01*
X0454712Y0150084D01*
X0455775Y0151841D02*
X0434677Y0151841D01*
X0421501Y0147044D02*
X0421039Y0147044D01*
X0420411Y0144645D02*
X0454712Y0144645D01*
X0460287Y0149442D02*
X0461036Y0149442D01*
X0461036Y0151841D02*
X0460287Y0151841D01*
X0455720Y0173428D02*
X0489461Y0173428D01*
X0489462Y0175826D02*
X0491861Y0175826D01*
X0491862Y0173428D02*
X0518537Y0173428D01*
X0518537Y0173147D02*
X0518629Y0172683D01*
X0518810Y0172247D01*
X0519073Y0171854D01*
X0519407Y0171519D01*
X0519800Y0171257D01*
X0520237Y0171076D01*
X0520701Y0170983D01*
X0524499Y0170983D01*
X0524499Y0177339D01*
X0526824Y0177339D01*
X0526824Y0179664D01*
X0532786Y0179664D01*
X0532786Y0183856D01*
X0532694Y0184320D01*
X0532513Y0184757D01*
X0532250Y0185150D01*
X0531916Y0185484D01*
X0531523Y0185747D01*
X0531086Y0185927D01*
X0530622Y0186020D01*
X0526824Y0186020D01*
X0526824Y0179664D01*
X0524499Y0179664D01*
X0524499Y0186020D01*
X0520701Y0186020D01*
X0520237Y0185927D01*
X0519800Y0185747D01*
X0519407Y0185484D01*
X0519073Y0185150D01*
X0518810Y0184757D01*
X0518629Y0184320D01*
X0518537Y0183856D01*
X0518537Y0179664D01*
X0524499Y0179664D01*
X0524499Y0177339D01*
X0518537Y0177339D01*
X0518537Y0173147D01*
X0518537Y0175826D02*
X0497983Y0175826D01*
X0497983Y0178225D02*
X0524499Y0178225D01*
X0526824Y0178225D02*
X0551962Y0178225D01*
X0551962Y0180623D02*
X0532786Y0180623D01*
X0532786Y0183022D02*
X0551962Y0183022D01*
X0551962Y0185420D02*
X0531980Y0185420D01*
X0526824Y0185420D02*
X0524499Y0185420D01*
X0524499Y0183022D02*
X0526824Y0183022D01*
X0526824Y0180623D02*
X0524499Y0180623D01*
X0526824Y0177339D02*
X0532786Y0177339D01*
X0532786Y0173147D01*
X0532694Y0172683D01*
X0532513Y0172247D01*
X0532250Y0171854D01*
X0531916Y0171519D01*
X0531523Y0171257D01*
X0531086Y0171076D01*
X0530622Y0170983D01*
X0526824Y0170983D01*
X0526824Y0177339D01*
X0526824Y0175826D02*
X0524499Y0175826D01*
X0524499Y0173428D02*
X0526824Y0173428D01*
X0526824Y0171029D02*
X0524499Y0171029D01*
X0520472Y0171029D02*
X0497983Y0171029D01*
X0497983Y0168630D02*
X0551962Y0168630D01*
X0551962Y0166232D02*
X0497983Y0166232D01*
X0491861Y0166232D02*
X0489462Y0166232D01*
X0489462Y0168630D02*
X0491861Y0168630D01*
X0491861Y0171029D02*
X0489462Y0171029D01*
X0489462Y0178225D02*
X0491861Y0178225D01*
X0491861Y0180623D02*
X0489462Y0180623D01*
X0489739Y0183022D02*
X0518537Y0183022D01*
X0518537Y0180623D02*
X0497945Y0180623D01*
X0492285Y0185420D02*
X0519343Y0185420D01*
X0519136Y0192616D02*
X0501783Y0192616D01*
X0501783Y0195014D02*
X0515735Y0195014D01*
X0514737Y0197413D02*
X0501783Y0197413D01*
X0501783Y0199811D02*
X0514737Y0199811D01*
X0514737Y0202210D02*
X0501783Y0202210D01*
X0501783Y0204608D02*
X0514737Y0204608D01*
X0514737Y0207007D02*
X0501783Y0207007D01*
X0500731Y0209405D02*
X0514737Y0209405D01*
X0515464Y0211804D02*
X0499362Y0211804D01*
X0498793Y0214202D02*
X0516962Y0214202D01*
X0516962Y0216601D02*
X0497464Y0216601D01*
X0495066Y0218999D02*
X0516697Y0218999D01*
X0515713Y0221398D02*
X0492667Y0221398D01*
X0501553Y0190217D02*
X0551962Y0190217D01*
X0551962Y0187819D02*
X0500164Y0187819D01*
X0516290Y0163833D02*
X0551962Y0163833D01*
X0551962Y0171029D02*
X0530851Y0171029D01*
X0532786Y0173428D02*
X0551962Y0173428D01*
X0551962Y0175826D02*
X0532786Y0175826D01*
X0532187Y0192616D02*
X0551962Y0192616D01*
X0551962Y0195014D02*
X0535588Y0195014D01*
X0536586Y0197413D02*
X0551962Y0197413D01*
X0551962Y0199811D02*
X0536586Y0199811D01*
X0536586Y0202210D02*
X0551962Y0202210D01*
X0552698Y0204608D02*
X0536586Y0204608D01*
X0536586Y0207007D02*
X0554265Y0207007D01*
X0556663Y0209405D02*
X0536586Y0209405D01*
X0535859Y0211804D02*
X0559062Y0211804D01*
X0561460Y0214202D02*
X0534362Y0214202D01*
X0541246Y0216601D02*
X0563859Y0216601D01*
X0601665Y0209800D02*
X0605590Y0213724D01*
X0608037Y0216172D01*
X0609362Y0219369D01*
X0609362Y0270336D01*
X0609624Y0270598D01*
X0611098Y0273152D01*
X0611862Y0276000D01*
X0611862Y0278950D01*
X0611098Y0281798D01*
X0609624Y0284352D01*
X0607538Y0286437D01*
X0604985Y0287912D01*
X0602136Y0288675D01*
X0599362Y0288675D01*
X0599362Y0292400D01*
X0610641Y0292400D01*
X0613681Y0291141D01*
X0613703Y0291141D01*
X0636437Y0272954D01*
X0639876Y0271957D01*
X0641411Y0272128D01*
X0642439Y0271100D01*
X0641312Y0269973D01*
X0641312Y0262227D01*
X0642439Y0261100D01*
X0641312Y0259973D01*
X0641312Y0252227D01*
X0642439Y0251100D01*
X0641312Y0249973D01*
X0641312Y0242227D01*
X0642439Y0241100D01*
X0641312Y0239973D01*
X0641312Y0232227D01*
X0642439Y0231100D01*
X0641312Y0229973D01*
X0641312Y0222227D01*
X0642439Y0221100D01*
X0641312Y0219973D01*
X0641312Y0212227D01*
X0642439Y0211100D01*
X0641312Y0209973D01*
X0641312Y0202227D01*
X0642439Y0201100D01*
X0641312Y0199973D01*
X0641312Y0192227D01*
X0642439Y0191100D01*
X0641312Y0189973D01*
X0641312Y0182227D01*
X0642439Y0181100D01*
X0641312Y0179973D01*
X0641312Y0172227D01*
X0642439Y0171100D01*
X0641312Y0169973D01*
X0641312Y0162227D01*
X0642439Y0161100D01*
X0641312Y0159973D01*
X0641312Y0152227D01*
X0642439Y0151100D01*
X0641312Y0149973D01*
X0641312Y0148100D01*
X0631389Y0148100D01*
X0630760Y0148730D01*
X0627452Y0150100D01*
X0626862Y0150100D01*
X0626862Y0151141D01*
X0627642Y0151141D01*
X0631303Y0152657D01*
X0634104Y0155459D01*
X0635621Y0159119D01*
X0635621Y0163081D01*
X0634104Y0166741D01*
X0631303Y0169543D01*
X0627642Y0171059D01*
X0626862Y0171059D01*
X0626862Y0197183D01*
X0631619Y0197183D01*
X0633898Y0198127D01*
X0635642Y0199871D01*
X0636586Y0202150D01*
X0636586Y0214853D01*
X0635642Y0217132D01*
X0633898Y0218876D01*
X0631619Y0219820D01*
X0619704Y0219820D01*
X0617425Y0218876D01*
X0615681Y0217132D01*
X0614737Y0214853D01*
X0614737Y0209881D01*
X0614656Y0209800D01*
X0601665Y0209800D01*
X0603669Y0211804D02*
X0614737Y0211804D01*
X0614737Y0214202D02*
X0606067Y0214202D01*
X0608215Y0216601D02*
X0615461Y0216601D01*
X0617723Y0218999D02*
X0609208Y0218999D01*
X0609362Y0221398D02*
X0642141Y0221398D01*
X0641312Y0223796D02*
X0609362Y0223796D01*
X0609362Y0226195D02*
X0620628Y0226195D01*
X0620701Y0226180D02*
X0624499Y0226180D01*
X0624499Y0232536D01*
X0618537Y0232536D01*
X0618537Y0228344D01*
X0618629Y0227880D01*
X0618810Y0227443D01*
X0619073Y0227050D01*
X0619407Y0226716D01*
X0619800Y0226453D01*
X0620237Y0226273D01*
X0620701Y0226180D01*
X0618537Y0228593D02*
X0609362Y0228593D01*
X0609362Y0230992D02*
X0618537Y0230992D01*
X0618537Y0234861D02*
X0624499Y0234861D01*
X0624499Y0241217D01*
X0620701Y0241217D01*
X0620237Y0241124D01*
X0619800Y0240943D01*
X0619407Y0240681D01*
X0619073Y0240346D01*
X0618810Y0239953D01*
X0618629Y0239517D01*
X0618537Y0239053D01*
X0618537Y0234861D01*
X0618537Y0235789D02*
X0609362Y0235789D01*
X0609362Y0238187D02*
X0618537Y0238187D01*
X0619312Y0240586D02*
X0609362Y0240586D01*
X0609362Y0242984D02*
X0641312Y0242984D01*
X0641312Y0245383D02*
X0609362Y0245383D01*
X0609362Y0247781D02*
X0641312Y0247781D01*
X0641519Y0250180D02*
X0609362Y0250180D01*
X0609362Y0252578D02*
X0641312Y0252578D01*
X0641312Y0254977D02*
X0609362Y0254977D01*
X0609362Y0257375D02*
X0641312Y0257375D01*
X0641312Y0259774D02*
X0609362Y0259774D01*
X0609362Y0262172D02*
X0641366Y0262172D01*
X0641312Y0264571D02*
X0609362Y0264571D01*
X0609362Y0266969D02*
X0641312Y0266969D01*
X0641312Y0269368D02*
X0609362Y0269368D01*
X0610298Y0271766D02*
X0641772Y0271766D01*
X0634923Y0274165D02*
X0611370Y0274165D01*
X0611862Y0276563D02*
X0631925Y0276563D01*
X0628927Y0278962D02*
X0611858Y0278962D01*
X0611215Y0281361D02*
X0625929Y0281361D01*
X0622931Y0283759D02*
X0609966Y0283759D01*
X0607818Y0286158D02*
X0619933Y0286158D01*
X0616934Y0288556D02*
X0602580Y0288556D01*
X0599362Y0290955D02*
X0613936Y0290955D01*
X0627760Y0302947D02*
X0641312Y0302947D01*
X0641312Y0302227D02*
X0642439Y0301100D01*
X0641312Y0299973D01*
X0641312Y0292227D01*
X0641919Y0291620D01*
X0624643Y0305440D01*
X0624104Y0306741D01*
X0621303Y0309543D01*
X0617642Y0311059D01*
X0613681Y0311059D01*
X0610641Y0309800D01*
X0593931Y0309800D01*
X0590733Y0308475D01*
X0589362Y0307104D01*
X0589362Y0346141D01*
X0592642Y0346141D01*
X0595682Y0347400D01*
X0608296Y0347400D01*
X0608401Y0347295D01*
X0610680Y0346351D01*
X0619446Y0346351D01*
X0621725Y0347295D01*
X0623469Y0349039D01*
X0623929Y0350151D01*
X0625885Y0350151D01*
X0625885Y0355725D01*
X0626635Y0355725D01*
X0626635Y0356475D01*
X0631810Y0356475D01*
X0631810Y0359886D01*
X0631717Y0360349D01*
X0631536Y0360786D01*
X0631274Y0361179D01*
X0630939Y0361513D01*
X0630546Y0361776D01*
X0630110Y0361957D01*
X0629646Y0362049D01*
X0626635Y0362049D01*
X0626635Y0356475D01*
X0625885Y0356475D01*
X0625885Y0362049D01*
X0623929Y0362049D01*
X0623469Y0363161D01*
X0621725Y0364905D01*
X0619446Y0365849D01*
X0610680Y0365849D01*
X0608401Y0364905D01*
X0608296Y0364800D01*
X0595682Y0364800D01*
X0592642Y0366059D01*
X0589362Y0366059D01*
X0589362Y0372100D01*
X0603871Y0372100D01*
X0605680Y0371351D01*
X0614446Y0371351D01*
X0616725Y0372295D01*
X0618469Y0374039D01*
X0618929Y0375151D01*
X0620885Y0375151D01*
X0620885Y0379900D01*
X0621635Y0379900D01*
X0621635Y0375151D01*
X0624646Y0375151D01*
X0625110Y0375243D01*
X0625546Y0375424D01*
X0625939Y0375687D01*
X0626274Y0376021D01*
X0626536Y0376414D01*
X0626717Y0376851D01*
X0626810Y0377314D01*
X0626810Y0379900D01*
X0626895Y0379900D01*
X0629174Y0380844D01*
X0630918Y0382588D01*
X0631862Y0384867D01*
X0631862Y0392100D01*
X0641439Y0392100D01*
X0642439Y0391100D01*
X0641312Y0389973D01*
X0641312Y0382227D01*
X0642439Y0381100D01*
X0641312Y0379973D01*
X0641312Y0372227D01*
X0642439Y0371100D01*
X0641312Y0369973D01*
X0641312Y0362227D01*
X0642439Y0361100D01*
X0641312Y0359973D01*
X0641312Y0352227D01*
X0642439Y0351100D01*
X0641312Y0349973D01*
X0641312Y0342227D01*
X0642439Y0341100D01*
X0641312Y0339973D01*
X0641312Y0332227D01*
X0642439Y0331100D01*
X0641312Y0329973D01*
X0641312Y0322227D01*
X0642439Y0321100D01*
X0641312Y0319973D01*
X0641312Y0312227D01*
X0642439Y0311100D01*
X0641312Y0309973D01*
X0641312Y0302227D01*
X0641887Y0300549D02*
X0630758Y0300549D01*
X0633756Y0298150D02*
X0641312Y0298150D01*
X0641312Y0295752D02*
X0636754Y0295752D01*
X0639752Y0293353D02*
X0641312Y0293353D01*
X0641312Y0305346D02*
X0624761Y0305346D01*
X0623102Y0307744D02*
X0641312Y0307744D01*
X0641481Y0310143D02*
X0619855Y0310143D01*
X0611468Y0310143D02*
X0589362Y0310143D01*
X0589362Y0312541D02*
X0641312Y0312541D01*
X0641312Y0314940D02*
X0606454Y0314940D01*
X0607663Y0315638D02*
X0609749Y0317723D01*
X0611223Y0320277D01*
X0611987Y0323125D01*
X0611987Y0326075D01*
X0611223Y0328923D01*
X0609749Y0331477D01*
X0607663Y0333562D01*
X0605110Y0335037D01*
X0602261Y0335800D01*
X0599312Y0335800D01*
X0596463Y0335037D01*
X0593910Y0333562D01*
X0591824Y0331477D01*
X0590350Y0328923D01*
X0589587Y0326075D01*
X0589587Y0323125D01*
X0590350Y0320277D01*
X0591824Y0317723D01*
X0593910Y0315638D01*
X0596463Y0314163D01*
X0599312Y0313400D01*
X0602261Y0313400D01*
X0605110Y0314163D01*
X0607663Y0315638D01*
X0609364Y0317338D02*
X0641312Y0317338D01*
X0641312Y0319737D02*
X0610911Y0319737D01*
X0611721Y0322135D02*
X0641403Y0322135D01*
X0641312Y0324534D02*
X0611987Y0324534D01*
X0611757Y0326932D02*
X0641312Y0326932D01*
X0641312Y0329331D02*
X0610988Y0329331D01*
X0609496Y0331729D02*
X0641809Y0331729D01*
X0641312Y0334128D02*
X0606684Y0334128D01*
X0594889Y0334128D02*
X0589362Y0334128D01*
X0589362Y0336526D02*
X0641312Y0336526D01*
X0641312Y0338925D02*
X0589362Y0338925D01*
X0589362Y0341323D02*
X0642215Y0341323D01*
X0641312Y0343722D02*
X0589362Y0343722D01*
X0589362Y0346120D02*
X0641312Y0346120D01*
X0641312Y0348519D02*
X0622949Y0348519D01*
X0625885Y0350917D02*
X0626635Y0350917D01*
X0626635Y0350151D02*
X0629646Y0350151D01*
X0630110Y0350243D01*
X0630546Y0350424D01*
X0630939Y0350687D01*
X0631274Y0351021D01*
X0631536Y0351414D01*
X0631717Y0351851D01*
X0631810Y0352314D01*
X0631810Y0355725D01*
X0626635Y0355725D01*
X0626635Y0350151D01*
X0626635Y0353316D02*
X0625885Y0353316D01*
X0625885Y0355714D02*
X0626635Y0355714D01*
X0626635Y0358113D02*
X0625885Y0358113D01*
X0625885Y0360511D02*
X0626635Y0360511D01*
X0623573Y0362910D02*
X0641312Y0362910D01*
X0641312Y0365308D02*
X0620752Y0365308D01*
X0616934Y0372504D02*
X0641312Y0372504D01*
X0641312Y0374902D02*
X0618827Y0374902D01*
X0620885Y0377301D02*
X0621635Y0377301D01*
X0621635Y0379699D02*
X0620885Y0379699D01*
X0626810Y0379699D02*
X0641312Y0379699D01*
X0641312Y0377301D02*
X0626807Y0377301D01*
X0630428Y0382098D02*
X0641441Y0382098D01*
X0641312Y0384497D02*
X0631708Y0384497D01*
X0631862Y0386895D02*
X0641312Y0386895D01*
X0641312Y0389294D02*
X0631862Y0389294D01*
X0631862Y0391692D02*
X0641847Y0391692D01*
X0641444Y0370105D02*
X0589362Y0370105D01*
X0589362Y0367707D02*
X0641312Y0367707D01*
X0641850Y0360511D02*
X0631650Y0360511D01*
X0631810Y0358113D02*
X0641312Y0358113D01*
X0641312Y0355714D02*
X0631810Y0355714D01*
X0631810Y0353316D02*
X0641312Y0353316D01*
X0642256Y0350917D02*
X0631170Y0350917D01*
X0609375Y0365308D02*
X0594455Y0365308D01*
X0592077Y0331729D02*
X0589362Y0331729D01*
X0589362Y0329331D02*
X0590585Y0329331D01*
X0589816Y0326932D02*
X0589362Y0326932D01*
X0589362Y0324534D02*
X0589587Y0324534D01*
X0589362Y0322135D02*
X0589852Y0322135D01*
X0589362Y0319737D02*
X0590662Y0319737D01*
X0589362Y0317338D02*
X0592209Y0317338D01*
X0589362Y0314940D02*
X0595119Y0314940D01*
X0590002Y0307744D02*
X0589362Y0307744D01*
X0624499Y0240586D02*
X0626824Y0240586D01*
X0626824Y0241217D02*
X0626824Y0234861D01*
X0624499Y0234861D01*
X0624499Y0232536D01*
X0626824Y0232536D01*
X0626824Y0234861D01*
X0632786Y0234861D01*
X0632786Y0239053D01*
X0632694Y0239517D01*
X0632513Y0239953D01*
X0632250Y0240346D01*
X0631916Y0240681D01*
X0631523Y0240943D01*
X0631086Y0241124D01*
X0630622Y0241217D01*
X0626824Y0241217D01*
X0626824Y0238187D02*
X0624499Y0238187D01*
X0624499Y0235789D02*
X0626824Y0235789D01*
X0626824Y0233390D02*
X0641312Y0233390D01*
X0641312Y0235789D02*
X0632786Y0235789D01*
X0632786Y0238187D02*
X0641312Y0238187D01*
X0641924Y0240586D02*
X0632011Y0240586D01*
X0624499Y0233390D02*
X0609362Y0233390D01*
X0624499Y0230992D02*
X0626824Y0230992D01*
X0626824Y0232536D02*
X0626824Y0226180D01*
X0630622Y0226180D01*
X0631086Y0226273D01*
X0631523Y0226453D01*
X0631916Y0226716D01*
X0632250Y0227050D01*
X0632513Y0227443D01*
X0632694Y0227880D01*
X0632786Y0228344D01*
X0632786Y0232536D01*
X0626824Y0232536D01*
X0626824Y0228593D02*
X0624499Y0228593D01*
X0624499Y0226195D02*
X0626824Y0226195D01*
X0630695Y0226195D02*
X0641312Y0226195D01*
X0641312Y0228593D02*
X0632786Y0228593D01*
X0632786Y0230992D02*
X0642330Y0230992D01*
X0641312Y0218999D02*
X0633600Y0218999D01*
X0635862Y0216601D02*
X0641312Y0216601D01*
X0641312Y0214202D02*
X0636586Y0214202D01*
X0636586Y0211804D02*
X0641735Y0211804D01*
X0641312Y0209405D02*
X0636586Y0209405D01*
X0636586Y0207007D02*
X0641312Y0207007D01*
X0641312Y0204608D02*
X0636586Y0204608D01*
X0636586Y0202210D02*
X0641329Y0202210D01*
X0641312Y0199811D02*
X0635582Y0199811D01*
X0632172Y0197413D02*
X0641312Y0197413D01*
X0641312Y0195014D02*
X0626862Y0195014D01*
X0626862Y0192616D02*
X0641312Y0192616D01*
X0641556Y0190217D02*
X0626862Y0190217D01*
X0626862Y0187819D02*
X0641312Y0187819D01*
X0641312Y0185420D02*
X0626862Y0185420D01*
X0626862Y0183022D02*
X0641312Y0183022D01*
X0641962Y0180623D02*
X0626862Y0180623D01*
X0626862Y0178225D02*
X0641312Y0178225D01*
X0641312Y0175826D02*
X0626862Y0175826D01*
X0626862Y0173428D02*
X0641312Y0173428D01*
X0642368Y0171029D02*
X0627715Y0171029D01*
X0632215Y0168630D02*
X0641312Y0168630D01*
X0641312Y0166232D02*
X0634315Y0166232D01*
X0635309Y0163833D02*
X0641312Y0163833D01*
X0642104Y0161435D02*
X0635621Y0161435D01*
X0635586Y0159036D02*
X0641312Y0159036D01*
X0641312Y0156638D02*
X0634593Y0156638D01*
X0632885Y0154239D02*
X0641312Y0154239D01*
X0641698Y0151841D02*
X0629332Y0151841D01*
X0629039Y0149442D02*
X0641312Y0149442D01*
X0519636Y0161435D02*
X0518678Y0161435D01*
X0481246Y0123059D02*
X0344362Y0123059D01*
X0344362Y0120660D02*
X0481213Y0120660D01*
X0470520Y0118262D02*
X0374081Y0118262D01*
X0373657Y0118528D02*
X0372655Y0119011D01*
X0371605Y0119378D01*
X0370521Y0119625D01*
X0369416Y0119750D01*
X0368940Y0119750D01*
X0368940Y0109930D01*
X0368781Y0109930D01*
X0368781Y0119750D01*
X0368304Y0119750D01*
X0367199Y0119625D01*
X0366115Y0119378D01*
X0365066Y0119011D01*
X0364064Y0118528D01*
X0363122Y0117937D01*
X0362253Y0117243D01*
X0361467Y0116457D01*
X0360774Y0115588D01*
X0360182Y0114646D01*
X0359700Y0113645D01*
X0359332Y0112595D01*
X0359085Y0111511D01*
X0358960Y0110406D01*
X0358960Y0109930D01*
X0368781Y0109930D01*
X0368781Y0109770D01*
X0368940Y0109770D01*
X0368940Y0099950D01*
X0369416Y0099950D01*
X0370521Y0100074D01*
X0371605Y0100322D01*
X0372655Y0100689D01*
X0373657Y0101172D01*
X0374598Y0101763D01*
X0375468Y0102457D01*
X0376254Y0103243D01*
X0376947Y0104112D01*
X0377539Y0105054D01*
X0378021Y0106055D01*
X0378388Y0107105D01*
X0378636Y0108189D01*
X0378760Y0109294D01*
X0378760Y0109770D01*
X0368940Y0109770D01*
X0368940Y0109930D01*
X0378760Y0109930D01*
X0378760Y0110406D01*
X0378636Y0111511D01*
X0378388Y0112595D01*
X0378021Y0113645D01*
X0377539Y0114646D01*
X0376947Y0115588D01*
X0376254Y0116457D01*
X0375468Y0117243D01*
X0374598Y0117937D01*
X0373657Y0118528D01*
X0376728Y0115863D02*
X0468121Y0115863D01*
X0465723Y0113465D02*
X0378084Y0113465D01*
X0378686Y0111066D02*
X0463324Y0111066D01*
X0460926Y0108668D02*
X0378690Y0108668D01*
X0378096Y0106269D02*
X0458527Y0106269D01*
X0400071Y0103871D02*
X0376755Y0103871D01*
X0374135Y0101472D02*
X0397672Y0101472D01*
X0396667Y0099074D02*
X0345416Y0099074D01*
X0344362Y0101472D02*
X0363586Y0101472D01*
X0363122Y0101763D02*
X0364064Y0101172D01*
X0365066Y0100689D01*
X0366115Y0100322D01*
X0367199Y0100074D01*
X0368304Y0099950D01*
X0368781Y0099950D01*
X0368781Y0109770D01*
X0358960Y0109770D01*
X0358960Y0109294D01*
X0359085Y0108189D01*
X0359332Y0107105D01*
X0359700Y0106055D01*
X0360182Y0105054D01*
X0360774Y0104112D01*
X0361467Y0103243D01*
X0362253Y0102457D01*
X0363122Y0101763D01*
X0360966Y0103871D02*
X0344362Y0103871D01*
X0344362Y0106269D02*
X0359625Y0106269D01*
X0359031Y0108668D02*
X0344362Y0108668D01*
X0344362Y0111066D02*
X0359035Y0111066D01*
X0359637Y0113465D02*
X0344362Y0113465D01*
X0344362Y0115863D02*
X0360993Y0115863D01*
X0363640Y0118262D02*
X0344362Y0118262D01*
X0347814Y0096675D02*
X0396213Y0096675D01*
X0368940Y0101472D02*
X0368781Y0101472D01*
X0368781Y0103871D02*
X0368940Y0103871D01*
X0368940Y0106269D02*
X0368781Y0106269D01*
X0368781Y0108668D02*
X0368940Y0108668D01*
X0368940Y0111066D02*
X0368781Y0111066D01*
X0368781Y0113465D02*
X0368940Y0113465D01*
X0368940Y0115863D02*
X0368781Y0115863D01*
X0368781Y0118262D02*
X0368940Y0118262D01*
X0359844Y0144645D02*
X0400912Y0144645D01*
X0400912Y0147044D02*
X0357446Y0147044D01*
X0354623Y0149442D02*
X0400912Y0149442D01*
X0401227Y0151841D02*
X0354362Y0151841D01*
X0354362Y0154239D02*
X0402736Y0154239D01*
X0405754Y0156638D02*
X0354362Y0156638D01*
X0354362Y0159036D02*
X0407030Y0159036D01*
X0408269Y0161435D02*
X0354362Y0161435D01*
X0354362Y0163833D02*
X0366372Y0163833D01*
X0371349Y0163833D02*
X0410814Y0163833D01*
X0429473Y0180623D02*
X0382167Y0180623D01*
X0381405Y0183022D02*
X0438140Y0183022D01*
X0440409Y0185420D02*
X0380020Y0185420D01*
X0377766Y0187819D02*
X0441962Y0187819D01*
X0441962Y0190217D02*
X0373772Y0190217D01*
X0363948Y0190217D02*
X0354362Y0190217D01*
X0354362Y0187819D02*
X0359954Y0187819D01*
X0357700Y0185420D02*
X0354362Y0185420D01*
X0354362Y0183022D02*
X0356315Y0183022D01*
X0355554Y0180623D02*
X0354362Y0180623D01*
X0354362Y0178225D02*
X0355160Y0178225D01*
X0355160Y0175826D02*
X0354362Y0175826D01*
X0354362Y0173428D02*
X0355728Y0173428D01*
X0356690Y0171029D02*
X0354362Y0171029D01*
X0354362Y0168630D02*
X0358205Y0168630D01*
X0360717Y0166232D02*
X0354362Y0166232D01*
X0406185Y0195014D02*
X0415138Y0195014D01*
X0412739Y0197413D02*
X0412198Y0197413D01*
X0410662Y0197413D02*
X0410661Y0197413D01*
X0409125Y0197413D02*
X0408584Y0197413D01*
X0410661Y0199811D02*
X0410662Y0199811D01*
X0410661Y0202210D02*
X0410662Y0202210D01*
X0410661Y0204608D02*
X0410662Y0204608D01*
X0426185Y0195014D02*
X0435138Y0195014D01*
X0432739Y0197413D02*
X0432198Y0197413D01*
X0430662Y0197413D02*
X0430661Y0197413D01*
X0429125Y0197413D02*
X0428584Y0197413D01*
X0430661Y0199811D02*
X0430662Y0199811D01*
X0430661Y0202210D02*
X0430662Y0202210D01*
X0430661Y0204608D02*
X0430662Y0204608D01*
X0434480Y0180623D02*
X0435032Y0180623D01*
X0435032Y0178225D02*
X0434480Y0178225D01*
X0326308Y0298150D02*
X0241862Y0298150D01*
X0224462Y0329331D02*
X0224362Y0329331D01*
X0224362Y0331729D02*
X0224462Y0331729D01*
X0224999Y0334128D02*
X0223824Y0334128D01*
X0222539Y0336526D02*
X0226284Y0336526D01*
X0228683Y0338925D02*
X0220140Y0338925D01*
X0217742Y0341323D02*
X0231081Y0341323D01*
X0231962Y0343722D02*
X0215343Y0343722D01*
X0212945Y0346120D02*
X0231962Y0346120D01*
X0231962Y0348519D02*
X0210546Y0348519D01*
X0207938Y0350917D02*
X0231962Y0350917D01*
X0094038Y0185420D02*
X0060662Y0185420D01*
X0060662Y0183022D02*
X0073957Y0183022D01*
X0077276Y0183022D02*
X0079676Y0183022D01*
X0079676Y0180623D02*
X0077276Y0180623D01*
X0077276Y0178225D02*
X0079676Y0178225D01*
X0079676Y0175826D02*
X0077276Y0175826D01*
X0077276Y0173428D02*
X0060662Y0173428D01*
X0060662Y0175826D02*
X0067918Y0175826D01*
X0068846Y0178225D02*
X0060662Y0178225D01*
X0060662Y0180623D02*
X0070585Y0180623D01*
X0067769Y0171029D02*
X0060662Y0171029D01*
X0060662Y0168630D02*
X0068531Y0168630D01*
X0070012Y0166232D02*
X0060662Y0166232D01*
X0060662Y0163833D02*
X0072737Y0163833D01*
X0077276Y0163833D02*
X0079676Y0163833D01*
X0079676Y0166232D02*
X0077276Y0166232D01*
X0077276Y0168630D02*
X0079676Y0168630D01*
X0079676Y0171029D02*
X0077276Y0171029D01*
X0084216Y0163833D02*
X0084501Y0163833D01*
X0086941Y0166232D02*
X0089090Y0166232D01*
X0089087Y0163833D02*
X0090576Y0163833D01*
X0091487Y0161435D02*
X0089087Y0161435D01*
X0089087Y0159036D02*
X0091487Y0159036D01*
X0091487Y0156638D02*
X0089087Y0156638D01*
X0089087Y0154239D02*
X0060662Y0154239D01*
X0060662Y0151841D02*
X0079736Y0151841D01*
X0080671Y0149442D02*
X0060662Y0149442D01*
X0060662Y0147044D02*
X0070799Y0147044D01*
X0073835Y0147044D02*
X0073835Y0147044D01*
X0073835Y0144645D02*
X0073835Y0144645D01*
X0076870Y0147044D02*
X0082425Y0147044D01*
X0081631Y0144645D02*
X0078735Y0144645D01*
X0078735Y0142247D02*
X0081050Y0142247D01*
X0068935Y0142247D02*
X0060662Y0142247D01*
X0060662Y0144645D02*
X0068935Y0144645D01*
X0068229Y0139848D02*
X0060662Y0139848D01*
X0060662Y0137450D02*
X0065831Y0137450D01*
X0065135Y0135051D02*
X0060662Y0135051D01*
X0060662Y0132653D02*
X0065135Y0132653D01*
X0065135Y0130254D02*
X0060662Y0130254D01*
X0060662Y0156638D02*
X0079573Y0156638D01*
X0080328Y0159036D02*
X0060662Y0159036D01*
X0060662Y0161435D02*
X0081800Y0161435D01*
X0088107Y0178225D02*
X0088253Y0178225D01*
X0089468Y0180623D02*
X0086368Y0180623D01*
X0082996Y0183022D02*
X0091231Y0183022D01*
X0102674Y0127856D02*
X0106602Y0127856D01*
X0109001Y0125457D02*
X0104103Y0125457D01*
X0104362Y0123059D02*
X0111399Y0123059D01*
X0526862Y0400100D02*
X0526862Y0409842D01*
X0530385Y0409842D01*
X0530385Y0414918D01*
X0530938Y0414918D01*
X0530938Y0415471D01*
X0536999Y0415471D01*
X0536999Y0418336D01*
X0538111Y0418797D01*
X0539855Y0420541D01*
X0540799Y0422819D01*
X0540799Y0431192D01*
X0540422Y0432100D01*
X0541365Y0432100D01*
X0543681Y0431141D01*
X0547642Y0431141D01*
X0549958Y0432100D01*
X0554839Y0432100D01*
X0555681Y0430068D01*
X0540799Y0430068D01*
X0540799Y0427670D02*
X0559005Y0427670D01*
X0559704Y0427380D02*
X0571619Y0427380D01*
X0573898Y0428324D01*
X0575642Y0430068D01*
X0598795Y0430068D01*
X0598401Y0429905D02*
X0598296Y0429800D01*
X0593931Y0429800D01*
X0590733Y0428475D01*
X0588286Y0426028D01*
X0583286Y0421028D01*
X0581962Y0417831D01*
X0581962Y0400100D01*
X0526862Y0400100D01*
X0526862Y0401286D02*
X0581962Y0401286D01*
X0581962Y0403685D02*
X0526862Y0403685D01*
X0526862Y0406083D02*
X0560219Y0406083D01*
X0560237Y0406076D02*
X0560701Y0405983D01*
X0564499Y0405983D01*
X0564499Y0412339D01*
X0566824Y0412339D01*
X0566824Y0414664D01*
X0572786Y0414664D01*
X0572786Y0418856D01*
X0572694Y0419320D01*
X0572513Y0419757D01*
X0572250Y0420150D01*
X0571916Y0420484D01*
X0571523Y0420747D01*
X0571086Y0420927D01*
X0570622Y0421020D01*
X0566824Y0421020D01*
X0566824Y0414664D01*
X0564499Y0414664D01*
X0564499Y0421020D01*
X0560701Y0421020D01*
X0560237Y0420927D01*
X0559800Y0420747D01*
X0559407Y0420484D01*
X0559073Y0420150D01*
X0558810Y0419757D01*
X0558629Y0419320D01*
X0558537Y0418856D01*
X0558537Y0414664D01*
X0564499Y0414664D01*
X0564499Y0412339D01*
X0558537Y0412339D01*
X0558537Y0408147D01*
X0558629Y0407683D01*
X0558810Y0407247D01*
X0559073Y0406854D01*
X0559407Y0406519D01*
X0559800Y0406257D01*
X0560237Y0406076D01*
X0558537Y0408482D02*
X0526862Y0408482D01*
X0530385Y0410880D02*
X0530938Y0410880D01*
X0530938Y0409842D02*
X0534835Y0409842D01*
X0535299Y0409934D01*
X0535735Y0410115D01*
X0536128Y0410378D01*
X0536463Y0410712D01*
X0536725Y0411105D01*
X0536906Y0411542D01*
X0536999Y0412005D01*
X0536999Y0414918D01*
X0530938Y0414918D01*
X0530938Y0409842D01*
X0530938Y0413279D02*
X0530385Y0413279D01*
X0530662Y0415194D02*
X0532354Y0413502D01*
X0536999Y0413279D02*
X0564499Y0413279D01*
X0566824Y0413279D02*
X0581962Y0413279D01*
X0581962Y0415677D02*
X0572786Y0415677D01*
X0572786Y0418076D02*
X0582063Y0418076D01*
X0583057Y0420474D02*
X0571926Y0420474D01*
X0566824Y0420474D02*
X0564499Y0420474D01*
X0564499Y0418076D02*
X0566824Y0418076D01*
X0566824Y0415677D02*
X0564499Y0415677D01*
X0566824Y0412339D02*
X0572786Y0412339D01*
X0572786Y0408147D01*
X0572694Y0407683D01*
X0572513Y0407247D01*
X0572250Y0406854D01*
X0571916Y0406519D01*
X0571523Y0406257D01*
X0571086Y0406076D01*
X0570622Y0405983D01*
X0566824Y0405983D01*
X0566824Y0412339D01*
X0566824Y0410880D02*
X0564499Y0410880D01*
X0564499Y0408482D02*
X0566824Y0408482D01*
X0566824Y0406083D02*
X0564499Y0406083D01*
X0571104Y0406083D02*
X0581962Y0406083D01*
X0581962Y0408482D02*
X0572786Y0408482D01*
X0572786Y0410880D02*
X0581962Y0410880D01*
X0585131Y0422873D02*
X0540799Y0422873D01*
X0540799Y0425271D02*
X0587529Y0425271D01*
X0589928Y0427670D02*
X0572318Y0427670D01*
X0575642Y0430068D02*
X0576586Y0432347D01*
X0576586Y0445050D01*
X0575737Y0447100D01*
X0646934Y0447100D01*
X0658584Y0435450D01*
X0656789Y0435450D01*
X0655662Y0434323D01*
X0654534Y0435450D01*
X0646789Y0435450D01*
X0641312Y0429973D01*
X0641312Y0422227D01*
X0642439Y0421100D01*
X0641439Y0420100D01*
X0629988Y0420100D01*
X0625610Y0424478D01*
X0625610Y0425882D01*
X0624666Y0428161D01*
X0622922Y0429905D01*
X0620643Y0430849D01*
X0611877Y0430849D01*
X0610662Y0430346D01*
X0609446Y0430849D01*
X0600680Y0430849D01*
X0598401Y0429905D01*
X0576586Y0432467D02*
X0643805Y0432467D01*
X0641407Y0430068D02*
X0622528Y0430068D01*
X0624869Y0427670D02*
X0641312Y0427670D01*
X0641312Y0425271D02*
X0625610Y0425271D01*
X0627215Y0422873D02*
X0641312Y0422873D01*
X0641813Y0420474D02*
X0629614Y0420474D01*
X0646204Y0434865D02*
X0576586Y0434865D01*
X0576586Y0437264D02*
X0656770Y0437264D01*
X0656204Y0434865D02*
X0655119Y0434865D01*
X0654371Y0439662D02*
X0576586Y0439662D01*
X0576586Y0442061D02*
X0651973Y0442061D01*
X0649574Y0444459D02*
X0576586Y0444459D01*
X0575837Y0446858D02*
X0647176Y0446858D01*
X0665662Y0411100D02*
X0670662Y0406100D01*
X0665662Y0401100D02*
X0670662Y0396100D01*
X0670662Y0386100D02*
X0665662Y0381100D01*
X0558537Y0410880D02*
X0536575Y0410880D01*
X0536999Y0415677D02*
X0558537Y0415677D01*
X0558537Y0418076D02*
X0536999Y0418076D01*
X0539788Y0420474D02*
X0559397Y0420474D01*
X0559704Y0427380D02*
X0557425Y0428324D01*
X0555681Y0430068D01*
D40*
X0565662Y0438698D02*
X0563260Y0441100D01*
X0565662Y0413502D02*
X0568063Y0413502D01*
X0505662Y0410502D02*
X0504465Y0411698D01*
X0505662Y0435502D02*
X0506260Y0436100D01*
X0426567Y0421100D02*
X0418162Y0420194D01*
X0405662Y0406100D02*
X0400662Y0411100D01*
X0395898Y0411100D01*
X0405662Y0406100D02*
X0405662Y0401100D01*
X0225662Y0443698D02*
X0223063Y0441100D01*
X0204662Y0218600D02*
X0205662Y0217600D01*
X0130662Y0191100D02*
X0130662Y0166100D01*
X0115662Y0146100D02*
X0121260Y0140502D01*
X0130662Y0140502D01*
X0145662Y0121100D02*
X0143952Y0119391D01*
X0143952Y0112173D01*
X0143952Y0104391D01*
X0140726Y0101164D01*
X0140726Y0100325D01*
X0132064Y0096585D02*
X0132064Y0094697D01*
X0135662Y0091100D01*
X0154926Y0091100D01*
X0155411Y0091585D01*
X0164072Y0095325D02*
X0170359Y0101612D01*
X0184401Y0101612D01*
X0185662Y0100352D01*
X0185662Y0096100D01*
X0186452Y0095309D01*
X0186452Y0092006D01*
X0197649Y0092006D02*
X0199068Y0092006D01*
X0200662Y0093600D01*
X0200662Y0101123D01*
X0200088Y0101696D01*
X0184401Y0112809D02*
X0184401Y0119767D01*
X0185662Y0121027D01*
X0203081Y0121027D01*
X0200088Y0119019D01*
X0185662Y0121027D02*
X0177371Y0121027D01*
X0166174Y0121027D02*
X0166101Y0121100D01*
X0145662Y0121100D01*
X0155149Y0112173D02*
X0155149Y0099327D01*
X0155411Y0099066D01*
X0132064Y0104066D02*
X0132064Y0114099D01*
X0130662Y0115502D01*
X0130063Y0116100D01*
X0120662Y0116100D01*
X0118162Y0113600D01*
X0118162Y0109198D01*
X0195662Y0152006D02*
X0196567Y0151100D01*
X0210662Y0151100D01*
X0475063Y0146698D02*
X0475662Y0146100D01*
X0490063Y0146100D02*
X0490662Y0146698D01*
X0515443Y0111100D02*
X0515662Y0111100D01*
X0518162Y0108600D01*
D41*
X0610662Y0091100D03*
X0625662Y0161100D03*
X0615662Y0186100D03*
X0615662Y0301100D03*
X0590662Y0356100D03*
X0590662Y0391100D03*
X0625662Y0401100D03*
X0635662Y0381100D03*
X0635662Y0436100D03*
X0545662Y0441100D03*
X0430662Y0431100D03*
X0325662Y0456100D03*
X0425662Y0156100D03*
D42*
X0435662Y0166100D02*
X0440662Y0161100D01*
X0455662Y0161100D01*
X0460662Y0156100D01*
X0460662Y0146698D01*
X0435662Y0166100D02*
X0435662Y0176100D01*
X0434756Y0176100D01*
X0430662Y0201100D02*
X0430662Y0206100D01*
X0234963Y0131799D02*
X0234963Y0109850D01*
X0234963Y0131799D02*
X0230662Y0136100D01*
X0199756Y0136100D01*
X0195662Y0140194D01*
X0184756Y0140194D01*
X0183162Y0138600D01*
X0183162Y0131100D01*
X0180662Y0128600D01*
X0158162Y0128600D01*
X0150662Y0128600D01*
X0145662Y0133600D01*
X0145662Y0166100D01*
X0145662Y0191100D01*
X0165662Y0211100D01*
X0165662Y0217600D01*
X0164662Y0218600D01*
X0154662Y0218600D02*
X0154662Y0215100D01*
X0130662Y0191100D01*
X0160063Y0195502D02*
X0160063Y0186100D01*
X0160063Y0195502D02*
X0165662Y0201100D01*
X0200662Y0201100D01*
X0205662Y0206100D01*
X0205662Y0217600D01*
X0131962Y0166800D02*
X0130662Y0165500D01*
X0130662Y0151698D01*
X0197649Y0092006D02*
X0201056Y0086100D01*
X0220662Y0086100D01*
X0105122Y0308060D02*
X0105096Y0308060D01*
X0093899Y0308060D02*
X0078491Y0308060D01*
X0073401Y0308150D01*
X0072968Y0326150D02*
X0078391Y0325727D01*
X0093899Y0325727D01*
X0093899Y0343394D02*
X0078291Y0343394D01*
X0072535Y0344150D01*
X0360662Y0431100D02*
X0365662Y0426100D01*
X0426567Y0421100D02*
X0470662Y0421100D01*
X0475662Y0426100D01*
X0475662Y0436100D01*
X0635662Y0136100D02*
X0650662Y0136100D01*
X0660662Y0136100D01*
X0635662Y0136100D02*
X0630662Y0131100D01*
X0630662Y0106100D01*
X0655662Y0106100D01*
X0660662Y0111100D01*
X0660662Y0116100D01*
X0665662Y0106100D02*
X0660662Y0101100D01*
X0660662Y0086100D01*
X0665662Y0106100D02*
X0680662Y0106100D01*
D43*
X0475662Y0436100D03*
X0125662Y0091100D03*
D44*
X0115662Y0146100D03*
X0210662Y0151100D03*
X0270662Y0191100D03*
X0310662Y0096100D03*
X0220662Y0086100D03*
X0405662Y0096100D03*
X0490662Y0101100D03*
X0490662Y0121100D03*
X0508162Y0128600D03*
X0510662Y0156100D03*
X0370662Y0361100D03*
D45*
X0600787Y0324600D03*
X0600662Y0277475D03*
M02*
