G75*
%MOIN*%
%OFA0B0*%
%FSLAX25Y25*%
%IPPOS*%
%LPD*%
%AMOC8*
5,1,8,0,0,1.08239X$1,22.5*
%
%ADD10C,0.00300*%
%ADD11R,0.31496X0.43307*%
%ADD12C,0.00600*%
%ADD13C,0.00500*%
%ADD14R,0.02400X0.02400*%
%ADD15C,0.00000*%
%ADD16C,0.00800*%
%ADD17C,0.00400*%
%ADD18R,0.06900X0.02900*%
%ADD19R,0.01969X0.06299*%
%ADD20C,0.05000*%
%ADD21C,0.01000*%
%ADD22C,0.02400*%
%ADD23R,0.02900X0.06900*%
%ADD24R,0.02100X0.08600*%
%ADD25R,0.02165X0.14961*%
%ADD26C,0.00200*%
%ADD27C,0.00700*%
%ADD28R,0.01500X0.02000*%
%ADD29R,0.07000X0.02000*%
%ADD30R,0.04500X0.02000*%
%ADD31R,0.03000X0.02000*%
%ADD32R,0.04331X0.01929*%
%ADD33R,0.06299X0.01969*%
%ADD34R,0.02000X0.04500*%
%ADD35R,0.02300X0.01800*%
%ADD36R,0.07300X0.12600*%
%ADD37R,0.07300X0.03400*%
%ADD38R,0.08600X0.02100*%
%ADD39R,0.14961X0.02165*%
%ADD40R,0.05000X0.03000*%
%ADD41R,0.05000X0.00500*%
%ADD42C,0.00100*%
D10*
X0200139Y0142117D02*
X0200756Y0141500D01*
X0203225Y0141500D01*
X0203842Y0142117D01*
X0203842Y0143351D01*
X0203225Y0143969D01*
X0203842Y0145183D02*
X0203842Y0147652D01*
X0203842Y0148866D02*
X0203842Y0151335D01*
X0203842Y0150100D02*
X0200139Y0150100D01*
X0201373Y0148866D01*
X0200139Y0146417D02*
X0203842Y0146417D01*
X0201373Y0145183D02*
X0200139Y0146417D01*
X0200756Y0143969D02*
X0200139Y0143351D01*
X0200139Y0142117D01*
X0129328Y0163650D02*
X0126192Y0166786D01*
X0129328Y0163650D01*
X0129328Y0165218D02*
X0126192Y0165218D01*
X0129328Y0165218D01*
X0129328Y0166786D02*
X0126192Y0163650D01*
X0129328Y0166786D01*
X0127760Y0166786D02*
X0127760Y0163650D01*
X0127760Y0166786D01*
X0151543Y0223750D02*
X0150308Y0224984D01*
X0151543Y0226219D01*
X0154012Y0226219D01*
X0154012Y0227433D02*
X0150308Y0227433D01*
X0150308Y0229285D01*
X0150926Y0229902D01*
X0152160Y0229902D01*
X0152777Y0229285D01*
X0152777Y0227433D01*
X0152777Y0228668D02*
X0154012Y0229902D01*
X0154012Y0231116D02*
X0154012Y0233585D01*
X0154012Y0234799D02*
X0150308Y0234799D01*
X0150308Y0237268D01*
X0152160Y0236034D02*
X0152160Y0234799D01*
X0150308Y0233585D02*
X0150308Y0231116D01*
X0154012Y0231116D01*
X0152160Y0231116D02*
X0152160Y0232351D01*
X0152160Y0226219D02*
X0152160Y0223750D01*
X0151543Y0223750D02*
X0154012Y0223750D01*
X0162808Y0224367D02*
X0163426Y0223750D01*
X0165894Y0223750D01*
X0166512Y0224367D01*
X0166512Y0225602D01*
X0165894Y0226219D01*
X0164660Y0226219D01*
X0164660Y0224984D01*
X0163426Y0226219D02*
X0162808Y0225602D01*
X0162808Y0224367D01*
X0162808Y0227433D02*
X0166512Y0229902D01*
X0162808Y0229902D01*
X0162808Y0231116D02*
X0162808Y0232968D01*
X0163426Y0233585D01*
X0165894Y0233585D01*
X0166512Y0232968D01*
X0166512Y0231116D01*
X0162808Y0231116D01*
X0162808Y0227433D02*
X0166512Y0227433D01*
X0171812Y0226219D02*
X0173046Y0227453D01*
X0173046Y0223750D01*
X0171812Y0223750D02*
X0174280Y0223750D01*
X0175495Y0224367D02*
X0176112Y0223750D01*
X0177346Y0223750D01*
X0177963Y0224367D01*
X0177963Y0224984D01*
X0177346Y0225602D01*
X0176729Y0225602D01*
X0177346Y0225602D02*
X0177963Y0226219D01*
X0177963Y0226836D01*
X0177346Y0227453D01*
X0176112Y0227453D01*
X0175495Y0226836D01*
X0181812Y0226219D02*
X0183046Y0227453D01*
X0183046Y0223750D01*
X0181812Y0223750D02*
X0184280Y0223750D01*
X0185495Y0223750D02*
X0187963Y0226219D01*
X0187963Y0226836D01*
X0187346Y0227453D01*
X0186112Y0227453D01*
X0185495Y0226836D01*
X0185495Y0223750D02*
X0187963Y0223750D01*
X0191812Y0223750D02*
X0194280Y0223750D01*
X0195495Y0223750D02*
X0197963Y0223750D01*
X0196729Y0223750D02*
X0196729Y0227453D01*
X0195495Y0226219D01*
X0193046Y0227453D02*
X0193046Y0223750D01*
X0191812Y0226219D02*
X0193046Y0227453D01*
X0201812Y0226219D02*
X0203046Y0227453D01*
X0203046Y0223750D01*
X0201812Y0223750D02*
X0204280Y0223750D01*
X0205495Y0224367D02*
X0207963Y0226836D01*
X0207963Y0224367D01*
X0207346Y0223750D01*
X0206112Y0223750D01*
X0205495Y0224367D01*
X0205495Y0226836D01*
X0206112Y0227453D01*
X0207346Y0227453D01*
X0207963Y0226836D01*
X0212312Y0226836D02*
X0212312Y0226219D01*
X0212929Y0225602D01*
X0214780Y0225602D01*
X0214780Y0226836D02*
X0214163Y0227453D01*
X0212929Y0227453D01*
X0212312Y0226836D01*
X0214780Y0226836D02*
X0214780Y0224367D01*
X0214163Y0223750D01*
X0212929Y0223750D01*
X0212312Y0224367D01*
X0222312Y0224367D02*
X0222312Y0224984D01*
X0222929Y0225602D01*
X0224163Y0225602D01*
X0224780Y0224984D01*
X0224780Y0224367D01*
X0224163Y0223750D01*
X0222929Y0223750D01*
X0222312Y0224367D01*
X0222929Y0225602D02*
X0222312Y0226219D01*
X0222312Y0226836D01*
X0222929Y0227453D01*
X0224163Y0227453D01*
X0224780Y0226836D01*
X0224780Y0226219D01*
X0224163Y0225602D01*
X0223048Y0213453D02*
X0223048Y0209750D01*
X0222431Y0209750D02*
X0223665Y0209750D01*
X0224886Y0209750D02*
X0227355Y0213453D01*
X0228569Y0212219D02*
X0229804Y0213453D01*
X0231038Y0212219D01*
X0231038Y0209750D01*
X0232252Y0209750D02*
X0232252Y0212219D01*
X0234104Y0212219D01*
X0234721Y0211602D01*
X0234721Y0209750D01*
X0235935Y0210367D02*
X0236553Y0210984D01*
X0238404Y0210984D01*
X0238404Y0211602D02*
X0238404Y0209750D01*
X0236553Y0209750D01*
X0235935Y0210367D01*
X0236553Y0212219D02*
X0237787Y0212219D01*
X0238404Y0211602D01*
X0239619Y0213453D02*
X0240236Y0213453D01*
X0240236Y0209750D01*
X0239619Y0209750D02*
X0240853Y0209750D01*
X0242074Y0210367D02*
X0242691Y0209750D01*
X0243926Y0209750D01*
X0244543Y0210367D01*
X0244543Y0211602D01*
X0243926Y0212219D01*
X0242691Y0212219D01*
X0242074Y0211602D01*
X0242074Y0210367D01*
X0245757Y0210367D02*
X0245757Y0211602D01*
X0246374Y0212219D01*
X0248226Y0212219D01*
X0248226Y0209133D01*
X0247609Y0208516D01*
X0246992Y0208516D01*
X0246374Y0209750D02*
X0248226Y0209750D01*
X0246374Y0209750D02*
X0245757Y0210367D01*
X0253123Y0209750D02*
X0254358Y0209750D01*
X0253741Y0209750D02*
X0253741Y0213453D01*
X0254358Y0213453D02*
X0253123Y0213453D01*
X0255579Y0209750D02*
X0258048Y0213453D01*
X0259262Y0212836D02*
X0259262Y0210367D01*
X0259879Y0209750D01*
X0261114Y0209750D01*
X0261731Y0210367D01*
X0261731Y0212836D01*
X0261114Y0213453D01*
X0259879Y0213453D01*
X0259262Y0212836D01*
X0258929Y0223750D02*
X0258312Y0224367D01*
X0258929Y0223750D02*
X0260163Y0223750D01*
X0260780Y0224367D01*
X0260780Y0225602D01*
X0260163Y0226219D01*
X0259546Y0226219D01*
X0258312Y0225602D01*
X0258312Y0227453D01*
X0260780Y0227453D01*
X0268312Y0225602D02*
X0270780Y0225602D01*
X0270163Y0227453D02*
X0268312Y0225602D01*
X0270163Y0227453D02*
X0270163Y0223750D01*
X0278312Y0224367D02*
X0278929Y0223750D01*
X0280163Y0223750D01*
X0280780Y0224367D01*
X0280780Y0224984D01*
X0280163Y0225602D01*
X0279546Y0225602D01*
X0280163Y0225602D02*
X0280780Y0226219D01*
X0280780Y0226836D01*
X0280163Y0227453D01*
X0278929Y0227453D01*
X0278312Y0226836D01*
X0288312Y0226836D02*
X0288929Y0227453D01*
X0290163Y0227453D01*
X0290780Y0226836D01*
X0290780Y0226219D01*
X0288312Y0223750D01*
X0290780Y0223750D01*
X0298312Y0223750D02*
X0300780Y0223750D01*
X0299546Y0223750D02*
X0299546Y0227453D01*
X0298312Y0226219D01*
X0308312Y0226836D02*
X0308929Y0227453D01*
X0310163Y0227453D01*
X0310780Y0226836D01*
X0308312Y0224367D01*
X0308929Y0223750D01*
X0310163Y0223750D01*
X0310780Y0224367D01*
X0310780Y0226836D01*
X0308312Y0226836D02*
X0308312Y0224367D01*
X0250780Y0224367D02*
X0250780Y0224984D01*
X0250163Y0225602D01*
X0248312Y0225602D01*
X0248312Y0224367D01*
X0248929Y0223750D01*
X0250163Y0223750D01*
X0250780Y0224367D01*
X0248312Y0225602D02*
X0249546Y0226836D01*
X0250780Y0227453D01*
X0240780Y0227453D02*
X0240780Y0226836D01*
X0238312Y0224367D01*
X0238312Y0223750D01*
X0238312Y0227453D02*
X0240780Y0227453D01*
X0231038Y0211602D02*
X0228569Y0211602D01*
X0228569Y0212219D02*
X0228569Y0209750D01*
X0223048Y0213453D02*
X0222431Y0213453D01*
X0220599Y0212219D02*
X0221216Y0211602D01*
X0221216Y0209750D01*
X0219365Y0209750D01*
X0218747Y0210367D01*
X0219365Y0210984D01*
X0221216Y0210984D01*
X0220599Y0212219D02*
X0219365Y0212219D01*
X0217526Y0212219D02*
X0216292Y0212219D01*
X0216909Y0212836D02*
X0216909Y0210367D01*
X0217526Y0209750D01*
X0215071Y0209750D02*
X0213837Y0209750D01*
X0214454Y0209750D02*
X0214454Y0212219D01*
X0213837Y0212219D01*
X0212622Y0212219D02*
X0210771Y0212219D01*
X0210153Y0211602D01*
X0210153Y0210367D01*
X0210771Y0209750D01*
X0212622Y0209750D01*
X0212622Y0209133D02*
X0212622Y0212219D01*
X0214454Y0213453D02*
X0214454Y0214070D01*
X0212622Y0209133D02*
X0212005Y0208516D01*
X0211388Y0208516D01*
X0208932Y0209750D02*
X0207698Y0209750D01*
X0208315Y0209750D02*
X0208315Y0212219D01*
X0207698Y0212219D01*
X0206484Y0212836D02*
X0205866Y0213453D01*
X0204015Y0213453D01*
X0204015Y0209750D01*
X0205866Y0209750D01*
X0206484Y0210367D01*
X0206484Y0212836D01*
X0208315Y0213453D02*
X0208315Y0214070D01*
X0194012Y0382874D02*
X0190308Y0382874D01*
X0190308Y0384726D01*
X0190926Y0385343D01*
X0192160Y0385343D01*
X0192777Y0384726D01*
X0192777Y0382874D01*
X0192777Y0384108D02*
X0194012Y0385343D01*
X0194012Y0386557D02*
X0194012Y0389026D01*
X0193394Y0390240D02*
X0194012Y0390858D01*
X0194012Y0392092D01*
X0193394Y0392709D01*
X0192777Y0392709D01*
X0192160Y0392092D01*
X0192160Y0390858D01*
X0191543Y0390240D01*
X0190926Y0390240D01*
X0190308Y0390858D01*
X0190308Y0392092D01*
X0190926Y0392709D01*
X0190308Y0393923D02*
X0194012Y0393923D01*
X0194012Y0396392D01*
X0192160Y0395158D02*
X0192160Y0393923D01*
X0190308Y0393923D02*
X0190308Y0396392D01*
X0190308Y0397607D02*
X0190308Y0400075D01*
X0190308Y0398841D02*
X0194012Y0398841D01*
X0200128Y0399418D02*
X0200746Y0400036D01*
X0201363Y0400036D01*
X0201980Y0399418D01*
X0202597Y0400036D01*
X0203214Y0400036D01*
X0203832Y0399418D01*
X0203832Y0398184D01*
X0203214Y0397567D01*
X0201980Y0398801D02*
X0201980Y0399418D01*
X0200128Y0399418D02*
X0200128Y0398184D01*
X0200746Y0397567D01*
X0201363Y0396352D02*
X0203832Y0395118D01*
X0201363Y0393884D01*
X0201363Y0392669D02*
X0201980Y0392052D01*
X0202597Y0392669D01*
X0203214Y0392669D01*
X0203832Y0392052D01*
X0203832Y0390818D01*
X0203214Y0390201D01*
X0201980Y0391435D02*
X0201980Y0392052D01*
X0201363Y0392669D02*
X0200746Y0392669D01*
X0200128Y0392052D01*
X0200128Y0390818D01*
X0200746Y0390201D01*
X0194012Y0386557D02*
X0190308Y0386557D01*
X0190308Y0389026D01*
X0192160Y0387792D02*
X0192160Y0386557D01*
X0184012Y0387174D02*
X0184012Y0388409D01*
X0183394Y0389026D01*
X0180926Y0389026D01*
X0180308Y0388409D01*
X0180308Y0387174D01*
X0180926Y0386557D01*
X0183394Y0386557D01*
X0184012Y0387174D01*
X0184012Y0385336D02*
X0184012Y0384102D01*
X0184012Y0384719D02*
X0180308Y0384719D01*
X0180308Y0384102D02*
X0180308Y0385336D01*
X0180308Y0390240D02*
X0180308Y0392092D01*
X0180926Y0392709D01*
X0182160Y0392709D01*
X0182777Y0392092D01*
X0182777Y0390240D01*
X0184012Y0390240D02*
X0180308Y0390240D01*
X0182777Y0391475D02*
X0184012Y0392709D01*
X0184012Y0393923D02*
X0184012Y0396392D01*
X0184012Y0397607D02*
X0180308Y0397607D01*
X0180308Y0400075D01*
X0182160Y0398841D02*
X0182160Y0397607D01*
X0180308Y0396392D02*
X0180308Y0393923D01*
X0184012Y0393923D01*
X0182160Y0393923D02*
X0182160Y0395158D01*
X0211128Y0396352D02*
X0211128Y0393884D01*
X0212980Y0393884D01*
X0212363Y0395118D01*
X0212363Y0395735D01*
X0212980Y0396352D01*
X0214214Y0396352D01*
X0214832Y0395735D01*
X0214832Y0394501D01*
X0214214Y0393884D01*
X0212363Y0397567D02*
X0214832Y0398801D01*
X0212363Y0400036D01*
X0218848Y0400036D02*
X0222551Y0400036D01*
X0222551Y0398184D01*
X0221934Y0397567D01*
X0220700Y0397567D01*
X0220083Y0398184D01*
X0220083Y0400036D01*
X0220700Y0396352D02*
X0222551Y0396352D01*
X0220700Y0396352D02*
X0220083Y0395735D01*
X0220083Y0393884D01*
X0222551Y0393884D01*
X0221934Y0392669D02*
X0220700Y0392669D01*
X0220700Y0391435D01*
X0221934Y0392669D02*
X0222551Y0392052D01*
X0222551Y0390818D01*
X0221934Y0390201D01*
X0219465Y0390201D01*
X0218848Y0390818D01*
X0218848Y0392052D01*
X0219465Y0392669D01*
X0228848Y0392052D02*
X0228848Y0390818D01*
X0229465Y0390201D01*
X0231934Y0390201D01*
X0232551Y0390818D01*
X0232551Y0392052D01*
X0231934Y0392669D01*
X0230700Y0392669D01*
X0230700Y0391435D01*
X0229465Y0392669D02*
X0228848Y0392052D01*
X0230083Y0393884D02*
X0230083Y0395735D01*
X0230700Y0396352D01*
X0232551Y0396352D01*
X0231934Y0397567D02*
X0230700Y0397567D01*
X0230083Y0398184D01*
X0230083Y0400036D01*
X0228848Y0400036D02*
X0232551Y0400036D01*
X0232551Y0398184D01*
X0231934Y0397567D01*
X0232551Y0393884D02*
X0230083Y0393884D01*
X0239011Y0395729D02*
X0239628Y0395729D01*
X0240863Y0395729D02*
X0243332Y0395729D01*
X0243332Y0396346D02*
X0243332Y0395111D01*
X0242097Y0393897D02*
X0239628Y0393897D01*
X0240863Y0395111D02*
X0240863Y0395729D01*
X0240863Y0397567D02*
X0240863Y0399418D01*
X0241480Y0400036D01*
X0243332Y0400036D01*
X0243332Y0397567D02*
X0240863Y0397567D01*
X0242097Y0393897D02*
X0243332Y0392663D01*
X0242097Y0391428D01*
X0239628Y0391428D01*
X0258128Y0397867D02*
X0260597Y0400336D01*
X0260597Y0397867D01*
X0259980Y0397250D01*
X0258746Y0397250D01*
X0258128Y0397867D01*
X0258128Y0400336D01*
X0258746Y0400953D01*
X0259980Y0400953D01*
X0260597Y0400336D01*
X0268128Y0399719D02*
X0269363Y0400953D01*
X0269363Y0397250D01*
X0270597Y0397250D02*
X0268128Y0397250D01*
X0278128Y0397250D02*
X0280597Y0399719D01*
X0280597Y0400336D01*
X0279980Y0400953D01*
X0278746Y0400953D01*
X0278128Y0400336D01*
X0278128Y0397250D02*
X0280597Y0397250D01*
X0288128Y0397867D02*
X0288746Y0397250D01*
X0289980Y0397250D01*
X0290597Y0397867D01*
X0290597Y0398484D01*
X0289980Y0399102D01*
X0289363Y0399102D01*
X0289980Y0399102D02*
X0290597Y0399719D01*
X0290597Y0400336D01*
X0289980Y0400953D01*
X0288746Y0400953D01*
X0288128Y0400336D01*
X0291581Y0409196D02*
X0292198Y0409196D01*
X0292815Y0409813D01*
X0292815Y0412899D01*
X0290964Y0412899D01*
X0290346Y0412281D01*
X0290346Y0411047D01*
X0290964Y0410430D01*
X0292815Y0410430D01*
X0289132Y0411047D02*
X0289132Y0412281D01*
X0288515Y0412899D01*
X0287280Y0412899D01*
X0286663Y0412281D01*
X0286663Y0411047D01*
X0287280Y0410430D01*
X0288515Y0410430D01*
X0289132Y0411047D01*
X0285442Y0410430D02*
X0284208Y0410430D01*
X0284825Y0410430D02*
X0284825Y0414133D01*
X0284208Y0414133D01*
X0282376Y0412899D02*
X0282993Y0412281D01*
X0282993Y0410430D01*
X0281142Y0410430D01*
X0280525Y0411047D01*
X0281142Y0411664D01*
X0282993Y0411664D01*
X0282376Y0412899D02*
X0281142Y0412899D01*
X0279310Y0412281D02*
X0279310Y0410430D01*
X0279310Y0412281D02*
X0278693Y0412899D01*
X0276842Y0412899D01*
X0276842Y0410430D01*
X0275627Y0410430D02*
X0275627Y0412899D01*
X0274393Y0414133D01*
X0273158Y0412899D01*
X0273158Y0410430D01*
X0273158Y0412281D02*
X0275627Y0412281D01*
X0297713Y0410430D02*
X0298947Y0410430D01*
X0298330Y0410430D02*
X0298330Y0414133D01*
X0297713Y0414133D02*
X0298947Y0414133D01*
X0300168Y0412899D02*
X0302020Y0412899D01*
X0302637Y0412281D01*
X0302637Y0410430D01*
X0300168Y0410430D02*
X0300168Y0412899D01*
X0299980Y0400953D02*
X0298128Y0399102D01*
X0300597Y0399102D01*
X0299980Y0400953D02*
X0299980Y0397250D01*
X0308128Y0397867D02*
X0308746Y0397250D01*
X0309980Y0397250D01*
X0310597Y0397867D01*
X0310597Y0399102D01*
X0309980Y0399719D01*
X0309363Y0399719D01*
X0308128Y0399102D01*
X0308128Y0400953D01*
X0310597Y0400953D01*
X0342478Y0420568D02*
X0343095Y0419951D01*
X0345564Y0419951D01*
X0346181Y0420568D01*
X0346181Y0421802D01*
X0345564Y0422420D01*
X0345564Y0423634D02*
X0344946Y0423634D01*
X0344329Y0424251D01*
X0344329Y0425486D01*
X0344946Y0426103D01*
X0345564Y0426103D01*
X0346181Y0425486D01*
X0346181Y0424251D01*
X0345564Y0423634D01*
X0344329Y0424251D02*
X0343712Y0423634D01*
X0343095Y0423634D01*
X0342478Y0424251D01*
X0342478Y0425486D01*
X0343095Y0426103D01*
X0343712Y0426103D01*
X0344329Y0425486D01*
X0343095Y0422420D02*
X0342478Y0421802D01*
X0342478Y0420568D01*
X0422639Y0425800D02*
X0423256Y0425183D01*
X0425725Y0425183D01*
X0426342Y0425800D01*
X0426342Y0427034D01*
X0425725Y0427652D01*
X0425725Y0428866D02*
X0426342Y0428866D01*
X0425725Y0428866D02*
X0423256Y0431335D01*
X0422639Y0431335D01*
X0422639Y0428866D01*
X0423256Y0427652D02*
X0422639Y0427034D01*
X0422639Y0425800D01*
X0535139Y0425718D02*
X0535756Y0426335D01*
X0538225Y0423866D01*
X0538842Y0424483D01*
X0538842Y0425718D01*
X0538225Y0426335D01*
X0535756Y0426335D01*
X0535139Y0425718D02*
X0535139Y0424483D01*
X0535756Y0423866D01*
X0538225Y0423866D01*
X0538842Y0422652D02*
X0538842Y0420183D01*
X0538842Y0421417D02*
X0535139Y0421417D01*
X0536373Y0420183D01*
X0535756Y0418969D02*
X0535139Y0418351D01*
X0535139Y0417117D01*
X0535756Y0416500D01*
X0538225Y0416500D01*
X0538842Y0417117D01*
X0538842Y0418351D01*
X0538225Y0418969D01*
X0230094Y0412219D02*
X0229477Y0412219D01*
X0228242Y0410984D01*
X0227028Y0410984D02*
X0224559Y0410984D01*
X0224559Y0410367D02*
X0224559Y0411602D01*
X0225176Y0412219D01*
X0226411Y0412219D01*
X0227028Y0411602D01*
X0227028Y0410984D01*
X0226411Y0409750D02*
X0225176Y0409750D01*
X0224559Y0410367D01*
X0223345Y0410367D02*
X0223345Y0412219D01*
X0223345Y0410367D02*
X0222728Y0409750D01*
X0222110Y0410367D01*
X0221493Y0409750D01*
X0220876Y0410367D01*
X0220876Y0412219D01*
X0219662Y0411602D02*
X0219044Y0412219D01*
X0217810Y0412219D01*
X0217193Y0411602D01*
X0217193Y0410367D01*
X0217810Y0409750D01*
X0219044Y0409750D01*
X0219662Y0410367D01*
X0219662Y0411602D01*
X0215978Y0411602D02*
X0215978Y0412836D01*
X0215361Y0413453D01*
X0213510Y0413453D01*
X0213510Y0409750D01*
X0213510Y0410984D02*
X0215361Y0410984D01*
X0215978Y0411602D01*
X0215362Y0420419D02*
X0216596Y0420419D01*
X0217213Y0421036D01*
X0218428Y0420419D02*
X0220896Y0420419D01*
X0219662Y0420419D02*
X0219662Y0424122D01*
X0218428Y0422888D01*
X0217213Y0423505D02*
X0216596Y0424122D01*
X0215362Y0424122D01*
X0214744Y0423505D01*
X0214744Y0421036D01*
X0215362Y0420419D01*
X0228242Y0412219D02*
X0228242Y0409750D01*
X0436678Y0171622D02*
X0436061Y0171005D01*
X0436061Y0168536D01*
X0436678Y0167919D01*
X0437913Y0167919D01*
X0438530Y0168536D01*
X0439744Y0167919D02*
X0442213Y0167919D01*
X0443428Y0167919D02*
X0445896Y0170388D01*
X0445896Y0171005D01*
X0445279Y0171622D01*
X0444045Y0171622D01*
X0443428Y0171005D01*
X0440979Y0171622D02*
X0440979Y0167919D01*
X0443428Y0167919D02*
X0445896Y0167919D01*
X0440979Y0171622D02*
X0439744Y0170388D01*
X0438530Y0171005D02*
X0437913Y0171622D01*
X0436678Y0171622D01*
D11*
X0344362Y0351139D03*
D12*
X0279662Y0436100D02*
X0271662Y0436100D01*
X0270662Y0437100D01*
X0269662Y0436100D01*
X0261662Y0436100D01*
X0260662Y0437100D01*
X0260662Y0445100D01*
X0261662Y0446100D01*
X0269662Y0446100D01*
X0270662Y0445100D01*
X0271662Y0446100D01*
X0279662Y0446100D01*
X0280662Y0445100D01*
X0280662Y0437100D01*
X0279662Y0436100D01*
X0250362Y0436600D02*
X0250362Y0445600D01*
X0220961Y0445600D02*
X0220961Y0436600D01*
X0103248Y0346594D02*
X0095698Y0346594D01*
X0095698Y0340194D02*
X0103248Y0340194D01*
X0103248Y0328927D02*
X0095698Y0328927D01*
X0095698Y0322527D02*
X0103248Y0322527D01*
X0103248Y0311260D02*
X0095698Y0311260D01*
X0095698Y0304860D02*
X0103248Y0304860D01*
X0078401Y0308150D02*
X0076901Y0308150D01*
X0073401Y0308150D01*
X0069901Y0308150D01*
X0068401Y0308150D01*
X0068401Y0313150D01*
X0068401Y0318150D01*
X0069901Y0318150D01*
X0073401Y0318150D01*
X0076901Y0318150D01*
X0078401Y0318150D01*
X0078401Y0313150D01*
X0078401Y0308150D01*
X0076655Y0309354D02*
X0076550Y0309266D01*
X0076443Y0309182D01*
X0076334Y0309100D01*
X0076222Y0309022D01*
X0076109Y0308947D01*
X0075993Y0308874D01*
X0075876Y0308805D01*
X0075757Y0308740D01*
X0075635Y0308677D01*
X0075513Y0308618D01*
X0075388Y0308562D01*
X0075263Y0308510D01*
X0075136Y0308460D01*
X0075007Y0308415D01*
X0074877Y0308373D01*
X0074747Y0308335D01*
X0074615Y0308300D01*
X0074482Y0308268D01*
X0074349Y0308241D01*
X0074215Y0308217D01*
X0074080Y0308196D01*
X0073945Y0308180D01*
X0073809Y0308167D01*
X0073673Y0308157D01*
X0073537Y0308152D01*
X0073401Y0308150D01*
X0076525Y0309246D02*
X0076633Y0309335D01*
X0076738Y0309427D01*
X0076841Y0309522D01*
X0076941Y0309619D01*
X0077039Y0309720D01*
X0077133Y0309823D01*
X0077225Y0309929D01*
X0077314Y0310037D01*
X0077399Y0310148D01*
X0077482Y0310261D01*
X0077561Y0310376D01*
X0077637Y0310494D01*
X0077710Y0310614D01*
X0077779Y0310735D01*
X0077845Y0310859D01*
X0077908Y0310984D01*
X0077966Y0311111D01*
X0078022Y0311240D01*
X0078073Y0311370D01*
X0078121Y0311501D01*
X0078166Y0311634D01*
X0078206Y0311768D01*
X0078243Y0311903D01*
X0078276Y0312039D01*
X0078305Y0312176D01*
X0078331Y0312314D01*
X0078352Y0312452D01*
X0078370Y0312591D01*
X0078383Y0312731D01*
X0078393Y0312870D01*
X0078399Y0313010D01*
X0078401Y0313150D01*
X0076693Y0316913D02*
X0076588Y0317003D01*
X0076480Y0317089D01*
X0076370Y0317173D01*
X0076258Y0317253D01*
X0076143Y0317331D01*
X0076027Y0317405D01*
X0075908Y0317476D01*
X0075788Y0317544D01*
X0075665Y0317608D01*
X0075541Y0317669D01*
X0075415Y0317726D01*
X0075288Y0317780D01*
X0075159Y0317831D01*
X0075029Y0317877D01*
X0074898Y0317921D01*
X0074766Y0317960D01*
X0074632Y0317996D01*
X0074498Y0318028D01*
X0074362Y0318057D01*
X0074226Y0318081D01*
X0074090Y0318102D01*
X0073953Y0318119D01*
X0073815Y0318133D01*
X0073677Y0318142D01*
X0073539Y0318148D01*
X0073401Y0318150D01*
X0076525Y0317054D02*
X0076633Y0316965D01*
X0076738Y0316873D01*
X0076841Y0316778D01*
X0076941Y0316681D01*
X0077039Y0316580D01*
X0077133Y0316477D01*
X0077225Y0316371D01*
X0077314Y0316263D01*
X0077399Y0316152D01*
X0077482Y0316039D01*
X0077561Y0315924D01*
X0077637Y0315806D01*
X0077710Y0315686D01*
X0077779Y0315565D01*
X0077845Y0315441D01*
X0077908Y0315316D01*
X0077966Y0315189D01*
X0078022Y0315060D01*
X0078073Y0314930D01*
X0078121Y0314799D01*
X0078166Y0314666D01*
X0078206Y0314532D01*
X0078243Y0314397D01*
X0078276Y0314261D01*
X0078305Y0314124D01*
X0078331Y0313986D01*
X0078352Y0313848D01*
X0078370Y0313709D01*
X0078383Y0313569D01*
X0078393Y0313430D01*
X0078399Y0313290D01*
X0078401Y0313150D01*
X0076901Y0313150D02*
X0076899Y0313267D01*
X0076893Y0313384D01*
X0076883Y0313500D01*
X0076870Y0313617D01*
X0076852Y0313732D01*
X0076831Y0313847D01*
X0076806Y0313961D01*
X0076777Y0314075D01*
X0076744Y0314187D01*
X0076707Y0314298D01*
X0076667Y0314408D01*
X0076623Y0314516D01*
X0076576Y0314623D01*
X0076525Y0314729D01*
X0076470Y0314832D01*
X0076412Y0314934D01*
X0076351Y0315033D01*
X0076287Y0315131D01*
X0076219Y0315226D01*
X0076148Y0315319D01*
X0076074Y0315410D01*
X0075997Y0315498D01*
X0075917Y0315583D01*
X0075834Y0315666D01*
X0075749Y0315746D01*
X0075661Y0315823D01*
X0075570Y0315897D01*
X0075477Y0315968D01*
X0075382Y0316036D01*
X0075284Y0316100D01*
X0075185Y0316161D01*
X0075083Y0316219D01*
X0074980Y0316274D01*
X0074874Y0316325D01*
X0074767Y0316372D01*
X0074659Y0316416D01*
X0074549Y0316456D01*
X0074438Y0316493D01*
X0074326Y0316526D01*
X0074212Y0316555D01*
X0074098Y0316580D01*
X0073983Y0316601D01*
X0073868Y0316619D01*
X0073751Y0316632D01*
X0073635Y0316642D01*
X0073518Y0316648D01*
X0073401Y0316650D01*
X0070277Y0317054D02*
X0070169Y0316965D01*
X0070064Y0316873D01*
X0069961Y0316778D01*
X0069861Y0316681D01*
X0069763Y0316580D01*
X0069669Y0316477D01*
X0069577Y0316371D01*
X0069488Y0316263D01*
X0069403Y0316152D01*
X0069320Y0316039D01*
X0069241Y0315924D01*
X0069165Y0315806D01*
X0069092Y0315686D01*
X0069023Y0315565D01*
X0068957Y0315441D01*
X0068894Y0315316D01*
X0068836Y0315189D01*
X0068780Y0315060D01*
X0068729Y0314930D01*
X0068681Y0314799D01*
X0068636Y0314666D01*
X0068596Y0314532D01*
X0068559Y0314397D01*
X0068526Y0314261D01*
X0068497Y0314124D01*
X0068471Y0313986D01*
X0068450Y0313848D01*
X0068432Y0313709D01*
X0068419Y0313569D01*
X0068409Y0313430D01*
X0068403Y0313290D01*
X0068401Y0313150D01*
X0070200Y0316991D02*
X0070308Y0317079D01*
X0070419Y0317163D01*
X0070531Y0317244D01*
X0070646Y0317323D01*
X0070763Y0317398D01*
X0070882Y0317469D01*
X0071003Y0317538D01*
X0071126Y0317602D01*
X0071251Y0317664D01*
X0071377Y0317722D01*
X0071505Y0317776D01*
X0071634Y0317827D01*
X0071765Y0317875D01*
X0071897Y0317918D01*
X0072030Y0317958D01*
X0072164Y0317994D01*
X0072299Y0318027D01*
X0072435Y0318056D01*
X0072571Y0318081D01*
X0072709Y0318102D01*
X0072847Y0318119D01*
X0072985Y0318133D01*
X0073124Y0318142D01*
X0073262Y0318148D01*
X0073401Y0318150D01*
X0073401Y0315150D02*
X0073488Y0315148D01*
X0073575Y0315142D01*
X0073662Y0315133D01*
X0073748Y0315120D01*
X0073834Y0315103D01*
X0073919Y0315082D01*
X0074002Y0315057D01*
X0074085Y0315029D01*
X0074166Y0314998D01*
X0074246Y0314963D01*
X0074324Y0314924D01*
X0074401Y0314882D01*
X0074476Y0314837D01*
X0074548Y0314788D01*
X0074619Y0314737D01*
X0074687Y0314682D01*
X0074752Y0314625D01*
X0074815Y0314564D01*
X0074876Y0314501D01*
X0074933Y0314436D01*
X0074988Y0314368D01*
X0075039Y0314297D01*
X0075088Y0314225D01*
X0075133Y0314150D01*
X0075175Y0314073D01*
X0075214Y0313995D01*
X0075249Y0313915D01*
X0075280Y0313834D01*
X0075308Y0313751D01*
X0075333Y0313668D01*
X0075354Y0313583D01*
X0075371Y0313497D01*
X0075384Y0313411D01*
X0075393Y0313324D01*
X0075399Y0313237D01*
X0075401Y0313150D01*
X0073401Y0311150D02*
X0073314Y0311152D01*
X0073227Y0311158D01*
X0073140Y0311167D01*
X0073054Y0311180D01*
X0072968Y0311197D01*
X0072883Y0311218D01*
X0072800Y0311243D01*
X0072717Y0311271D01*
X0072636Y0311302D01*
X0072556Y0311337D01*
X0072478Y0311376D01*
X0072401Y0311418D01*
X0072326Y0311463D01*
X0072254Y0311512D01*
X0072183Y0311563D01*
X0072115Y0311618D01*
X0072050Y0311675D01*
X0071987Y0311736D01*
X0071926Y0311799D01*
X0071869Y0311864D01*
X0071814Y0311932D01*
X0071763Y0312003D01*
X0071714Y0312075D01*
X0071669Y0312150D01*
X0071627Y0312227D01*
X0071588Y0312305D01*
X0071553Y0312385D01*
X0071522Y0312466D01*
X0071494Y0312549D01*
X0071469Y0312632D01*
X0071448Y0312717D01*
X0071431Y0312803D01*
X0071418Y0312889D01*
X0071409Y0312976D01*
X0071403Y0313063D01*
X0071401Y0313150D01*
X0070147Y0309354D02*
X0070252Y0309266D01*
X0070359Y0309182D01*
X0070468Y0309100D01*
X0070580Y0309022D01*
X0070693Y0308947D01*
X0070809Y0308874D01*
X0070926Y0308805D01*
X0071045Y0308740D01*
X0071167Y0308677D01*
X0071289Y0308618D01*
X0071414Y0308562D01*
X0071539Y0308510D01*
X0071666Y0308460D01*
X0071795Y0308415D01*
X0071925Y0308373D01*
X0072055Y0308335D01*
X0072187Y0308300D01*
X0072320Y0308268D01*
X0072453Y0308241D01*
X0072587Y0308217D01*
X0072722Y0308196D01*
X0072857Y0308180D01*
X0072993Y0308167D01*
X0073129Y0308157D01*
X0073265Y0308152D01*
X0073401Y0308150D01*
X0070277Y0309246D02*
X0070169Y0309335D01*
X0070064Y0309427D01*
X0069961Y0309522D01*
X0069861Y0309619D01*
X0069763Y0309720D01*
X0069669Y0309823D01*
X0069577Y0309929D01*
X0069488Y0310037D01*
X0069403Y0310148D01*
X0069320Y0310261D01*
X0069241Y0310376D01*
X0069165Y0310494D01*
X0069092Y0310614D01*
X0069023Y0310735D01*
X0068957Y0310859D01*
X0068894Y0310984D01*
X0068836Y0311111D01*
X0068780Y0311240D01*
X0068729Y0311370D01*
X0068681Y0311501D01*
X0068636Y0311634D01*
X0068596Y0311768D01*
X0068559Y0311903D01*
X0068526Y0312039D01*
X0068497Y0312176D01*
X0068471Y0312314D01*
X0068450Y0312452D01*
X0068432Y0312591D01*
X0068419Y0312731D01*
X0068409Y0312870D01*
X0068403Y0313010D01*
X0068401Y0313150D01*
X0069901Y0313150D02*
X0069903Y0313033D01*
X0069909Y0312916D01*
X0069919Y0312800D01*
X0069932Y0312683D01*
X0069950Y0312568D01*
X0069971Y0312453D01*
X0069996Y0312339D01*
X0070025Y0312225D01*
X0070058Y0312113D01*
X0070095Y0312002D01*
X0070135Y0311892D01*
X0070179Y0311784D01*
X0070226Y0311677D01*
X0070277Y0311571D01*
X0070332Y0311468D01*
X0070390Y0311366D01*
X0070451Y0311267D01*
X0070515Y0311169D01*
X0070583Y0311074D01*
X0070654Y0310981D01*
X0070728Y0310890D01*
X0070805Y0310802D01*
X0070885Y0310717D01*
X0070968Y0310634D01*
X0071053Y0310554D01*
X0071141Y0310477D01*
X0071232Y0310403D01*
X0071325Y0310332D01*
X0071420Y0310264D01*
X0071518Y0310200D01*
X0071617Y0310139D01*
X0071719Y0310081D01*
X0071822Y0310026D01*
X0071928Y0309975D01*
X0072035Y0309928D01*
X0072143Y0309884D01*
X0072253Y0309844D01*
X0072364Y0309807D01*
X0072476Y0309774D01*
X0072590Y0309745D01*
X0072704Y0309720D01*
X0072819Y0309699D01*
X0072934Y0309681D01*
X0073051Y0309668D01*
X0073167Y0309658D01*
X0073284Y0309652D01*
X0073401Y0309650D01*
X0072968Y0326150D02*
X0069468Y0326150D01*
X0067968Y0326150D01*
X0067968Y0331150D01*
X0067968Y0336150D01*
X0069468Y0336150D01*
X0072968Y0336150D01*
X0076468Y0336150D01*
X0077968Y0336150D01*
X0077968Y0331150D01*
X0077968Y0326150D01*
X0076468Y0326150D01*
X0072968Y0326150D01*
X0076092Y0327246D02*
X0076200Y0327335D01*
X0076305Y0327427D01*
X0076408Y0327522D01*
X0076508Y0327619D01*
X0076606Y0327720D01*
X0076700Y0327823D01*
X0076792Y0327929D01*
X0076881Y0328037D01*
X0076966Y0328148D01*
X0077049Y0328261D01*
X0077128Y0328376D01*
X0077204Y0328494D01*
X0077277Y0328614D01*
X0077346Y0328735D01*
X0077412Y0328859D01*
X0077475Y0328984D01*
X0077533Y0329111D01*
X0077589Y0329240D01*
X0077640Y0329370D01*
X0077688Y0329501D01*
X0077733Y0329634D01*
X0077773Y0329768D01*
X0077810Y0329903D01*
X0077843Y0330039D01*
X0077872Y0330176D01*
X0077898Y0330314D01*
X0077919Y0330452D01*
X0077937Y0330591D01*
X0077950Y0330731D01*
X0077960Y0330870D01*
X0077966Y0331010D01*
X0077968Y0331150D01*
X0076222Y0327354D02*
X0076117Y0327266D01*
X0076010Y0327182D01*
X0075901Y0327100D01*
X0075789Y0327022D01*
X0075676Y0326947D01*
X0075560Y0326874D01*
X0075443Y0326805D01*
X0075324Y0326740D01*
X0075202Y0326677D01*
X0075080Y0326618D01*
X0074955Y0326562D01*
X0074830Y0326510D01*
X0074703Y0326460D01*
X0074574Y0326415D01*
X0074444Y0326373D01*
X0074314Y0326335D01*
X0074182Y0326300D01*
X0074049Y0326268D01*
X0073916Y0326241D01*
X0073782Y0326217D01*
X0073647Y0326196D01*
X0073512Y0326180D01*
X0073376Y0326167D01*
X0073240Y0326157D01*
X0073104Y0326152D01*
X0072968Y0326150D01*
X0069844Y0327246D02*
X0069736Y0327335D01*
X0069631Y0327427D01*
X0069528Y0327522D01*
X0069428Y0327619D01*
X0069330Y0327720D01*
X0069236Y0327823D01*
X0069144Y0327929D01*
X0069055Y0328037D01*
X0068970Y0328148D01*
X0068887Y0328261D01*
X0068808Y0328376D01*
X0068732Y0328494D01*
X0068659Y0328614D01*
X0068590Y0328735D01*
X0068524Y0328859D01*
X0068461Y0328984D01*
X0068403Y0329111D01*
X0068347Y0329240D01*
X0068296Y0329370D01*
X0068248Y0329501D01*
X0068203Y0329634D01*
X0068163Y0329768D01*
X0068126Y0329903D01*
X0068093Y0330039D01*
X0068064Y0330176D01*
X0068038Y0330314D01*
X0068017Y0330452D01*
X0067999Y0330591D01*
X0067986Y0330731D01*
X0067976Y0330870D01*
X0067970Y0331010D01*
X0067968Y0331150D01*
X0069767Y0334991D02*
X0069875Y0335079D01*
X0069986Y0335163D01*
X0070098Y0335244D01*
X0070213Y0335323D01*
X0070330Y0335398D01*
X0070449Y0335469D01*
X0070570Y0335538D01*
X0070693Y0335602D01*
X0070818Y0335664D01*
X0070944Y0335722D01*
X0071072Y0335776D01*
X0071201Y0335827D01*
X0071332Y0335875D01*
X0071464Y0335918D01*
X0071597Y0335958D01*
X0071731Y0335994D01*
X0071866Y0336027D01*
X0072002Y0336056D01*
X0072138Y0336081D01*
X0072276Y0336102D01*
X0072414Y0336119D01*
X0072552Y0336133D01*
X0072691Y0336142D01*
X0072829Y0336148D01*
X0072968Y0336150D01*
X0076092Y0335054D02*
X0076200Y0334965D01*
X0076305Y0334873D01*
X0076408Y0334778D01*
X0076508Y0334681D01*
X0076606Y0334580D01*
X0076700Y0334477D01*
X0076792Y0334371D01*
X0076881Y0334263D01*
X0076966Y0334152D01*
X0077049Y0334039D01*
X0077128Y0333924D01*
X0077204Y0333806D01*
X0077277Y0333686D01*
X0077346Y0333565D01*
X0077412Y0333441D01*
X0077475Y0333316D01*
X0077533Y0333189D01*
X0077589Y0333060D01*
X0077640Y0332930D01*
X0077688Y0332799D01*
X0077733Y0332666D01*
X0077773Y0332532D01*
X0077810Y0332397D01*
X0077843Y0332261D01*
X0077872Y0332124D01*
X0077898Y0331986D01*
X0077919Y0331848D01*
X0077937Y0331709D01*
X0077950Y0331569D01*
X0077960Y0331430D01*
X0077966Y0331290D01*
X0077968Y0331150D01*
X0076260Y0334913D02*
X0076155Y0335003D01*
X0076047Y0335089D01*
X0075937Y0335173D01*
X0075825Y0335253D01*
X0075710Y0335331D01*
X0075594Y0335405D01*
X0075475Y0335476D01*
X0075355Y0335544D01*
X0075232Y0335608D01*
X0075108Y0335669D01*
X0074982Y0335726D01*
X0074855Y0335780D01*
X0074726Y0335831D01*
X0074596Y0335877D01*
X0074465Y0335921D01*
X0074333Y0335960D01*
X0074199Y0335996D01*
X0074065Y0336028D01*
X0073929Y0336057D01*
X0073793Y0336081D01*
X0073657Y0336102D01*
X0073520Y0336119D01*
X0073382Y0336133D01*
X0073244Y0336142D01*
X0073106Y0336148D01*
X0072968Y0336150D01*
X0069844Y0335054D02*
X0069736Y0334965D01*
X0069631Y0334873D01*
X0069528Y0334778D01*
X0069428Y0334681D01*
X0069330Y0334580D01*
X0069236Y0334477D01*
X0069144Y0334371D01*
X0069055Y0334263D01*
X0068970Y0334152D01*
X0068887Y0334039D01*
X0068808Y0333924D01*
X0068732Y0333806D01*
X0068659Y0333686D01*
X0068590Y0333565D01*
X0068524Y0333441D01*
X0068461Y0333316D01*
X0068403Y0333189D01*
X0068347Y0333060D01*
X0068296Y0332930D01*
X0068248Y0332799D01*
X0068203Y0332666D01*
X0068163Y0332532D01*
X0068126Y0332397D01*
X0068093Y0332261D01*
X0068064Y0332124D01*
X0068038Y0331986D01*
X0068017Y0331848D01*
X0067999Y0331709D01*
X0067986Y0331569D01*
X0067976Y0331430D01*
X0067970Y0331290D01*
X0067968Y0331150D01*
X0069714Y0327354D02*
X0069819Y0327266D01*
X0069926Y0327182D01*
X0070035Y0327100D01*
X0070147Y0327022D01*
X0070260Y0326947D01*
X0070376Y0326874D01*
X0070493Y0326805D01*
X0070612Y0326740D01*
X0070734Y0326677D01*
X0070856Y0326618D01*
X0070981Y0326562D01*
X0071106Y0326510D01*
X0071233Y0326460D01*
X0071362Y0326415D01*
X0071492Y0326373D01*
X0071622Y0326335D01*
X0071754Y0326300D01*
X0071887Y0326268D01*
X0072020Y0326241D01*
X0072154Y0326217D01*
X0072289Y0326196D01*
X0072424Y0326180D01*
X0072560Y0326167D01*
X0072696Y0326157D01*
X0072832Y0326152D01*
X0072968Y0326150D01*
X0076468Y0331150D02*
X0076466Y0331267D01*
X0076460Y0331384D01*
X0076450Y0331500D01*
X0076437Y0331617D01*
X0076419Y0331732D01*
X0076398Y0331847D01*
X0076373Y0331961D01*
X0076344Y0332075D01*
X0076311Y0332187D01*
X0076274Y0332298D01*
X0076234Y0332408D01*
X0076190Y0332516D01*
X0076143Y0332623D01*
X0076092Y0332729D01*
X0076037Y0332832D01*
X0075979Y0332934D01*
X0075918Y0333033D01*
X0075854Y0333131D01*
X0075786Y0333226D01*
X0075715Y0333319D01*
X0075641Y0333410D01*
X0075564Y0333498D01*
X0075484Y0333583D01*
X0075401Y0333666D01*
X0075316Y0333746D01*
X0075228Y0333823D01*
X0075137Y0333897D01*
X0075044Y0333968D01*
X0074949Y0334036D01*
X0074851Y0334100D01*
X0074752Y0334161D01*
X0074650Y0334219D01*
X0074547Y0334274D01*
X0074441Y0334325D01*
X0074334Y0334372D01*
X0074226Y0334416D01*
X0074116Y0334456D01*
X0074005Y0334493D01*
X0073893Y0334526D01*
X0073779Y0334555D01*
X0073665Y0334580D01*
X0073550Y0334601D01*
X0073435Y0334619D01*
X0073318Y0334632D01*
X0073202Y0334642D01*
X0073085Y0334648D01*
X0072968Y0334650D01*
X0072968Y0333150D02*
X0073055Y0333148D01*
X0073142Y0333142D01*
X0073229Y0333133D01*
X0073315Y0333120D01*
X0073401Y0333103D01*
X0073486Y0333082D01*
X0073569Y0333057D01*
X0073652Y0333029D01*
X0073733Y0332998D01*
X0073813Y0332963D01*
X0073891Y0332924D01*
X0073968Y0332882D01*
X0074043Y0332837D01*
X0074115Y0332788D01*
X0074186Y0332737D01*
X0074254Y0332682D01*
X0074319Y0332625D01*
X0074382Y0332564D01*
X0074443Y0332501D01*
X0074500Y0332436D01*
X0074555Y0332368D01*
X0074606Y0332297D01*
X0074655Y0332225D01*
X0074700Y0332150D01*
X0074742Y0332073D01*
X0074781Y0331995D01*
X0074816Y0331915D01*
X0074847Y0331834D01*
X0074875Y0331751D01*
X0074900Y0331668D01*
X0074921Y0331583D01*
X0074938Y0331497D01*
X0074951Y0331411D01*
X0074960Y0331324D01*
X0074966Y0331237D01*
X0074968Y0331150D01*
X0072968Y0329150D02*
X0072881Y0329152D01*
X0072794Y0329158D01*
X0072707Y0329167D01*
X0072621Y0329180D01*
X0072535Y0329197D01*
X0072450Y0329218D01*
X0072367Y0329243D01*
X0072284Y0329271D01*
X0072203Y0329302D01*
X0072123Y0329337D01*
X0072045Y0329376D01*
X0071968Y0329418D01*
X0071893Y0329463D01*
X0071821Y0329512D01*
X0071750Y0329563D01*
X0071682Y0329618D01*
X0071617Y0329675D01*
X0071554Y0329736D01*
X0071493Y0329799D01*
X0071436Y0329864D01*
X0071381Y0329932D01*
X0071330Y0330003D01*
X0071281Y0330075D01*
X0071236Y0330150D01*
X0071194Y0330227D01*
X0071155Y0330305D01*
X0071120Y0330385D01*
X0071089Y0330466D01*
X0071061Y0330549D01*
X0071036Y0330632D01*
X0071015Y0330717D01*
X0070998Y0330803D01*
X0070985Y0330889D01*
X0070976Y0330976D01*
X0070970Y0331063D01*
X0070968Y0331150D01*
X0069468Y0331150D02*
X0069470Y0331033D01*
X0069476Y0330916D01*
X0069486Y0330800D01*
X0069499Y0330683D01*
X0069517Y0330568D01*
X0069538Y0330453D01*
X0069563Y0330339D01*
X0069592Y0330225D01*
X0069625Y0330113D01*
X0069662Y0330002D01*
X0069702Y0329892D01*
X0069746Y0329784D01*
X0069793Y0329677D01*
X0069844Y0329571D01*
X0069899Y0329468D01*
X0069957Y0329366D01*
X0070018Y0329267D01*
X0070082Y0329169D01*
X0070150Y0329074D01*
X0070221Y0328981D01*
X0070295Y0328890D01*
X0070372Y0328802D01*
X0070452Y0328717D01*
X0070535Y0328634D01*
X0070620Y0328554D01*
X0070708Y0328477D01*
X0070799Y0328403D01*
X0070892Y0328332D01*
X0070987Y0328264D01*
X0071085Y0328200D01*
X0071184Y0328139D01*
X0071286Y0328081D01*
X0071389Y0328026D01*
X0071495Y0327975D01*
X0071602Y0327928D01*
X0071710Y0327884D01*
X0071820Y0327844D01*
X0071931Y0327807D01*
X0072043Y0327774D01*
X0072157Y0327745D01*
X0072271Y0327720D01*
X0072386Y0327699D01*
X0072501Y0327681D01*
X0072618Y0327668D01*
X0072734Y0327658D01*
X0072851Y0327652D01*
X0072968Y0327650D01*
X0072535Y0344150D02*
X0069035Y0344150D01*
X0067535Y0344150D01*
X0067535Y0349150D01*
X0067535Y0354150D01*
X0069035Y0354150D01*
X0072535Y0354150D01*
X0076035Y0354150D01*
X0077535Y0354150D01*
X0077535Y0349150D01*
X0077535Y0344150D01*
X0076035Y0344150D01*
X0072535Y0344150D01*
X0075659Y0345246D02*
X0075767Y0345335D01*
X0075872Y0345427D01*
X0075975Y0345522D01*
X0076075Y0345619D01*
X0076173Y0345720D01*
X0076267Y0345823D01*
X0076359Y0345929D01*
X0076448Y0346037D01*
X0076533Y0346148D01*
X0076616Y0346261D01*
X0076695Y0346376D01*
X0076771Y0346494D01*
X0076844Y0346614D01*
X0076913Y0346735D01*
X0076979Y0346859D01*
X0077042Y0346984D01*
X0077100Y0347111D01*
X0077156Y0347240D01*
X0077207Y0347370D01*
X0077255Y0347501D01*
X0077300Y0347634D01*
X0077340Y0347768D01*
X0077377Y0347903D01*
X0077410Y0348039D01*
X0077439Y0348176D01*
X0077465Y0348314D01*
X0077486Y0348452D01*
X0077504Y0348591D01*
X0077517Y0348731D01*
X0077527Y0348870D01*
X0077533Y0349010D01*
X0077535Y0349150D01*
X0075789Y0345354D02*
X0075684Y0345266D01*
X0075577Y0345182D01*
X0075468Y0345100D01*
X0075356Y0345022D01*
X0075243Y0344947D01*
X0075127Y0344874D01*
X0075010Y0344805D01*
X0074891Y0344740D01*
X0074769Y0344677D01*
X0074647Y0344618D01*
X0074522Y0344562D01*
X0074397Y0344510D01*
X0074270Y0344460D01*
X0074141Y0344415D01*
X0074011Y0344373D01*
X0073881Y0344335D01*
X0073749Y0344300D01*
X0073616Y0344268D01*
X0073483Y0344241D01*
X0073349Y0344217D01*
X0073214Y0344196D01*
X0073079Y0344180D01*
X0072943Y0344167D01*
X0072807Y0344157D01*
X0072671Y0344152D01*
X0072535Y0344150D01*
X0069411Y0345246D02*
X0069303Y0345335D01*
X0069198Y0345427D01*
X0069095Y0345522D01*
X0068995Y0345619D01*
X0068897Y0345720D01*
X0068803Y0345823D01*
X0068711Y0345929D01*
X0068622Y0346037D01*
X0068537Y0346148D01*
X0068454Y0346261D01*
X0068375Y0346376D01*
X0068299Y0346494D01*
X0068226Y0346614D01*
X0068157Y0346735D01*
X0068091Y0346859D01*
X0068028Y0346984D01*
X0067970Y0347111D01*
X0067914Y0347240D01*
X0067863Y0347370D01*
X0067815Y0347501D01*
X0067770Y0347634D01*
X0067730Y0347768D01*
X0067693Y0347903D01*
X0067660Y0348039D01*
X0067631Y0348176D01*
X0067605Y0348314D01*
X0067584Y0348452D01*
X0067566Y0348591D01*
X0067553Y0348731D01*
X0067543Y0348870D01*
X0067537Y0349010D01*
X0067535Y0349150D01*
X0069333Y0352991D02*
X0069441Y0353079D01*
X0069552Y0353163D01*
X0069664Y0353244D01*
X0069779Y0353323D01*
X0069896Y0353398D01*
X0070015Y0353469D01*
X0070136Y0353538D01*
X0070259Y0353602D01*
X0070384Y0353664D01*
X0070510Y0353722D01*
X0070638Y0353776D01*
X0070767Y0353827D01*
X0070898Y0353875D01*
X0071030Y0353918D01*
X0071163Y0353958D01*
X0071297Y0353994D01*
X0071432Y0354027D01*
X0071568Y0354056D01*
X0071704Y0354081D01*
X0071842Y0354102D01*
X0071980Y0354119D01*
X0072118Y0354133D01*
X0072257Y0354142D01*
X0072395Y0354148D01*
X0072534Y0354150D01*
X0075659Y0353054D02*
X0075767Y0352965D01*
X0075872Y0352873D01*
X0075975Y0352778D01*
X0076075Y0352681D01*
X0076173Y0352580D01*
X0076267Y0352477D01*
X0076359Y0352371D01*
X0076448Y0352263D01*
X0076533Y0352152D01*
X0076616Y0352039D01*
X0076695Y0351924D01*
X0076771Y0351806D01*
X0076844Y0351686D01*
X0076913Y0351565D01*
X0076979Y0351441D01*
X0077042Y0351316D01*
X0077100Y0351189D01*
X0077156Y0351060D01*
X0077207Y0350930D01*
X0077255Y0350799D01*
X0077300Y0350666D01*
X0077340Y0350532D01*
X0077377Y0350397D01*
X0077410Y0350261D01*
X0077439Y0350124D01*
X0077465Y0349986D01*
X0077486Y0349848D01*
X0077504Y0349709D01*
X0077517Y0349569D01*
X0077527Y0349430D01*
X0077533Y0349290D01*
X0077535Y0349150D01*
X0075827Y0352913D02*
X0075722Y0353003D01*
X0075614Y0353089D01*
X0075504Y0353173D01*
X0075392Y0353253D01*
X0075277Y0353331D01*
X0075161Y0353405D01*
X0075042Y0353476D01*
X0074922Y0353544D01*
X0074799Y0353608D01*
X0074675Y0353669D01*
X0074549Y0353726D01*
X0074422Y0353780D01*
X0074293Y0353831D01*
X0074163Y0353877D01*
X0074032Y0353921D01*
X0073900Y0353960D01*
X0073766Y0353996D01*
X0073632Y0354028D01*
X0073496Y0354057D01*
X0073360Y0354081D01*
X0073224Y0354102D01*
X0073087Y0354119D01*
X0072949Y0354133D01*
X0072811Y0354142D01*
X0072673Y0354148D01*
X0072535Y0354150D01*
X0069411Y0353054D02*
X0069303Y0352965D01*
X0069198Y0352873D01*
X0069095Y0352778D01*
X0068995Y0352681D01*
X0068897Y0352580D01*
X0068803Y0352477D01*
X0068711Y0352371D01*
X0068622Y0352263D01*
X0068537Y0352152D01*
X0068454Y0352039D01*
X0068375Y0351924D01*
X0068299Y0351806D01*
X0068226Y0351686D01*
X0068157Y0351565D01*
X0068091Y0351441D01*
X0068028Y0351316D01*
X0067970Y0351189D01*
X0067914Y0351060D01*
X0067863Y0350930D01*
X0067815Y0350799D01*
X0067770Y0350666D01*
X0067730Y0350532D01*
X0067693Y0350397D01*
X0067660Y0350261D01*
X0067631Y0350124D01*
X0067605Y0349986D01*
X0067584Y0349848D01*
X0067566Y0349709D01*
X0067553Y0349569D01*
X0067543Y0349430D01*
X0067537Y0349290D01*
X0067535Y0349150D01*
X0069280Y0345354D02*
X0069385Y0345266D01*
X0069492Y0345182D01*
X0069601Y0345100D01*
X0069713Y0345022D01*
X0069826Y0344947D01*
X0069942Y0344874D01*
X0070059Y0344805D01*
X0070178Y0344740D01*
X0070300Y0344677D01*
X0070422Y0344618D01*
X0070547Y0344562D01*
X0070672Y0344510D01*
X0070799Y0344460D01*
X0070928Y0344415D01*
X0071058Y0344373D01*
X0071188Y0344335D01*
X0071320Y0344300D01*
X0071453Y0344268D01*
X0071586Y0344241D01*
X0071720Y0344217D01*
X0071855Y0344196D01*
X0071990Y0344180D01*
X0072126Y0344167D01*
X0072262Y0344157D01*
X0072398Y0344152D01*
X0072534Y0344150D01*
X0076035Y0349150D02*
X0076033Y0349267D01*
X0076027Y0349384D01*
X0076017Y0349500D01*
X0076004Y0349617D01*
X0075986Y0349732D01*
X0075965Y0349847D01*
X0075940Y0349961D01*
X0075911Y0350075D01*
X0075878Y0350187D01*
X0075841Y0350298D01*
X0075801Y0350408D01*
X0075757Y0350516D01*
X0075710Y0350623D01*
X0075659Y0350729D01*
X0075604Y0350832D01*
X0075546Y0350934D01*
X0075485Y0351033D01*
X0075421Y0351131D01*
X0075353Y0351226D01*
X0075282Y0351319D01*
X0075208Y0351410D01*
X0075131Y0351498D01*
X0075051Y0351583D01*
X0074968Y0351666D01*
X0074883Y0351746D01*
X0074795Y0351823D01*
X0074704Y0351897D01*
X0074611Y0351968D01*
X0074516Y0352036D01*
X0074418Y0352100D01*
X0074319Y0352161D01*
X0074217Y0352219D01*
X0074114Y0352274D01*
X0074008Y0352325D01*
X0073901Y0352372D01*
X0073793Y0352416D01*
X0073683Y0352456D01*
X0073572Y0352493D01*
X0073460Y0352526D01*
X0073346Y0352555D01*
X0073232Y0352580D01*
X0073117Y0352601D01*
X0073002Y0352619D01*
X0072885Y0352632D01*
X0072769Y0352642D01*
X0072652Y0352648D01*
X0072535Y0352650D01*
X0072535Y0351150D02*
X0072622Y0351148D01*
X0072709Y0351142D01*
X0072796Y0351133D01*
X0072882Y0351120D01*
X0072968Y0351103D01*
X0073053Y0351082D01*
X0073136Y0351057D01*
X0073219Y0351029D01*
X0073300Y0350998D01*
X0073380Y0350963D01*
X0073458Y0350924D01*
X0073535Y0350882D01*
X0073610Y0350837D01*
X0073682Y0350788D01*
X0073753Y0350737D01*
X0073821Y0350682D01*
X0073886Y0350625D01*
X0073949Y0350564D01*
X0074010Y0350501D01*
X0074067Y0350436D01*
X0074122Y0350368D01*
X0074173Y0350297D01*
X0074222Y0350225D01*
X0074267Y0350150D01*
X0074309Y0350073D01*
X0074348Y0349995D01*
X0074383Y0349915D01*
X0074414Y0349834D01*
X0074442Y0349751D01*
X0074467Y0349668D01*
X0074488Y0349583D01*
X0074505Y0349497D01*
X0074518Y0349411D01*
X0074527Y0349324D01*
X0074533Y0349237D01*
X0074535Y0349150D01*
X0072535Y0347150D02*
X0072448Y0347152D01*
X0072361Y0347158D01*
X0072274Y0347167D01*
X0072188Y0347180D01*
X0072102Y0347197D01*
X0072017Y0347218D01*
X0071934Y0347243D01*
X0071851Y0347271D01*
X0071770Y0347302D01*
X0071690Y0347337D01*
X0071612Y0347376D01*
X0071535Y0347418D01*
X0071460Y0347463D01*
X0071388Y0347512D01*
X0071317Y0347563D01*
X0071249Y0347618D01*
X0071184Y0347675D01*
X0071121Y0347736D01*
X0071060Y0347799D01*
X0071003Y0347864D01*
X0070948Y0347932D01*
X0070897Y0348003D01*
X0070848Y0348075D01*
X0070803Y0348150D01*
X0070761Y0348227D01*
X0070722Y0348305D01*
X0070687Y0348385D01*
X0070656Y0348466D01*
X0070628Y0348549D01*
X0070603Y0348632D01*
X0070582Y0348717D01*
X0070565Y0348803D01*
X0070552Y0348889D01*
X0070543Y0348976D01*
X0070537Y0349063D01*
X0070535Y0349150D01*
X0069035Y0349150D02*
X0069037Y0349033D01*
X0069043Y0348916D01*
X0069053Y0348800D01*
X0069066Y0348683D01*
X0069084Y0348568D01*
X0069105Y0348453D01*
X0069130Y0348339D01*
X0069159Y0348225D01*
X0069192Y0348113D01*
X0069229Y0348002D01*
X0069269Y0347892D01*
X0069313Y0347784D01*
X0069360Y0347677D01*
X0069411Y0347571D01*
X0069466Y0347468D01*
X0069524Y0347366D01*
X0069585Y0347267D01*
X0069649Y0347169D01*
X0069717Y0347074D01*
X0069788Y0346981D01*
X0069862Y0346890D01*
X0069939Y0346802D01*
X0070019Y0346717D01*
X0070102Y0346634D01*
X0070187Y0346554D01*
X0070275Y0346477D01*
X0070366Y0346403D01*
X0070459Y0346332D01*
X0070554Y0346264D01*
X0070652Y0346200D01*
X0070751Y0346139D01*
X0070853Y0346081D01*
X0070956Y0346026D01*
X0071062Y0345975D01*
X0071169Y0345928D01*
X0071277Y0345884D01*
X0071387Y0345844D01*
X0071498Y0345807D01*
X0071610Y0345774D01*
X0071724Y0345745D01*
X0071838Y0345720D01*
X0071953Y0345699D01*
X0072068Y0345681D01*
X0072185Y0345668D01*
X0072301Y0345658D01*
X0072418Y0345652D01*
X0072535Y0345650D01*
X0161862Y0189300D02*
X0169412Y0189300D01*
X0169412Y0182900D02*
X0161862Y0182900D01*
X0141662Y0173900D02*
X0141662Y0170000D01*
X0141662Y0173900D02*
X0137962Y0173900D01*
X0133362Y0173900D02*
X0129662Y0173900D01*
X0129662Y0172300D01*
X0129662Y0170000D01*
X0130761Y0170700D02*
X0130783Y0170763D01*
X0130801Y0170828D01*
X0130815Y0170893D01*
X0130826Y0170959D01*
X0130833Y0171026D01*
X0130836Y0171093D01*
X0130835Y0171160D01*
X0130831Y0171226D01*
X0130823Y0171293D01*
X0130811Y0171359D01*
X0130795Y0171424D01*
X0130776Y0171488D01*
X0130753Y0171551D01*
X0130727Y0171612D01*
X0130697Y0171672D01*
X0130664Y0171730D01*
X0130627Y0171786D01*
X0130588Y0171840D01*
X0130546Y0171892D01*
X0130500Y0171941D01*
X0130452Y0171988D01*
X0130402Y0172032D01*
X0130349Y0172073D01*
X0130294Y0172111D01*
X0130236Y0172145D01*
X0130177Y0172177D01*
X0130117Y0172205D01*
X0130054Y0172229D01*
X0129991Y0172250D01*
X0129926Y0172268D01*
X0129861Y0172281D01*
X0129795Y0172291D01*
X0129728Y0172297D01*
X0129661Y0172300D01*
X0134362Y0168300D02*
X0136962Y0168300D01*
X0155662Y0157300D02*
X0155662Y0144900D01*
X0155664Y0144824D01*
X0155670Y0144748D01*
X0155679Y0144673D01*
X0155693Y0144598D01*
X0155710Y0144524D01*
X0155731Y0144451D01*
X0155755Y0144379D01*
X0155784Y0144308D01*
X0155815Y0144239D01*
X0155850Y0144172D01*
X0155889Y0144107D01*
X0155931Y0144043D01*
X0155976Y0143982D01*
X0156024Y0143923D01*
X0156075Y0143867D01*
X0156129Y0143813D01*
X0156185Y0143762D01*
X0156244Y0143714D01*
X0156305Y0143669D01*
X0156369Y0143627D01*
X0156434Y0143588D01*
X0156501Y0143553D01*
X0156570Y0143522D01*
X0156641Y0143493D01*
X0156713Y0143469D01*
X0156786Y0143448D01*
X0156860Y0143431D01*
X0156935Y0143417D01*
X0157010Y0143408D01*
X0157086Y0143402D01*
X0157162Y0143400D01*
X0174162Y0143400D01*
X0174238Y0143402D01*
X0174314Y0143408D01*
X0174389Y0143417D01*
X0174464Y0143431D01*
X0174538Y0143448D01*
X0174611Y0143469D01*
X0174683Y0143493D01*
X0174754Y0143522D01*
X0174823Y0143553D01*
X0174890Y0143588D01*
X0174955Y0143627D01*
X0175019Y0143669D01*
X0175080Y0143714D01*
X0175139Y0143762D01*
X0175195Y0143813D01*
X0175249Y0143867D01*
X0175300Y0143923D01*
X0175348Y0143982D01*
X0175393Y0144043D01*
X0175435Y0144107D01*
X0175474Y0144172D01*
X0175509Y0144239D01*
X0175540Y0144308D01*
X0175569Y0144379D01*
X0175593Y0144451D01*
X0175614Y0144524D01*
X0175631Y0144598D01*
X0175645Y0144673D01*
X0175654Y0144748D01*
X0175660Y0144824D01*
X0175662Y0144900D01*
X0175662Y0149100D01*
X0175662Y0153100D01*
X0175662Y0157300D01*
X0175660Y0157376D01*
X0175654Y0157452D01*
X0175645Y0157527D01*
X0175631Y0157602D01*
X0175614Y0157676D01*
X0175593Y0157749D01*
X0175569Y0157821D01*
X0175540Y0157892D01*
X0175509Y0157961D01*
X0175474Y0158028D01*
X0175435Y0158093D01*
X0175393Y0158157D01*
X0175348Y0158218D01*
X0175300Y0158277D01*
X0175249Y0158333D01*
X0175195Y0158387D01*
X0175139Y0158438D01*
X0175080Y0158486D01*
X0175019Y0158531D01*
X0174955Y0158573D01*
X0174890Y0158612D01*
X0174823Y0158647D01*
X0174754Y0158678D01*
X0174683Y0158707D01*
X0174611Y0158731D01*
X0174538Y0158752D01*
X0174464Y0158769D01*
X0174389Y0158783D01*
X0174314Y0158792D01*
X0174238Y0158798D01*
X0174162Y0158800D01*
X0157162Y0158800D01*
X0157086Y0158798D01*
X0157010Y0158792D01*
X0156935Y0158783D01*
X0156860Y0158769D01*
X0156786Y0158752D01*
X0156713Y0158731D01*
X0156641Y0158707D01*
X0156570Y0158678D01*
X0156501Y0158647D01*
X0156434Y0158612D01*
X0156369Y0158573D01*
X0156305Y0158531D01*
X0156244Y0158486D01*
X0156185Y0158438D01*
X0156129Y0158387D01*
X0156075Y0158333D01*
X0156024Y0158277D01*
X0155976Y0158218D01*
X0155931Y0158157D01*
X0155889Y0158093D01*
X0155850Y0158028D01*
X0155815Y0157961D01*
X0155784Y0157892D01*
X0155755Y0157821D01*
X0155731Y0157749D01*
X0155710Y0157676D01*
X0155693Y0157602D01*
X0155679Y0157527D01*
X0155670Y0157452D01*
X0155664Y0157376D01*
X0155662Y0157300D01*
X0175662Y0153100D02*
X0175574Y0153098D01*
X0175485Y0153092D01*
X0175397Y0153082D01*
X0175310Y0153069D01*
X0175223Y0153051D01*
X0175137Y0153030D01*
X0175052Y0153005D01*
X0174969Y0152976D01*
X0174886Y0152943D01*
X0174806Y0152907D01*
X0174727Y0152868D01*
X0174649Y0152825D01*
X0174574Y0152778D01*
X0174501Y0152728D01*
X0174430Y0152675D01*
X0174361Y0152619D01*
X0174295Y0152560D01*
X0174232Y0152498D01*
X0174172Y0152434D01*
X0174114Y0152367D01*
X0174060Y0152297D01*
X0174008Y0152225D01*
X0173960Y0152151D01*
X0173915Y0152074D01*
X0173874Y0151996D01*
X0173836Y0151916D01*
X0173802Y0151835D01*
X0173771Y0151752D01*
X0173744Y0151667D01*
X0173721Y0151582D01*
X0173702Y0151496D01*
X0173686Y0151408D01*
X0173674Y0151321D01*
X0173666Y0151233D01*
X0173662Y0151144D01*
X0173662Y0151056D01*
X0173666Y0150967D01*
X0173674Y0150879D01*
X0173686Y0150792D01*
X0173702Y0150704D01*
X0173721Y0150618D01*
X0173744Y0150533D01*
X0173771Y0150448D01*
X0173802Y0150365D01*
X0173836Y0150284D01*
X0173874Y0150204D01*
X0173915Y0150126D01*
X0173960Y0150049D01*
X0174008Y0149975D01*
X0174060Y0149903D01*
X0174114Y0149833D01*
X0174172Y0149766D01*
X0174232Y0149702D01*
X0174295Y0149640D01*
X0174361Y0149581D01*
X0174430Y0149525D01*
X0174501Y0149472D01*
X0174574Y0149422D01*
X0174649Y0149375D01*
X0174727Y0149332D01*
X0174806Y0149293D01*
X0174886Y0149257D01*
X0174969Y0149224D01*
X0175052Y0149195D01*
X0175137Y0149170D01*
X0175223Y0149149D01*
X0175310Y0149131D01*
X0175397Y0149118D01*
X0175485Y0149108D01*
X0175574Y0149102D01*
X0175662Y0149100D01*
X0175522Y0124227D02*
X0167972Y0124227D01*
X0167972Y0117827D02*
X0175522Y0117827D01*
X0181201Y0110961D02*
X0181201Y0103411D01*
X0187601Y0103411D02*
X0187601Y0110961D01*
X0188301Y0095206D02*
X0195851Y0095206D01*
X0195851Y0088806D02*
X0188301Y0088806D01*
X0162342Y0089725D02*
X0162342Y0100925D01*
X0157142Y0100925D01*
X0157142Y0089725D01*
X0162342Y0089725D01*
X0138995Y0094725D02*
X0138995Y0105925D01*
X0133795Y0105925D01*
X0133795Y0094725D01*
X0138995Y0094725D01*
X0145801Y0108973D02*
X0153351Y0108973D01*
X0153351Y0115373D02*
X0145801Y0115373D01*
X0133862Y0117300D02*
X0133862Y0124850D01*
X0127462Y0124850D02*
X0127462Y0117300D01*
X0121362Y0107350D02*
X0121362Y0099800D01*
X0114962Y0099800D02*
X0114962Y0107350D01*
X0099748Y0135260D02*
X0092198Y0135260D01*
X0092198Y0141660D02*
X0099748Y0141660D01*
X0078835Y0143150D02*
X0078835Y0138150D01*
X0078835Y0133150D01*
X0077335Y0133150D01*
X0073835Y0133150D01*
X0070335Y0133150D01*
X0068835Y0133150D01*
X0068835Y0138150D01*
X0068835Y0143150D01*
X0070335Y0143150D01*
X0073835Y0143150D01*
X0077335Y0143150D01*
X0078835Y0143150D01*
X0077089Y0134354D02*
X0076984Y0134266D01*
X0076877Y0134182D01*
X0076768Y0134100D01*
X0076656Y0134022D01*
X0076543Y0133947D01*
X0076427Y0133874D01*
X0076310Y0133805D01*
X0076191Y0133740D01*
X0076069Y0133677D01*
X0075947Y0133618D01*
X0075822Y0133562D01*
X0075697Y0133510D01*
X0075570Y0133460D01*
X0075441Y0133415D01*
X0075311Y0133373D01*
X0075181Y0133335D01*
X0075049Y0133300D01*
X0074916Y0133268D01*
X0074783Y0133241D01*
X0074649Y0133217D01*
X0074514Y0133196D01*
X0074379Y0133180D01*
X0074243Y0133167D01*
X0074107Y0133157D01*
X0073971Y0133152D01*
X0073835Y0133150D01*
X0076959Y0134246D02*
X0077067Y0134335D01*
X0077172Y0134427D01*
X0077275Y0134522D01*
X0077375Y0134619D01*
X0077473Y0134720D01*
X0077567Y0134823D01*
X0077659Y0134929D01*
X0077748Y0135037D01*
X0077833Y0135148D01*
X0077916Y0135261D01*
X0077995Y0135376D01*
X0078071Y0135494D01*
X0078144Y0135614D01*
X0078213Y0135735D01*
X0078279Y0135859D01*
X0078342Y0135984D01*
X0078400Y0136111D01*
X0078456Y0136240D01*
X0078507Y0136370D01*
X0078555Y0136501D01*
X0078600Y0136634D01*
X0078640Y0136768D01*
X0078677Y0136903D01*
X0078710Y0137039D01*
X0078739Y0137176D01*
X0078765Y0137314D01*
X0078786Y0137452D01*
X0078804Y0137591D01*
X0078817Y0137731D01*
X0078827Y0137870D01*
X0078833Y0138010D01*
X0078835Y0138150D01*
X0077127Y0141913D02*
X0077022Y0142003D01*
X0076914Y0142089D01*
X0076804Y0142173D01*
X0076692Y0142253D01*
X0076577Y0142331D01*
X0076461Y0142405D01*
X0076342Y0142476D01*
X0076222Y0142544D01*
X0076099Y0142608D01*
X0075975Y0142669D01*
X0075849Y0142726D01*
X0075722Y0142780D01*
X0075593Y0142831D01*
X0075463Y0142877D01*
X0075332Y0142921D01*
X0075200Y0142960D01*
X0075066Y0142996D01*
X0074932Y0143028D01*
X0074796Y0143057D01*
X0074660Y0143081D01*
X0074524Y0143102D01*
X0074387Y0143119D01*
X0074249Y0143133D01*
X0074111Y0143142D01*
X0073973Y0143148D01*
X0073835Y0143150D01*
X0076959Y0142054D02*
X0077067Y0141965D01*
X0077172Y0141873D01*
X0077275Y0141778D01*
X0077375Y0141681D01*
X0077473Y0141580D01*
X0077567Y0141477D01*
X0077659Y0141371D01*
X0077748Y0141263D01*
X0077833Y0141152D01*
X0077916Y0141039D01*
X0077995Y0140924D01*
X0078071Y0140806D01*
X0078144Y0140686D01*
X0078213Y0140565D01*
X0078279Y0140441D01*
X0078342Y0140316D01*
X0078400Y0140189D01*
X0078456Y0140060D01*
X0078507Y0139930D01*
X0078555Y0139799D01*
X0078600Y0139666D01*
X0078640Y0139532D01*
X0078677Y0139397D01*
X0078710Y0139261D01*
X0078739Y0139124D01*
X0078765Y0138986D01*
X0078786Y0138848D01*
X0078804Y0138709D01*
X0078817Y0138569D01*
X0078827Y0138430D01*
X0078833Y0138290D01*
X0078835Y0138150D01*
X0077335Y0138150D02*
X0077333Y0138267D01*
X0077327Y0138384D01*
X0077317Y0138500D01*
X0077304Y0138617D01*
X0077286Y0138732D01*
X0077265Y0138847D01*
X0077240Y0138961D01*
X0077211Y0139075D01*
X0077178Y0139187D01*
X0077141Y0139298D01*
X0077101Y0139408D01*
X0077057Y0139516D01*
X0077010Y0139623D01*
X0076959Y0139729D01*
X0076904Y0139832D01*
X0076846Y0139934D01*
X0076785Y0140033D01*
X0076721Y0140131D01*
X0076653Y0140226D01*
X0076582Y0140319D01*
X0076508Y0140410D01*
X0076431Y0140498D01*
X0076351Y0140583D01*
X0076268Y0140666D01*
X0076183Y0140746D01*
X0076095Y0140823D01*
X0076004Y0140897D01*
X0075911Y0140968D01*
X0075816Y0141036D01*
X0075718Y0141100D01*
X0075619Y0141161D01*
X0075517Y0141219D01*
X0075414Y0141274D01*
X0075308Y0141325D01*
X0075201Y0141372D01*
X0075093Y0141416D01*
X0074983Y0141456D01*
X0074872Y0141493D01*
X0074760Y0141526D01*
X0074646Y0141555D01*
X0074532Y0141580D01*
X0074417Y0141601D01*
X0074302Y0141619D01*
X0074185Y0141632D01*
X0074069Y0141642D01*
X0073952Y0141648D01*
X0073835Y0141650D01*
X0070711Y0142054D02*
X0070603Y0141965D01*
X0070498Y0141873D01*
X0070395Y0141778D01*
X0070295Y0141681D01*
X0070197Y0141580D01*
X0070103Y0141477D01*
X0070011Y0141371D01*
X0069922Y0141263D01*
X0069837Y0141152D01*
X0069754Y0141039D01*
X0069675Y0140924D01*
X0069599Y0140806D01*
X0069526Y0140686D01*
X0069457Y0140565D01*
X0069391Y0140441D01*
X0069328Y0140316D01*
X0069270Y0140189D01*
X0069214Y0140060D01*
X0069163Y0139930D01*
X0069115Y0139799D01*
X0069070Y0139666D01*
X0069030Y0139532D01*
X0068993Y0139397D01*
X0068960Y0139261D01*
X0068931Y0139124D01*
X0068905Y0138986D01*
X0068884Y0138848D01*
X0068866Y0138709D01*
X0068853Y0138569D01*
X0068843Y0138430D01*
X0068837Y0138290D01*
X0068835Y0138150D01*
X0070633Y0141991D02*
X0070741Y0142079D01*
X0070852Y0142163D01*
X0070964Y0142244D01*
X0071079Y0142323D01*
X0071196Y0142398D01*
X0071315Y0142469D01*
X0071436Y0142538D01*
X0071559Y0142602D01*
X0071684Y0142664D01*
X0071810Y0142722D01*
X0071938Y0142776D01*
X0072067Y0142827D01*
X0072198Y0142875D01*
X0072330Y0142918D01*
X0072463Y0142958D01*
X0072597Y0142994D01*
X0072732Y0143027D01*
X0072868Y0143056D01*
X0073004Y0143081D01*
X0073142Y0143102D01*
X0073280Y0143119D01*
X0073418Y0143133D01*
X0073557Y0143142D01*
X0073695Y0143148D01*
X0073834Y0143150D01*
X0073835Y0140150D02*
X0073922Y0140148D01*
X0074009Y0140142D01*
X0074096Y0140133D01*
X0074182Y0140120D01*
X0074268Y0140103D01*
X0074353Y0140082D01*
X0074436Y0140057D01*
X0074519Y0140029D01*
X0074600Y0139998D01*
X0074680Y0139963D01*
X0074758Y0139924D01*
X0074835Y0139882D01*
X0074910Y0139837D01*
X0074982Y0139788D01*
X0075053Y0139737D01*
X0075121Y0139682D01*
X0075186Y0139625D01*
X0075249Y0139564D01*
X0075310Y0139501D01*
X0075367Y0139436D01*
X0075422Y0139368D01*
X0075473Y0139297D01*
X0075522Y0139225D01*
X0075567Y0139150D01*
X0075609Y0139073D01*
X0075648Y0138995D01*
X0075683Y0138915D01*
X0075714Y0138834D01*
X0075742Y0138751D01*
X0075767Y0138668D01*
X0075788Y0138583D01*
X0075805Y0138497D01*
X0075818Y0138411D01*
X0075827Y0138324D01*
X0075833Y0138237D01*
X0075835Y0138150D01*
X0073835Y0136150D02*
X0073748Y0136152D01*
X0073661Y0136158D01*
X0073574Y0136167D01*
X0073488Y0136180D01*
X0073402Y0136197D01*
X0073317Y0136218D01*
X0073234Y0136243D01*
X0073151Y0136271D01*
X0073070Y0136302D01*
X0072990Y0136337D01*
X0072912Y0136376D01*
X0072835Y0136418D01*
X0072760Y0136463D01*
X0072688Y0136512D01*
X0072617Y0136563D01*
X0072549Y0136618D01*
X0072484Y0136675D01*
X0072421Y0136736D01*
X0072360Y0136799D01*
X0072303Y0136864D01*
X0072248Y0136932D01*
X0072197Y0137003D01*
X0072148Y0137075D01*
X0072103Y0137150D01*
X0072061Y0137227D01*
X0072022Y0137305D01*
X0071987Y0137385D01*
X0071956Y0137466D01*
X0071928Y0137549D01*
X0071903Y0137632D01*
X0071882Y0137717D01*
X0071865Y0137803D01*
X0071852Y0137889D01*
X0071843Y0137976D01*
X0071837Y0138063D01*
X0071835Y0138150D01*
X0070580Y0134354D02*
X0070685Y0134266D01*
X0070792Y0134182D01*
X0070901Y0134100D01*
X0071013Y0134022D01*
X0071126Y0133947D01*
X0071242Y0133874D01*
X0071359Y0133805D01*
X0071478Y0133740D01*
X0071600Y0133677D01*
X0071722Y0133618D01*
X0071847Y0133562D01*
X0071972Y0133510D01*
X0072099Y0133460D01*
X0072228Y0133415D01*
X0072358Y0133373D01*
X0072488Y0133335D01*
X0072620Y0133300D01*
X0072753Y0133268D01*
X0072886Y0133241D01*
X0073020Y0133217D01*
X0073155Y0133196D01*
X0073290Y0133180D01*
X0073426Y0133167D01*
X0073562Y0133157D01*
X0073698Y0133152D01*
X0073834Y0133150D01*
X0070711Y0134246D02*
X0070603Y0134335D01*
X0070498Y0134427D01*
X0070395Y0134522D01*
X0070295Y0134619D01*
X0070197Y0134720D01*
X0070103Y0134823D01*
X0070011Y0134929D01*
X0069922Y0135037D01*
X0069837Y0135148D01*
X0069754Y0135261D01*
X0069675Y0135376D01*
X0069599Y0135494D01*
X0069526Y0135614D01*
X0069457Y0135735D01*
X0069391Y0135859D01*
X0069328Y0135984D01*
X0069270Y0136111D01*
X0069214Y0136240D01*
X0069163Y0136370D01*
X0069115Y0136501D01*
X0069070Y0136634D01*
X0069030Y0136768D01*
X0068993Y0136903D01*
X0068960Y0137039D01*
X0068931Y0137176D01*
X0068905Y0137314D01*
X0068884Y0137452D01*
X0068866Y0137591D01*
X0068853Y0137731D01*
X0068843Y0137870D01*
X0068837Y0138010D01*
X0068835Y0138150D01*
X0070335Y0138150D02*
X0070337Y0138033D01*
X0070343Y0137916D01*
X0070353Y0137800D01*
X0070366Y0137683D01*
X0070384Y0137568D01*
X0070405Y0137453D01*
X0070430Y0137339D01*
X0070459Y0137225D01*
X0070492Y0137113D01*
X0070529Y0137002D01*
X0070569Y0136892D01*
X0070613Y0136784D01*
X0070660Y0136677D01*
X0070711Y0136571D01*
X0070766Y0136468D01*
X0070824Y0136366D01*
X0070885Y0136267D01*
X0070949Y0136169D01*
X0071017Y0136074D01*
X0071088Y0135981D01*
X0071162Y0135890D01*
X0071239Y0135802D01*
X0071319Y0135717D01*
X0071402Y0135634D01*
X0071487Y0135554D01*
X0071575Y0135477D01*
X0071666Y0135403D01*
X0071759Y0135332D01*
X0071854Y0135264D01*
X0071952Y0135200D01*
X0072051Y0135139D01*
X0072153Y0135081D01*
X0072256Y0135026D01*
X0072362Y0134975D01*
X0072469Y0134928D01*
X0072577Y0134884D01*
X0072687Y0134844D01*
X0072798Y0134807D01*
X0072910Y0134774D01*
X0073024Y0134745D01*
X0073138Y0134720D01*
X0073253Y0134699D01*
X0073368Y0134681D01*
X0073485Y0134668D01*
X0073601Y0134658D01*
X0073718Y0134652D01*
X0073835Y0134650D01*
X0127462Y0142350D02*
X0127462Y0149900D01*
X0133862Y0149900D02*
X0133862Y0142350D01*
X0407462Y0144900D02*
X0407462Y0137350D01*
X0413862Y0137350D02*
X0413862Y0144900D01*
X0457462Y0144900D02*
X0457462Y0137350D01*
X0463862Y0137350D02*
X0463862Y0144900D01*
X0487462Y0144850D02*
X0487462Y0137300D01*
X0493862Y0137300D02*
X0493862Y0144850D01*
X0521162Y0176399D02*
X0530162Y0176399D01*
X0530162Y0205801D02*
X0521162Y0205801D01*
X0526912Y0222900D02*
X0534462Y0222900D01*
X0534462Y0229300D02*
X0526912Y0229300D01*
X0473862Y0199850D02*
X0473862Y0192300D01*
X0467462Y0192300D02*
X0467462Y0199850D01*
X0501862Y0096800D02*
X0509412Y0096800D01*
X0509412Y0090400D02*
X0501862Y0090400D01*
X0621162Y0206399D02*
X0630162Y0206399D01*
X0630162Y0235801D02*
X0621162Y0235801D01*
X0675662Y0233600D02*
X0675662Y0228600D01*
X0675662Y0193600D01*
X0675662Y0188600D01*
X0675662Y0153600D01*
X0675662Y0148600D01*
X0675662Y0133600D01*
X0675662Y0128600D01*
X0675662Y0118600D01*
X0675662Y0106100D01*
X0685662Y0106100D01*
X0691962Y0099800D01*
X0691962Y0086100D01*
X0698162Y0086100D01*
X0698162Y0096100D01*
X0720662Y0096100D01*
X0720662Y0446100D01*
X0698162Y0446100D01*
X0698162Y0456100D01*
X0691962Y0456100D01*
X0691962Y0441100D01*
X0686962Y0436100D01*
X0675662Y0436100D01*
X0675662Y0423600D01*
X0675662Y0413600D01*
X0675662Y0408600D01*
X0675662Y0393600D01*
X0675662Y0388600D01*
X0675662Y0353600D01*
X0675662Y0348600D01*
X0675662Y0313600D01*
X0675662Y0308600D01*
X0675662Y0273600D01*
X0675662Y0268600D01*
X0675662Y0233600D01*
X0681695Y0115804D02*
X0683163Y0115804D01*
X0683897Y0115070D01*
X0683897Y0114336D01*
X0683163Y0113602D01*
X0683897Y0112868D01*
X0683897Y0112134D01*
X0683163Y0111400D01*
X0681695Y0111400D01*
X0680962Y0112134D01*
X0682429Y0113602D02*
X0683163Y0113602D01*
X0680962Y0115070D02*
X0681695Y0115804D01*
X0685565Y0115070D02*
X0686299Y0115804D01*
X0687767Y0115804D01*
X0688501Y0115070D01*
X0688501Y0114336D01*
X0685565Y0111400D01*
X0688501Y0111400D01*
X0675662Y0106100D02*
X0670662Y0106100D01*
X0670662Y0086100D01*
X0691962Y0086100D01*
X0675662Y0096100D02*
X0675664Y0096241D01*
X0675670Y0096382D01*
X0675680Y0096522D01*
X0675694Y0096662D01*
X0675712Y0096802D01*
X0675733Y0096941D01*
X0675759Y0097080D01*
X0675788Y0097218D01*
X0675822Y0097354D01*
X0675859Y0097490D01*
X0675900Y0097625D01*
X0675945Y0097759D01*
X0675994Y0097891D01*
X0676046Y0098022D01*
X0676102Y0098151D01*
X0676162Y0098278D01*
X0676225Y0098404D01*
X0676291Y0098528D01*
X0676362Y0098651D01*
X0676435Y0098771D01*
X0676512Y0098889D01*
X0676592Y0099005D01*
X0676676Y0099118D01*
X0676762Y0099229D01*
X0676852Y0099338D01*
X0676945Y0099444D01*
X0677040Y0099547D01*
X0677139Y0099648D01*
X0677240Y0099746D01*
X0677344Y0099841D01*
X0677451Y0099933D01*
X0677560Y0100022D01*
X0677672Y0100107D01*
X0677786Y0100190D01*
X0677902Y0100270D01*
X0678021Y0100346D01*
X0678142Y0100418D01*
X0678264Y0100488D01*
X0678389Y0100553D01*
X0678515Y0100616D01*
X0678643Y0100674D01*
X0678773Y0100729D01*
X0678904Y0100781D01*
X0679037Y0100828D01*
X0679171Y0100872D01*
X0679306Y0100913D01*
X0679442Y0100949D01*
X0679579Y0100981D01*
X0679717Y0101010D01*
X0679855Y0101035D01*
X0679995Y0101055D01*
X0680135Y0101072D01*
X0680275Y0101085D01*
X0680416Y0101094D01*
X0680556Y0101099D01*
X0680697Y0101100D01*
X0680838Y0101097D01*
X0680979Y0101090D01*
X0681119Y0101079D01*
X0681259Y0101064D01*
X0681399Y0101045D01*
X0681538Y0101023D01*
X0681676Y0100996D01*
X0681814Y0100966D01*
X0681950Y0100931D01*
X0682086Y0100893D01*
X0682220Y0100851D01*
X0682354Y0100805D01*
X0682486Y0100756D01*
X0682616Y0100702D01*
X0682745Y0100645D01*
X0682872Y0100585D01*
X0682998Y0100521D01*
X0683121Y0100453D01*
X0683243Y0100382D01*
X0683363Y0100308D01*
X0683480Y0100230D01*
X0683595Y0100149D01*
X0683708Y0100065D01*
X0683819Y0099978D01*
X0683927Y0099887D01*
X0684032Y0099794D01*
X0684135Y0099697D01*
X0684235Y0099598D01*
X0684332Y0099496D01*
X0684426Y0099391D01*
X0684517Y0099284D01*
X0684605Y0099174D01*
X0684690Y0099062D01*
X0684772Y0098947D01*
X0684851Y0098830D01*
X0684926Y0098711D01*
X0684998Y0098590D01*
X0685066Y0098467D01*
X0685131Y0098342D01*
X0685193Y0098215D01*
X0685250Y0098086D01*
X0685305Y0097956D01*
X0685355Y0097825D01*
X0685402Y0097692D01*
X0685445Y0097558D01*
X0685484Y0097422D01*
X0685519Y0097286D01*
X0685551Y0097149D01*
X0685578Y0097011D01*
X0685602Y0096872D01*
X0685622Y0096732D01*
X0685638Y0096592D01*
X0685650Y0096452D01*
X0685658Y0096311D01*
X0685662Y0096170D01*
X0685662Y0096030D01*
X0685658Y0095889D01*
X0685650Y0095748D01*
X0685638Y0095608D01*
X0685622Y0095468D01*
X0685602Y0095328D01*
X0685578Y0095189D01*
X0685551Y0095051D01*
X0685519Y0094914D01*
X0685484Y0094778D01*
X0685445Y0094642D01*
X0685402Y0094508D01*
X0685355Y0094375D01*
X0685305Y0094244D01*
X0685250Y0094114D01*
X0685193Y0093985D01*
X0685131Y0093858D01*
X0685066Y0093733D01*
X0684998Y0093610D01*
X0684926Y0093489D01*
X0684851Y0093370D01*
X0684772Y0093253D01*
X0684690Y0093138D01*
X0684605Y0093026D01*
X0684517Y0092916D01*
X0684426Y0092809D01*
X0684332Y0092704D01*
X0684235Y0092602D01*
X0684135Y0092503D01*
X0684032Y0092406D01*
X0683927Y0092313D01*
X0683819Y0092222D01*
X0683708Y0092135D01*
X0683595Y0092051D01*
X0683480Y0091970D01*
X0683363Y0091892D01*
X0683243Y0091818D01*
X0683121Y0091747D01*
X0682998Y0091679D01*
X0682872Y0091615D01*
X0682745Y0091555D01*
X0682616Y0091498D01*
X0682486Y0091444D01*
X0682354Y0091395D01*
X0682220Y0091349D01*
X0682086Y0091307D01*
X0681950Y0091269D01*
X0681814Y0091234D01*
X0681676Y0091204D01*
X0681538Y0091177D01*
X0681399Y0091155D01*
X0681259Y0091136D01*
X0681119Y0091121D01*
X0680979Y0091110D01*
X0680838Y0091103D01*
X0680697Y0091100D01*
X0680556Y0091101D01*
X0680416Y0091106D01*
X0680275Y0091115D01*
X0680135Y0091128D01*
X0679995Y0091145D01*
X0679855Y0091165D01*
X0679717Y0091190D01*
X0679579Y0091219D01*
X0679442Y0091251D01*
X0679306Y0091287D01*
X0679171Y0091328D01*
X0679037Y0091372D01*
X0678904Y0091419D01*
X0678773Y0091471D01*
X0678643Y0091526D01*
X0678515Y0091584D01*
X0678389Y0091647D01*
X0678264Y0091712D01*
X0678142Y0091782D01*
X0678021Y0091854D01*
X0677902Y0091930D01*
X0677786Y0092010D01*
X0677672Y0092093D01*
X0677560Y0092178D01*
X0677451Y0092267D01*
X0677344Y0092359D01*
X0677240Y0092454D01*
X0677139Y0092552D01*
X0677040Y0092653D01*
X0676945Y0092756D01*
X0676852Y0092862D01*
X0676762Y0092971D01*
X0676676Y0093082D01*
X0676592Y0093195D01*
X0676512Y0093311D01*
X0676435Y0093429D01*
X0676362Y0093549D01*
X0676291Y0093672D01*
X0676225Y0093796D01*
X0676162Y0093922D01*
X0676102Y0094049D01*
X0676046Y0094178D01*
X0675994Y0094309D01*
X0675945Y0094441D01*
X0675900Y0094575D01*
X0675859Y0094710D01*
X0675822Y0094846D01*
X0675788Y0094982D01*
X0675759Y0095120D01*
X0675733Y0095259D01*
X0675712Y0095398D01*
X0675694Y0095538D01*
X0675680Y0095678D01*
X0675670Y0095818D01*
X0675664Y0095959D01*
X0675662Y0096100D01*
X0624412Y0352900D02*
X0616862Y0352900D01*
X0616862Y0359300D02*
X0624412Y0359300D01*
X0619462Y0377900D02*
X0611912Y0377900D01*
X0611912Y0384300D02*
X0619462Y0384300D01*
X0614462Y0397900D02*
X0606912Y0397900D01*
X0606912Y0404300D02*
X0614462Y0404300D01*
X0614412Y0417900D02*
X0606862Y0417900D01*
X0606862Y0424300D02*
X0614412Y0424300D01*
X0650962Y0432134D02*
X0651695Y0431400D01*
X0653163Y0431400D01*
X0653897Y0432134D01*
X0650962Y0432134D02*
X0650962Y0435070D01*
X0651695Y0435804D01*
X0653163Y0435804D01*
X0653897Y0435070D01*
X0658462Y0435804D02*
X0658462Y0431400D01*
X0660663Y0431400D01*
X0661397Y0432134D01*
X0661397Y0432868D01*
X0660663Y0433602D01*
X0658462Y0433602D01*
X0660663Y0433602D02*
X0661397Y0434336D01*
X0661397Y0435070D01*
X0660663Y0435804D01*
X0658462Y0435804D01*
X0665962Y0434336D02*
X0665962Y0431400D01*
X0665962Y0433602D02*
X0668897Y0433602D01*
X0668897Y0434336D02*
X0668897Y0431400D01*
X0668897Y0434336D02*
X0667429Y0435804D01*
X0665962Y0434336D01*
X0670662Y0436100D02*
X0675662Y0436100D01*
X0670662Y0436100D02*
X0670662Y0456100D01*
X0691962Y0456100D01*
X0675662Y0446100D02*
X0675664Y0446241D01*
X0675670Y0446382D01*
X0675680Y0446522D01*
X0675694Y0446662D01*
X0675712Y0446802D01*
X0675733Y0446941D01*
X0675759Y0447080D01*
X0675788Y0447218D01*
X0675822Y0447354D01*
X0675859Y0447490D01*
X0675900Y0447625D01*
X0675945Y0447759D01*
X0675994Y0447891D01*
X0676046Y0448022D01*
X0676102Y0448151D01*
X0676162Y0448278D01*
X0676225Y0448404D01*
X0676291Y0448528D01*
X0676362Y0448651D01*
X0676435Y0448771D01*
X0676512Y0448889D01*
X0676592Y0449005D01*
X0676676Y0449118D01*
X0676762Y0449229D01*
X0676852Y0449338D01*
X0676945Y0449444D01*
X0677040Y0449547D01*
X0677139Y0449648D01*
X0677240Y0449746D01*
X0677344Y0449841D01*
X0677451Y0449933D01*
X0677560Y0450022D01*
X0677672Y0450107D01*
X0677786Y0450190D01*
X0677902Y0450270D01*
X0678021Y0450346D01*
X0678142Y0450418D01*
X0678264Y0450488D01*
X0678389Y0450553D01*
X0678515Y0450616D01*
X0678643Y0450674D01*
X0678773Y0450729D01*
X0678904Y0450781D01*
X0679037Y0450828D01*
X0679171Y0450872D01*
X0679306Y0450913D01*
X0679442Y0450949D01*
X0679579Y0450981D01*
X0679717Y0451010D01*
X0679855Y0451035D01*
X0679995Y0451055D01*
X0680135Y0451072D01*
X0680275Y0451085D01*
X0680416Y0451094D01*
X0680556Y0451099D01*
X0680697Y0451100D01*
X0680838Y0451097D01*
X0680979Y0451090D01*
X0681119Y0451079D01*
X0681259Y0451064D01*
X0681399Y0451045D01*
X0681538Y0451023D01*
X0681676Y0450996D01*
X0681814Y0450966D01*
X0681950Y0450931D01*
X0682086Y0450893D01*
X0682220Y0450851D01*
X0682354Y0450805D01*
X0682486Y0450756D01*
X0682616Y0450702D01*
X0682745Y0450645D01*
X0682872Y0450585D01*
X0682998Y0450521D01*
X0683121Y0450453D01*
X0683243Y0450382D01*
X0683363Y0450308D01*
X0683480Y0450230D01*
X0683595Y0450149D01*
X0683708Y0450065D01*
X0683819Y0449978D01*
X0683927Y0449887D01*
X0684032Y0449794D01*
X0684135Y0449697D01*
X0684235Y0449598D01*
X0684332Y0449496D01*
X0684426Y0449391D01*
X0684517Y0449284D01*
X0684605Y0449174D01*
X0684690Y0449062D01*
X0684772Y0448947D01*
X0684851Y0448830D01*
X0684926Y0448711D01*
X0684998Y0448590D01*
X0685066Y0448467D01*
X0685131Y0448342D01*
X0685193Y0448215D01*
X0685250Y0448086D01*
X0685305Y0447956D01*
X0685355Y0447825D01*
X0685402Y0447692D01*
X0685445Y0447558D01*
X0685484Y0447422D01*
X0685519Y0447286D01*
X0685551Y0447149D01*
X0685578Y0447011D01*
X0685602Y0446872D01*
X0685622Y0446732D01*
X0685638Y0446592D01*
X0685650Y0446452D01*
X0685658Y0446311D01*
X0685662Y0446170D01*
X0685662Y0446030D01*
X0685658Y0445889D01*
X0685650Y0445748D01*
X0685638Y0445608D01*
X0685622Y0445468D01*
X0685602Y0445328D01*
X0685578Y0445189D01*
X0685551Y0445051D01*
X0685519Y0444914D01*
X0685484Y0444778D01*
X0685445Y0444642D01*
X0685402Y0444508D01*
X0685355Y0444375D01*
X0685305Y0444244D01*
X0685250Y0444114D01*
X0685193Y0443985D01*
X0685131Y0443858D01*
X0685066Y0443733D01*
X0684998Y0443610D01*
X0684926Y0443489D01*
X0684851Y0443370D01*
X0684772Y0443253D01*
X0684690Y0443138D01*
X0684605Y0443026D01*
X0684517Y0442916D01*
X0684426Y0442809D01*
X0684332Y0442704D01*
X0684235Y0442602D01*
X0684135Y0442503D01*
X0684032Y0442406D01*
X0683927Y0442313D01*
X0683819Y0442222D01*
X0683708Y0442135D01*
X0683595Y0442051D01*
X0683480Y0441970D01*
X0683363Y0441892D01*
X0683243Y0441818D01*
X0683121Y0441747D01*
X0682998Y0441679D01*
X0682872Y0441615D01*
X0682745Y0441555D01*
X0682616Y0441498D01*
X0682486Y0441444D01*
X0682354Y0441395D01*
X0682220Y0441349D01*
X0682086Y0441307D01*
X0681950Y0441269D01*
X0681814Y0441234D01*
X0681676Y0441204D01*
X0681538Y0441177D01*
X0681399Y0441155D01*
X0681259Y0441136D01*
X0681119Y0441121D01*
X0680979Y0441110D01*
X0680838Y0441103D01*
X0680697Y0441100D01*
X0680556Y0441101D01*
X0680416Y0441106D01*
X0680275Y0441115D01*
X0680135Y0441128D01*
X0679995Y0441145D01*
X0679855Y0441165D01*
X0679717Y0441190D01*
X0679579Y0441219D01*
X0679442Y0441251D01*
X0679306Y0441287D01*
X0679171Y0441328D01*
X0679037Y0441372D01*
X0678904Y0441419D01*
X0678773Y0441471D01*
X0678643Y0441526D01*
X0678515Y0441584D01*
X0678389Y0441647D01*
X0678264Y0441712D01*
X0678142Y0441782D01*
X0678021Y0441854D01*
X0677902Y0441930D01*
X0677786Y0442010D01*
X0677672Y0442093D01*
X0677560Y0442178D01*
X0677451Y0442267D01*
X0677344Y0442359D01*
X0677240Y0442454D01*
X0677139Y0442552D01*
X0677040Y0442653D01*
X0676945Y0442756D01*
X0676852Y0442862D01*
X0676762Y0442971D01*
X0676676Y0443082D01*
X0676592Y0443195D01*
X0676512Y0443311D01*
X0676435Y0443429D01*
X0676362Y0443549D01*
X0676291Y0443672D01*
X0676225Y0443796D01*
X0676162Y0443922D01*
X0676102Y0444049D01*
X0676046Y0444178D01*
X0675994Y0444309D01*
X0675945Y0444441D01*
X0675900Y0444575D01*
X0675859Y0444710D01*
X0675822Y0444846D01*
X0675788Y0444982D01*
X0675759Y0445120D01*
X0675733Y0445259D01*
X0675712Y0445398D01*
X0675694Y0445538D01*
X0675680Y0445678D01*
X0675670Y0445818D01*
X0675664Y0445959D01*
X0675662Y0446100D01*
X0682429Y0430804D02*
X0682429Y0426400D01*
X0680962Y0426400D02*
X0683897Y0426400D01*
X0680962Y0429336D02*
X0682429Y0430804D01*
X0570162Y0440801D02*
X0561162Y0440801D01*
X0561162Y0411399D02*
X0570162Y0411399D01*
X0508862Y0412300D02*
X0508862Y0419850D01*
X0502462Y0419850D02*
X0502462Y0412300D01*
X0502462Y0437300D02*
X0502462Y0444850D01*
X0508862Y0444850D02*
X0508862Y0437300D01*
X0473862Y0409900D02*
X0473862Y0402350D01*
X0467462Y0402350D02*
X0467462Y0409900D01*
X0465362Y0436600D02*
X0465362Y0445600D01*
X0435961Y0445600D02*
X0435961Y0436600D01*
D13*
X0588850Y0320785D02*
X0588850Y0281415D01*
X0612473Y0281415D01*
X0612473Y0320785D01*
X0588850Y0320785D01*
X0391634Y0199814D02*
X0391636Y0199911D01*
X0391642Y0200009D01*
X0391652Y0200106D01*
X0391666Y0200202D01*
X0391683Y0200298D01*
X0391705Y0200393D01*
X0391730Y0200487D01*
X0391759Y0200580D01*
X0391792Y0200672D01*
X0391829Y0200762D01*
X0391869Y0200851D01*
X0391913Y0200938D01*
X0391960Y0201024D01*
X0392011Y0201107D01*
X0392065Y0201188D01*
X0392122Y0201267D01*
X0392183Y0201343D01*
X0392246Y0201417D01*
X0392313Y0201489D01*
X0392382Y0201557D01*
X0392454Y0201623D01*
X0392529Y0201686D01*
X0392606Y0201745D01*
X0392685Y0201802D01*
X0392767Y0201855D01*
X0392851Y0201905D01*
X0392936Y0201951D01*
X0393024Y0201994D01*
X0393113Y0202034D01*
X0393204Y0202069D01*
X0393296Y0202101D01*
X0393389Y0202130D01*
X0393483Y0202154D01*
X0393579Y0202175D01*
X0393675Y0202191D01*
X0393771Y0202204D01*
X0393869Y0202213D01*
X0393966Y0202218D01*
X0394063Y0202219D01*
X0394161Y0202216D01*
X0394258Y0202209D01*
X0394355Y0202198D01*
X0394451Y0202183D01*
X0394547Y0202165D01*
X0394642Y0202142D01*
X0394736Y0202116D01*
X0394828Y0202086D01*
X0394920Y0202052D01*
X0395010Y0202014D01*
X0395098Y0201973D01*
X0395185Y0201929D01*
X0395270Y0201880D01*
X0395352Y0201829D01*
X0395433Y0201774D01*
X0395511Y0201716D01*
X0395587Y0201655D01*
X0395660Y0201590D01*
X0395731Y0201523D01*
X0395799Y0201453D01*
X0395864Y0201381D01*
X0395926Y0201305D01*
X0395985Y0201228D01*
X0396040Y0201148D01*
X0396093Y0201065D01*
X0396142Y0200981D01*
X0396187Y0200895D01*
X0396229Y0200807D01*
X0396268Y0200717D01*
X0396303Y0200626D01*
X0396334Y0200534D01*
X0396361Y0200440D01*
X0396384Y0200346D01*
X0396404Y0200250D01*
X0396420Y0200154D01*
X0396432Y0200057D01*
X0396440Y0199960D01*
X0396444Y0199863D01*
X0396444Y0199765D01*
X0396440Y0199668D01*
X0396432Y0199571D01*
X0396420Y0199474D01*
X0396404Y0199378D01*
X0396384Y0199282D01*
X0396361Y0199188D01*
X0396334Y0199094D01*
X0396303Y0199002D01*
X0396268Y0198911D01*
X0396229Y0198821D01*
X0396187Y0198733D01*
X0396142Y0198647D01*
X0396093Y0198563D01*
X0396040Y0198480D01*
X0395985Y0198400D01*
X0395926Y0198323D01*
X0395864Y0198247D01*
X0395799Y0198175D01*
X0395731Y0198105D01*
X0395660Y0198038D01*
X0395587Y0197973D01*
X0395511Y0197912D01*
X0395433Y0197854D01*
X0395352Y0197799D01*
X0395270Y0197748D01*
X0395185Y0197699D01*
X0395098Y0197655D01*
X0395010Y0197614D01*
X0394920Y0197576D01*
X0394828Y0197542D01*
X0394736Y0197512D01*
X0394642Y0197486D01*
X0394547Y0197463D01*
X0394451Y0197445D01*
X0394355Y0197430D01*
X0394258Y0197419D01*
X0394161Y0197412D01*
X0394063Y0197409D01*
X0393966Y0197410D01*
X0393869Y0197415D01*
X0393771Y0197424D01*
X0393675Y0197437D01*
X0393579Y0197453D01*
X0393483Y0197474D01*
X0393389Y0197498D01*
X0393296Y0197527D01*
X0393204Y0197559D01*
X0393113Y0197594D01*
X0393024Y0197634D01*
X0392936Y0197677D01*
X0392851Y0197723D01*
X0392767Y0197773D01*
X0392685Y0197826D01*
X0392606Y0197883D01*
X0392529Y0197942D01*
X0392454Y0198005D01*
X0392382Y0198071D01*
X0392313Y0198139D01*
X0392246Y0198211D01*
X0392183Y0198285D01*
X0392122Y0198361D01*
X0392065Y0198440D01*
X0392011Y0198521D01*
X0391960Y0198604D01*
X0391913Y0198690D01*
X0391869Y0198777D01*
X0391829Y0198866D01*
X0391792Y0198956D01*
X0391759Y0199048D01*
X0391730Y0199141D01*
X0391705Y0199235D01*
X0391683Y0199330D01*
X0391666Y0199426D01*
X0391652Y0199522D01*
X0391642Y0199619D01*
X0391636Y0199717D01*
X0391634Y0199814D01*
X0181912Y0156498D02*
X0181912Y0154997D01*
X0181161Y0154246D01*
X0181161Y0152645D02*
X0181912Y0151894D01*
X0181912Y0150393D01*
X0181161Y0149642D01*
X0178158Y0149642D01*
X0177408Y0150393D01*
X0177408Y0151894D01*
X0178158Y0152645D01*
X0178158Y0154246D02*
X0177408Y0154997D01*
X0177408Y0156498D01*
X0178158Y0157249D01*
X0178909Y0157249D01*
X0179660Y0156498D01*
X0180410Y0157249D01*
X0181161Y0157249D01*
X0181912Y0156498D01*
X0179660Y0156498D02*
X0179660Y0155747D01*
X0181912Y0148074D02*
X0181912Y0146573D01*
X0181912Y0147323D02*
X0177408Y0147323D01*
X0177408Y0146573D02*
X0177408Y0148074D01*
X0261662Y0447850D02*
X0262413Y0447850D01*
X0263163Y0448601D01*
X0263163Y0452354D01*
X0262413Y0452354D02*
X0263914Y0452354D01*
X0265515Y0452354D02*
X0267767Y0452354D01*
X0268518Y0451603D01*
X0268518Y0450102D01*
X0267767Y0449351D01*
X0265515Y0449351D01*
X0265515Y0447850D02*
X0265515Y0452354D01*
X0270119Y0450853D02*
X0271621Y0452354D01*
X0271621Y0447850D01*
X0273122Y0447850D02*
X0270119Y0447850D01*
X0261662Y0447850D02*
X0260912Y0448601D01*
D14*
X0265662Y0441100D03*
X0275662Y0441100D03*
D15*
X0141662Y0173900D02*
X0136662Y0173900D01*
X0136662Y0176300D01*
X0134662Y0176300D01*
X0134662Y0173900D01*
X0129662Y0173900D01*
X0129662Y0172300D01*
X0129662Y0169900D01*
X0129662Y0168300D01*
X0130962Y0168300D01*
X0130962Y0165900D01*
X0132862Y0165900D01*
X0132862Y0168300D01*
X0138462Y0168300D01*
X0138462Y0165900D01*
X0140362Y0165900D01*
X0140362Y0168300D01*
X0138462Y0168300D01*
X0140362Y0168300D02*
X0141662Y0168300D01*
X0141662Y0173900D01*
X0136662Y0173900D02*
X0134662Y0173900D01*
X0129662Y0172300D02*
X0129731Y0172298D01*
X0129799Y0172292D01*
X0129867Y0172282D01*
X0129934Y0172269D01*
X0130000Y0172251D01*
X0130065Y0172230D01*
X0130129Y0172205D01*
X0130191Y0172177D01*
X0130252Y0172145D01*
X0130311Y0172110D01*
X0130367Y0172071D01*
X0130422Y0172029D01*
X0130473Y0171984D01*
X0130523Y0171936D01*
X0130569Y0171886D01*
X0130612Y0171833D01*
X0130653Y0171777D01*
X0130690Y0171720D01*
X0130723Y0171660D01*
X0130754Y0171598D01*
X0130780Y0171535D01*
X0130803Y0171471D01*
X0130823Y0171405D01*
X0130838Y0171338D01*
X0130850Y0171271D01*
X0130858Y0171203D01*
X0130862Y0171134D01*
X0130862Y0171066D01*
X0130858Y0170997D01*
X0130850Y0170929D01*
X0130838Y0170862D01*
X0130823Y0170795D01*
X0130803Y0170729D01*
X0130780Y0170665D01*
X0130754Y0170602D01*
X0130723Y0170540D01*
X0130690Y0170480D01*
X0130653Y0170423D01*
X0130612Y0170367D01*
X0130569Y0170314D01*
X0130523Y0170264D01*
X0130473Y0170216D01*
X0130422Y0170171D01*
X0130367Y0170129D01*
X0130311Y0170090D01*
X0130252Y0170055D01*
X0130191Y0170023D01*
X0130129Y0169995D01*
X0130065Y0169970D01*
X0130000Y0169949D01*
X0129934Y0169931D01*
X0129867Y0169918D01*
X0129799Y0169908D01*
X0129731Y0169902D01*
X0129662Y0169900D01*
X0130962Y0168300D02*
X0132862Y0168300D01*
D16*
X0125262Y0170388D02*
X0125262Y0165450D01*
X0120324Y0170388D01*
X0119090Y0170388D01*
X0117855Y0169154D01*
X0117855Y0166685D01*
X0119090Y0165450D01*
X0117855Y0162838D02*
X0124027Y0162838D01*
X0125262Y0161603D01*
X0125262Y0159134D01*
X0124027Y0157900D01*
X0117855Y0157900D01*
X0102099Y0155383D02*
X0099343Y0155383D01*
X0102099Y0155383D02*
X0102099Y0163651D01*
X0102099Y0182549D02*
X0102099Y0190817D01*
X0059973Y0190817D01*
X0059973Y0155383D01*
X0080839Y0155383D01*
X0059973Y0155383D02*
X0048555Y0155383D01*
X0048555Y0190817D01*
X0059973Y0190817D01*
X0196151Y0109598D02*
X0204025Y0109598D01*
X0200088Y0113626D01*
X0196151Y0109598D01*
X0214953Y0089633D02*
X0214953Y0205067D01*
X0382620Y0205067D01*
X0382620Y0089633D01*
X0214953Y0089633D01*
X0474126Y0167006D02*
X0484953Y0167006D01*
X0496370Y0167006D01*
X0507197Y0167006D01*
X0507197Y0199486D01*
X0501488Y0205194D01*
X0496370Y0205194D01*
X0484953Y0205194D01*
X0479835Y0205194D01*
X0474126Y0199486D01*
X0474126Y0167006D01*
X0485150Y0171730D02*
X0485503Y0171600D01*
X0485858Y0171478D01*
X0486217Y0171365D01*
X0486578Y0171261D01*
X0486941Y0171166D01*
X0487307Y0171079D01*
X0487675Y0171002D01*
X0488044Y0170933D01*
X0488415Y0170874D01*
X0488788Y0170824D01*
X0489161Y0170782D01*
X0489536Y0170750D01*
X0489911Y0170727D01*
X0490286Y0170714D01*
X0490662Y0170709D01*
X0491038Y0170714D01*
X0491413Y0170727D01*
X0491788Y0170750D01*
X0492163Y0170782D01*
X0492536Y0170824D01*
X0492909Y0170874D01*
X0493280Y0170933D01*
X0493649Y0171002D01*
X0494017Y0171079D01*
X0494383Y0171166D01*
X0494746Y0171261D01*
X0495107Y0171365D01*
X0495466Y0171478D01*
X0495821Y0171600D01*
X0496174Y0171730D01*
X0496174Y0200470D02*
X0495821Y0200600D01*
X0495466Y0200722D01*
X0495107Y0200835D01*
X0494746Y0200939D01*
X0494383Y0201034D01*
X0494017Y0201121D01*
X0493649Y0201198D01*
X0493280Y0201267D01*
X0492909Y0201326D01*
X0492536Y0201376D01*
X0492163Y0201418D01*
X0491788Y0201450D01*
X0491413Y0201473D01*
X0491038Y0201486D01*
X0490662Y0201491D01*
X0490286Y0201486D01*
X0489911Y0201473D01*
X0489536Y0201450D01*
X0489161Y0201418D01*
X0488788Y0201376D01*
X0488415Y0201326D01*
X0488044Y0201267D01*
X0487675Y0201198D01*
X0487307Y0201121D01*
X0486941Y0201034D01*
X0486578Y0200939D01*
X0486217Y0200835D01*
X0485858Y0200722D01*
X0485503Y0200600D01*
X0485150Y0200470D01*
X0496174Y0200470D02*
X0496522Y0200332D01*
X0496866Y0200185D01*
X0497207Y0200030D01*
X0497544Y0199867D01*
X0497877Y0199695D01*
X0498206Y0199515D01*
X0498530Y0199328D01*
X0498850Y0199133D01*
X0499164Y0198929D01*
X0499474Y0198719D01*
X0499778Y0198501D01*
X0500077Y0198275D01*
X0500371Y0198042D01*
X0500659Y0197803D01*
X0500940Y0197556D01*
X0501216Y0197302D01*
X0501485Y0197042D01*
X0501749Y0196776D01*
X0502005Y0196503D01*
X0502255Y0196224D01*
X0502498Y0195939D01*
X0502734Y0195648D01*
X0502962Y0195351D01*
X0503184Y0195049D01*
X0503398Y0194742D01*
X0503604Y0194429D01*
X0503803Y0194112D01*
X0503994Y0193790D01*
X0504177Y0193463D01*
X0504353Y0193132D01*
X0504520Y0192797D01*
X0504678Y0192458D01*
X0504829Y0192115D01*
X0504971Y0191768D01*
X0505105Y0191419D01*
X0505230Y0191066D01*
X0505346Y0190710D01*
X0505454Y0190351D01*
X0505553Y0189990D01*
X0505644Y0189626D01*
X0505725Y0189261D01*
X0505797Y0188893D01*
X0505861Y0188524D01*
X0505915Y0188154D01*
X0505961Y0187782D01*
X0505997Y0187409D01*
X0506025Y0187036D01*
X0506043Y0186662D01*
X0506052Y0186287D01*
X0506052Y0185913D01*
X0506043Y0185538D01*
X0506025Y0185164D01*
X0505997Y0184791D01*
X0505961Y0184418D01*
X0505915Y0184046D01*
X0505861Y0183676D01*
X0505797Y0183307D01*
X0505725Y0182939D01*
X0505644Y0182574D01*
X0505553Y0182210D01*
X0505454Y0181849D01*
X0505346Y0181490D01*
X0505230Y0181134D01*
X0505105Y0180781D01*
X0504971Y0180432D01*
X0504829Y0180085D01*
X0504678Y0179742D01*
X0504520Y0179403D01*
X0504353Y0179068D01*
X0504177Y0178737D01*
X0503994Y0178410D01*
X0503803Y0178088D01*
X0503604Y0177771D01*
X0503398Y0177458D01*
X0503184Y0177151D01*
X0502962Y0176849D01*
X0502734Y0176552D01*
X0502498Y0176261D01*
X0502255Y0175976D01*
X0502005Y0175697D01*
X0501749Y0175424D01*
X0501485Y0175158D01*
X0501216Y0174898D01*
X0500940Y0174644D01*
X0500659Y0174397D01*
X0500371Y0174158D01*
X0500077Y0173925D01*
X0499778Y0173699D01*
X0499474Y0173481D01*
X0499164Y0173271D01*
X0498850Y0173067D01*
X0498530Y0172872D01*
X0498206Y0172685D01*
X0497877Y0172505D01*
X0497544Y0172333D01*
X0497207Y0172170D01*
X0496866Y0172015D01*
X0496522Y0171868D01*
X0496174Y0171730D01*
X0485150Y0171730D02*
X0484802Y0171868D01*
X0484458Y0172015D01*
X0484117Y0172170D01*
X0483780Y0172333D01*
X0483447Y0172505D01*
X0483118Y0172685D01*
X0482794Y0172872D01*
X0482474Y0173067D01*
X0482160Y0173271D01*
X0481850Y0173481D01*
X0481546Y0173699D01*
X0481247Y0173925D01*
X0480953Y0174158D01*
X0480665Y0174397D01*
X0480384Y0174644D01*
X0480108Y0174898D01*
X0479839Y0175158D01*
X0479575Y0175424D01*
X0479319Y0175697D01*
X0479069Y0175976D01*
X0478826Y0176261D01*
X0478590Y0176552D01*
X0478362Y0176849D01*
X0478140Y0177151D01*
X0477926Y0177458D01*
X0477720Y0177771D01*
X0477521Y0178088D01*
X0477330Y0178410D01*
X0477147Y0178737D01*
X0476971Y0179068D01*
X0476804Y0179403D01*
X0476646Y0179742D01*
X0476495Y0180085D01*
X0476353Y0180432D01*
X0476219Y0180781D01*
X0476094Y0181134D01*
X0475978Y0181490D01*
X0475870Y0181849D01*
X0475771Y0182210D01*
X0475680Y0182574D01*
X0475599Y0182939D01*
X0475527Y0183307D01*
X0475463Y0183676D01*
X0475409Y0184046D01*
X0475363Y0184418D01*
X0475327Y0184791D01*
X0475299Y0185164D01*
X0475281Y0185538D01*
X0475272Y0185913D01*
X0475272Y0186287D01*
X0475281Y0186662D01*
X0475299Y0187036D01*
X0475327Y0187409D01*
X0475363Y0187782D01*
X0475409Y0188154D01*
X0475463Y0188524D01*
X0475527Y0188893D01*
X0475599Y0189261D01*
X0475680Y0189626D01*
X0475771Y0189990D01*
X0475870Y0190351D01*
X0475978Y0190710D01*
X0476094Y0191066D01*
X0476219Y0191419D01*
X0476353Y0191768D01*
X0476495Y0192115D01*
X0476646Y0192458D01*
X0476804Y0192797D01*
X0476971Y0193132D01*
X0477147Y0193463D01*
X0477330Y0193790D01*
X0477521Y0194112D01*
X0477720Y0194429D01*
X0477926Y0194742D01*
X0478140Y0195049D01*
X0478362Y0195351D01*
X0478590Y0195648D01*
X0478826Y0195939D01*
X0479069Y0196224D01*
X0479319Y0196503D01*
X0479575Y0196776D01*
X0479839Y0197042D01*
X0480108Y0197302D01*
X0480384Y0197556D01*
X0480665Y0197803D01*
X0480953Y0198042D01*
X0481247Y0198275D01*
X0481546Y0198501D01*
X0481850Y0198719D01*
X0482160Y0198929D01*
X0482474Y0199133D01*
X0482794Y0199328D01*
X0483118Y0199515D01*
X0483447Y0199695D01*
X0483780Y0199867D01*
X0484117Y0200030D01*
X0484458Y0200185D01*
X0484802Y0200332D01*
X0485150Y0200470D01*
X0517020Y0205242D02*
X0517020Y0176998D01*
X0519303Y0176998D01*
X0517020Y0176998D02*
X0534303Y0176998D01*
X0532020Y0176998D01*
X0534303Y0176998D02*
X0534303Y0205242D01*
X0532020Y0205242D01*
X0534303Y0205242D02*
X0517020Y0205242D01*
X0519303Y0205242D01*
X0523614Y0201139D02*
X0527709Y0201139D01*
X0525662Y0199131D02*
X0525662Y0203265D01*
X0582394Y0186100D02*
X0586421Y0182163D01*
X0586421Y0190037D01*
X0582394Y0186100D01*
X0586421Y0165037D02*
X0586421Y0157163D01*
X0582394Y0161100D01*
X0586421Y0165037D01*
X0586421Y0140037D02*
X0582394Y0136100D01*
X0586421Y0132163D01*
X0586421Y0140037D01*
X0586421Y0115037D02*
X0586421Y0107163D01*
X0582394Y0111100D01*
X0586421Y0115037D01*
X0541292Y0105651D02*
X0541292Y0131451D01*
X0527292Y0131451D01*
X0527292Y0105651D01*
X0541292Y0105651D01*
X0536660Y0148403D02*
X0536660Y0156277D01*
X0540687Y0152340D01*
X0536660Y0148403D01*
X0617020Y0206958D02*
X0619303Y0206958D01*
X0617020Y0206958D02*
X0617020Y0235202D01*
X0619303Y0235202D01*
X0617020Y0235202D02*
X0634303Y0235202D01*
X0632020Y0235202D01*
X0634303Y0235202D02*
X0634303Y0206958D01*
X0632020Y0206958D01*
X0634303Y0206958D02*
X0617020Y0206958D01*
X0623614Y0211061D02*
X0627709Y0211061D01*
X0625662Y0213069D02*
X0625662Y0208935D01*
X0574303Y0411998D02*
X0557020Y0411998D01*
X0559303Y0411998D01*
X0557020Y0411998D02*
X0557020Y0440242D01*
X0559303Y0440242D01*
X0557020Y0440242D02*
X0574303Y0440242D01*
X0572020Y0440242D01*
X0574303Y0440242D02*
X0574303Y0411998D01*
X0572020Y0411998D01*
X0565662Y0434131D02*
X0565662Y0438265D01*
X0567709Y0436139D02*
X0563614Y0436139D01*
X0464803Y0434742D02*
X0464803Y0432458D01*
X0436559Y0432458D01*
X0436559Y0434742D01*
X0436559Y0432458D02*
X0436559Y0449742D01*
X0436559Y0447458D01*
X0436559Y0449742D02*
X0464803Y0449742D01*
X0464803Y0447458D01*
X0464803Y0449742D02*
X0464803Y0432458D01*
X0460701Y0439053D02*
X0460701Y0443147D01*
X0458693Y0441100D02*
X0462827Y0441100D01*
X0393142Y0443049D02*
X0393142Y0409151D01*
X0391173Y0409151D01*
X0391173Y0443049D01*
X0393142Y0443049D01*
X0391173Y0443049D02*
X0378181Y0443049D01*
X0378181Y0409151D01*
X0391173Y0409151D01*
X0249803Y0432458D02*
X0249803Y0434742D01*
X0249803Y0432458D02*
X0221559Y0432458D01*
X0221559Y0434742D01*
X0221559Y0432458D02*
X0221559Y0449742D01*
X0221559Y0447458D01*
X0221559Y0449742D02*
X0249803Y0449742D01*
X0249803Y0447458D01*
X0249803Y0449742D02*
X0249803Y0432458D01*
X0245701Y0439053D02*
X0245701Y0443147D01*
X0243693Y0441100D02*
X0247827Y0441100D01*
D17*
X0108358Y0101102D02*
X0108358Y0098800D01*
X0112962Y0098800D01*
X0111427Y0098800D02*
X0111427Y0101102D01*
X0110660Y0101869D01*
X0109125Y0101869D01*
X0108358Y0101102D01*
X0109125Y0103404D02*
X0108358Y0104171D01*
X0108358Y0105706D01*
X0109125Y0106473D01*
X0109892Y0106473D01*
X0112962Y0103404D01*
X0112962Y0106473D01*
X0112194Y0108008D02*
X0109125Y0111077D01*
X0112194Y0111077D01*
X0112962Y0110310D01*
X0112962Y0108775D01*
X0112194Y0108008D01*
X0109125Y0108008D01*
X0108358Y0108775D01*
X0108358Y0110310D01*
X0109125Y0111077D01*
X0120858Y0116300D02*
X0120858Y0118602D01*
X0121625Y0119369D01*
X0123160Y0119369D01*
X0123927Y0118602D01*
X0123927Y0116300D01*
X0125462Y0116300D02*
X0120858Y0116300D01*
X0123927Y0117835D02*
X0125462Y0119369D01*
X0125462Y0120904D02*
X0125462Y0123973D01*
X0125462Y0122439D02*
X0120858Y0122439D01*
X0122392Y0120904D01*
X0122392Y0125508D02*
X0121625Y0125508D01*
X0120858Y0126275D01*
X0120858Y0127810D01*
X0121625Y0128577D01*
X0122392Y0128577D01*
X0123160Y0127810D01*
X0123160Y0126275D01*
X0122392Y0125508D01*
X0123160Y0126275D02*
X0123927Y0125508D01*
X0124694Y0125508D01*
X0125462Y0126275D01*
X0125462Y0127810D01*
X0124694Y0128577D01*
X0123927Y0128577D01*
X0123160Y0127810D01*
X0105975Y0128462D02*
X0105975Y0126928D01*
X0105207Y0126160D01*
X0103673Y0126160D01*
X0102905Y0126928D01*
X0102905Y0128462D02*
X0104440Y0129230D01*
X0105207Y0129230D01*
X0105975Y0128462D01*
X0105975Y0130764D02*
X0102905Y0130764D01*
X0102905Y0128462D01*
X0101371Y0129230D02*
X0101371Y0129997D01*
X0100603Y0130764D01*
X0099069Y0130764D01*
X0098302Y0129997D01*
X0096767Y0129997D02*
X0096767Y0128462D01*
X0096000Y0127695D01*
X0093698Y0127695D01*
X0095232Y0127695D02*
X0096767Y0126160D01*
X0098302Y0126160D02*
X0101371Y0129230D01*
X0101371Y0126160D02*
X0098302Y0126160D01*
X0096767Y0129997D02*
X0096000Y0130764D01*
X0093698Y0130764D01*
X0093698Y0126160D01*
X0085335Y0128250D02*
X0085335Y0130652D01*
X0085335Y0131933D02*
X0085335Y0134335D01*
X0085335Y0135616D02*
X0085335Y0137418D01*
X0084734Y0138018D01*
X0082332Y0138018D01*
X0081732Y0137418D01*
X0081732Y0135616D01*
X0085335Y0135616D01*
X0083533Y0133134D02*
X0083533Y0131933D01*
X0081732Y0131933D02*
X0085335Y0131933D01*
X0081732Y0131933D02*
X0081732Y0134335D01*
X0083533Y0139299D02*
X0083533Y0141701D01*
X0081732Y0141101D02*
X0083533Y0139299D01*
X0081732Y0141101D02*
X0085335Y0141101D01*
X0085335Y0128250D02*
X0081732Y0128250D01*
X0111427Y0100335D02*
X0112962Y0101869D01*
X0135879Y0091903D02*
X0136646Y0092671D01*
X0138181Y0092671D01*
X0138948Y0091903D01*
X0138948Y0088834D01*
X0138181Y0088067D01*
X0136646Y0088067D01*
X0135879Y0088834D01*
X0135879Y0091903D01*
X0137414Y0089601D02*
X0138948Y0088067D01*
X0140483Y0088067D02*
X0143552Y0088067D01*
X0142018Y0088067D02*
X0142018Y0092671D01*
X0140483Y0091136D01*
X0140939Y0102373D02*
X0140939Y0106977D01*
X0143241Y0106977D01*
X0144008Y0106210D01*
X0144008Y0104675D01*
X0143241Y0103908D01*
X0140939Y0103908D01*
X0142474Y0103908D02*
X0144008Y0102373D01*
X0145543Y0102373D02*
X0148612Y0102373D01*
X0147077Y0102373D02*
X0147077Y0106977D01*
X0145543Y0105442D01*
X0150147Y0105442D02*
X0150914Y0104675D01*
X0153216Y0104675D01*
X0153216Y0103140D02*
X0153216Y0106210D01*
X0152449Y0106977D01*
X0150914Y0106977D01*
X0150147Y0106210D01*
X0150147Y0105442D01*
X0150147Y0103140D02*
X0150914Y0102373D01*
X0152449Y0102373D01*
X0153216Y0103140D01*
X0167438Y0100723D02*
X0167438Y0099189D01*
X0168205Y0098421D01*
X0168205Y0096887D02*
X0171274Y0096887D01*
X0172042Y0096120D01*
X0172042Y0094585D01*
X0171274Y0093818D01*
X0168205Y0093818D01*
X0167438Y0094585D01*
X0167438Y0096120D01*
X0168205Y0096887D01*
X0170507Y0095352D02*
X0172042Y0096887D01*
X0172042Y0098421D02*
X0168972Y0101491D01*
X0168205Y0101491D01*
X0167438Y0100723D01*
X0172042Y0101491D02*
X0172042Y0098421D01*
X0174597Y0102411D02*
X0174597Y0104713D01*
X0175365Y0105480D01*
X0176899Y0105480D01*
X0177667Y0104713D01*
X0177667Y0102411D01*
X0179201Y0102411D02*
X0174597Y0102411D01*
X0177667Y0103945D02*
X0179201Y0105480D01*
X0179201Y0107015D02*
X0179201Y0110084D01*
X0179201Y0108549D02*
X0174597Y0108549D01*
X0176132Y0107015D01*
X0174597Y0111619D02*
X0174597Y0114688D01*
X0175365Y0114688D01*
X0178434Y0111619D01*
X0179201Y0111619D01*
X0192588Y0119258D02*
X0192588Y0101458D01*
X0207588Y0101458D01*
X0207588Y0119258D01*
X0192588Y0119258D01*
X0179249Y0126994D02*
X0179249Y0127761D01*
X0178482Y0128529D01*
X0176180Y0128529D01*
X0176180Y0126994D01*
X0176947Y0126227D01*
X0178482Y0126227D01*
X0179249Y0126994D01*
X0177715Y0130063D02*
X0176180Y0128529D01*
X0177715Y0130063D02*
X0179249Y0130831D01*
X0173111Y0130831D02*
X0173111Y0126227D01*
X0171576Y0126227D02*
X0174646Y0126227D01*
X0171576Y0129296D02*
X0173111Y0130831D01*
X0170042Y0130063D02*
X0169274Y0130831D01*
X0166972Y0130831D01*
X0166972Y0126227D01*
X0166972Y0127761D02*
X0169274Y0127761D01*
X0170042Y0128529D01*
X0170042Y0130063D01*
X0168507Y0127761D02*
X0170042Y0126227D01*
X0192709Y0140096D02*
X0192709Y0152104D01*
X0198614Y0152104D02*
X0198614Y0140096D01*
X0208784Y0117523D02*
X0208784Y0114454D01*
X0211086Y0114454D01*
X0210319Y0115989D01*
X0210319Y0116756D01*
X0211086Y0117523D01*
X0212621Y0117523D01*
X0213388Y0116756D01*
X0213388Y0115221D01*
X0212621Y0114454D01*
X0212621Y0112919D02*
X0209552Y0112919D01*
X0208784Y0112152D01*
X0208784Y0109850D01*
X0213388Y0109850D01*
X0213388Y0112152D01*
X0212621Y0112919D01*
X0194181Y0086810D02*
X0194181Y0082206D01*
X0192647Y0082206D02*
X0195716Y0082206D01*
X0192647Y0085276D02*
X0194181Y0086810D01*
X0191112Y0086043D02*
X0190345Y0086810D01*
X0188810Y0086810D01*
X0188043Y0086043D01*
X0186508Y0086043D02*
X0185741Y0086810D01*
X0183439Y0086810D01*
X0183439Y0082206D01*
X0183439Y0083741D02*
X0185741Y0083741D01*
X0186508Y0084508D01*
X0186508Y0086043D01*
X0184974Y0083741D02*
X0186508Y0082206D01*
X0188043Y0082206D02*
X0191112Y0085276D01*
X0191112Y0086043D01*
X0191112Y0082206D02*
X0188043Y0082206D01*
X0140462Y0142092D02*
X0135858Y0142092D01*
X0135858Y0144394D01*
X0136625Y0145161D01*
X0138160Y0145161D01*
X0138927Y0144394D01*
X0138927Y0142092D01*
X0138927Y0143627D02*
X0140462Y0145161D01*
X0140462Y0146696D02*
X0140462Y0149765D01*
X0140462Y0148231D02*
X0135858Y0148231D01*
X0137392Y0146696D01*
X0160862Y0191300D02*
X0160862Y0195904D01*
X0163163Y0195904D01*
X0163931Y0195137D01*
X0163931Y0193602D01*
X0163163Y0192835D01*
X0160862Y0192835D01*
X0162396Y0192835D02*
X0163931Y0191300D01*
X0165465Y0191300D02*
X0168535Y0191300D01*
X0167000Y0191300D02*
X0167000Y0195904D01*
X0165465Y0194369D01*
X0170069Y0193602D02*
X0170069Y0195904D01*
X0173139Y0195904D01*
X0172371Y0194369D02*
X0173139Y0193602D01*
X0173139Y0192067D01*
X0172371Y0191300D01*
X0170837Y0191300D01*
X0170069Y0192067D01*
X0170069Y0193602D02*
X0171604Y0194369D01*
X0172371Y0194369D01*
X0221071Y0213689D02*
X0222606Y0213689D01*
X0221839Y0213689D02*
X0221839Y0218293D01*
X0222606Y0218293D02*
X0221071Y0218293D01*
X0224141Y0217526D02*
X0224141Y0214457D01*
X0224908Y0213689D01*
X0226443Y0213689D01*
X0227210Y0214457D01*
X0228745Y0213689D02*
X0231814Y0213689D01*
X0230279Y0213689D02*
X0230279Y0218293D01*
X0228745Y0216759D01*
X0227210Y0217526D02*
X0226443Y0218293D01*
X0224908Y0218293D01*
X0224141Y0217526D01*
X0106207Y0313260D02*
X0106207Y0317864D01*
X0103905Y0315562D01*
X0106975Y0315562D01*
X0102371Y0316330D02*
X0102371Y0317097D01*
X0101603Y0317864D01*
X0100069Y0317864D01*
X0099302Y0317097D01*
X0097767Y0317097D02*
X0097767Y0315562D01*
X0097000Y0314795D01*
X0094698Y0314795D01*
X0096232Y0314795D02*
X0097767Y0313260D01*
X0099302Y0313260D02*
X0102371Y0316330D01*
X0102371Y0313260D02*
X0099302Y0313260D01*
X0097767Y0317097D02*
X0097000Y0317864D01*
X0094698Y0317864D01*
X0094698Y0313260D01*
X0087401Y0314335D02*
X0087401Y0311933D01*
X0083798Y0311933D01*
X0083798Y0314335D01*
X0083798Y0315616D02*
X0083798Y0317418D01*
X0084399Y0318018D01*
X0086801Y0318018D01*
X0087401Y0317418D01*
X0087401Y0315616D01*
X0083798Y0315616D01*
X0085600Y0313134D02*
X0085600Y0311933D01*
X0087401Y0310652D02*
X0087401Y0308250D01*
X0083798Y0308250D01*
X0084399Y0319299D02*
X0083798Y0319900D01*
X0083798Y0321101D01*
X0084399Y0321701D01*
X0084999Y0321701D01*
X0085600Y0321101D01*
X0086200Y0321701D01*
X0086801Y0321701D01*
X0087401Y0321101D01*
X0087401Y0319900D01*
X0086801Y0319299D01*
X0085600Y0320500D02*
X0085600Y0321101D01*
X0086968Y0326250D02*
X0083365Y0326250D01*
X0086968Y0326250D02*
X0086968Y0328652D01*
X0086968Y0329933D02*
X0086968Y0332335D01*
X0086968Y0333616D02*
X0086968Y0335418D01*
X0086367Y0336018D01*
X0083965Y0336018D01*
X0083365Y0335418D01*
X0083365Y0333616D01*
X0086968Y0333616D01*
X0085166Y0331134D02*
X0085166Y0329933D01*
X0083365Y0329933D02*
X0086968Y0329933D01*
X0083365Y0329933D02*
X0083365Y0332335D01*
X0083965Y0337299D02*
X0083365Y0337900D01*
X0083365Y0339101D01*
X0083965Y0339701D01*
X0084566Y0339701D01*
X0086968Y0337299D01*
X0086968Y0339701D01*
X0086535Y0344250D02*
X0086535Y0346652D01*
X0086535Y0347933D02*
X0086535Y0350335D01*
X0086535Y0351616D02*
X0086535Y0353418D01*
X0085934Y0354018D01*
X0083532Y0354018D01*
X0082932Y0353418D01*
X0082932Y0351616D01*
X0086535Y0351616D01*
X0084733Y0349134D02*
X0084733Y0347933D01*
X0082932Y0347933D02*
X0086535Y0347933D01*
X0082932Y0347933D02*
X0082932Y0350335D01*
X0084133Y0355299D02*
X0082932Y0356500D01*
X0086535Y0356500D01*
X0086535Y0355299D02*
X0086535Y0357701D01*
X0094698Y0353197D02*
X0094698Y0348594D01*
X0094698Y0350128D02*
X0097000Y0350128D01*
X0097767Y0350895D01*
X0097767Y0352430D01*
X0097000Y0353197D01*
X0094698Y0353197D01*
X0096232Y0350128D02*
X0097767Y0348594D01*
X0099302Y0348594D02*
X0102371Y0351663D01*
X0102371Y0352430D01*
X0101603Y0353197D01*
X0100069Y0353197D01*
X0099302Y0352430D01*
X0099302Y0348594D02*
X0102371Y0348594D01*
X0103905Y0348594D02*
X0106975Y0351663D01*
X0106975Y0352430D01*
X0106207Y0353197D01*
X0104673Y0353197D01*
X0103905Y0352430D01*
X0103905Y0348594D02*
X0106975Y0348594D01*
X0106207Y0335531D02*
X0106975Y0334763D01*
X0106975Y0333996D01*
X0106207Y0333229D01*
X0106975Y0332462D01*
X0106975Y0331694D01*
X0106207Y0330927D01*
X0104673Y0330927D01*
X0103905Y0331694D01*
X0102371Y0330927D02*
X0099302Y0330927D01*
X0102371Y0333996D01*
X0102371Y0334763D01*
X0101603Y0335531D01*
X0100069Y0335531D01*
X0099302Y0334763D01*
X0097767Y0334763D02*
X0097767Y0333229D01*
X0097000Y0332462D01*
X0094698Y0332462D01*
X0096232Y0332462D02*
X0097767Y0330927D01*
X0094698Y0330927D02*
X0094698Y0335531D01*
X0097000Y0335531D01*
X0097767Y0334763D01*
X0103905Y0334763D02*
X0104673Y0335531D01*
X0106207Y0335531D01*
X0106207Y0333229D02*
X0105440Y0333229D01*
X0086535Y0344250D02*
X0082932Y0344250D01*
X0229658Y0418147D02*
X0241665Y0418147D01*
X0241665Y0424053D02*
X0229658Y0424053D01*
X0231035Y0451300D02*
X0227965Y0451300D01*
X0231035Y0454369D01*
X0231035Y0455137D01*
X0230267Y0455904D01*
X0228733Y0455904D01*
X0227965Y0455137D01*
X0226431Y0455137D02*
X0225663Y0455904D01*
X0224129Y0455904D01*
X0223362Y0455137D01*
X0223362Y0452067D01*
X0224129Y0451300D01*
X0225663Y0451300D01*
X0226431Y0452067D01*
X0347709Y0432104D02*
X0347709Y0420096D01*
X0353614Y0420096D02*
X0353614Y0432104D01*
X0381084Y0407904D02*
X0382619Y0407904D01*
X0381852Y0407904D02*
X0381852Y0403300D01*
X0382619Y0403300D02*
X0381084Y0403300D01*
X0384154Y0404067D02*
X0384154Y0407137D01*
X0384921Y0407904D01*
X0386456Y0407904D01*
X0387223Y0407137D01*
X0388758Y0407137D02*
X0389525Y0407904D01*
X0391060Y0407904D01*
X0391827Y0407137D01*
X0391827Y0406369D01*
X0388758Y0403300D01*
X0391827Y0403300D01*
X0387223Y0404067D02*
X0386456Y0403300D01*
X0384921Y0403300D01*
X0384154Y0404067D01*
X0415209Y0420096D02*
X0415209Y0432104D01*
X0421114Y0432104D02*
X0421114Y0420096D01*
X0439129Y0451300D02*
X0440663Y0451300D01*
X0441431Y0452067D01*
X0442965Y0452067D02*
X0443733Y0451300D01*
X0445267Y0451300D01*
X0446035Y0452067D01*
X0446035Y0452835D01*
X0445267Y0453602D01*
X0442965Y0453602D01*
X0442965Y0452067D01*
X0442965Y0453602D02*
X0444500Y0455137D01*
X0446035Y0455904D01*
X0441431Y0455137D02*
X0440663Y0455904D01*
X0439129Y0455904D01*
X0438362Y0455137D01*
X0438362Y0452067D01*
X0439129Y0451300D01*
X0475858Y0408998D02*
X0478160Y0406696D01*
X0478160Y0409765D01*
X0480462Y0408998D02*
X0475858Y0408998D01*
X0475858Y0403627D02*
X0480462Y0403627D01*
X0480462Y0405161D02*
X0480462Y0402092D01*
X0480462Y0400557D02*
X0478927Y0399023D01*
X0478927Y0399790D02*
X0478927Y0397488D01*
X0480462Y0397488D02*
X0475858Y0397488D01*
X0475858Y0399790D01*
X0476625Y0400557D01*
X0478160Y0400557D01*
X0478927Y0399790D01*
X0477392Y0402092D02*
X0475858Y0403627D01*
X0495858Y0411300D02*
X0495858Y0413602D01*
X0496625Y0414369D01*
X0498160Y0414369D01*
X0498927Y0413602D01*
X0498927Y0411300D01*
X0500462Y0411300D02*
X0495858Y0411300D01*
X0498927Y0412835D02*
X0500462Y0414369D01*
X0500462Y0415904D02*
X0500462Y0418973D01*
X0500462Y0417439D02*
X0495858Y0417439D01*
X0497392Y0415904D01*
X0496625Y0420508D02*
X0495858Y0421275D01*
X0495858Y0422810D01*
X0496625Y0423577D01*
X0497392Y0423577D01*
X0500462Y0420508D01*
X0500462Y0423577D01*
X0500462Y0436300D02*
X0495858Y0436300D01*
X0495858Y0438602D01*
X0496625Y0439369D01*
X0498160Y0439369D01*
X0498927Y0438602D01*
X0498927Y0436300D01*
X0498927Y0437835D02*
X0500462Y0439369D01*
X0500462Y0440904D02*
X0500462Y0443973D01*
X0500462Y0442439D02*
X0495858Y0442439D01*
X0497392Y0440904D01*
X0496625Y0445508D02*
X0495858Y0446275D01*
X0495858Y0447810D01*
X0496625Y0448577D01*
X0497392Y0448577D01*
X0498160Y0447810D01*
X0498927Y0448577D01*
X0499694Y0448577D01*
X0500462Y0447810D01*
X0500462Y0446275D01*
X0499694Y0445508D01*
X0498160Y0447042D02*
X0498160Y0447810D01*
X0527709Y0427104D02*
X0527709Y0415096D01*
X0533614Y0415096D02*
X0533614Y0427104D01*
X0550858Y0420706D02*
X0550858Y0419171D01*
X0551625Y0418404D01*
X0552392Y0418404D01*
X0553160Y0419171D01*
X0553160Y0421473D01*
X0554694Y0421473D02*
X0551625Y0421473D01*
X0550858Y0420706D01*
X0554694Y0421473D02*
X0555462Y0420706D01*
X0555462Y0419171D01*
X0554694Y0418404D01*
X0554694Y0416869D02*
X0555462Y0416102D01*
X0555462Y0414567D01*
X0554694Y0413800D01*
X0551625Y0413800D01*
X0550858Y0414567D01*
X0550858Y0416102D01*
X0551625Y0416869D01*
X0605862Y0426300D02*
X0605862Y0430904D01*
X0608163Y0430904D01*
X0608931Y0430137D01*
X0608931Y0428602D01*
X0608163Y0427835D01*
X0605862Y0427835D01*
X0607396Y0427835D02*
X0608931Y0426300D01*
X0610465Y0427067D02*
X0611233Y0426300D01*
X0612767Y0426300D01*
X0613535Y0427067D01*
X0613535Y0430137D01*
X0612767Y0430904D01*
X0611233Y0430904D01*
X0610465Y0430137D01*
X0610465Y0429369D01*
X0611233Y0428602D01*
X0613535Y0428602D01*
X0614327Y0395904D02*
X0611258Y0395904D01*
X0609723Y0395137D02*
X0608956Y0395904D01*
X0606654Y0395904D01*
X0606654Y0391300D01*
X0606654Y0392835D02*
X0608956Y0392835D01*
X0609723Y0393602D01*
X0609723Y0395137D01*
X0608188Y0392835D02*
X0609723Y0391300D01*
X0611258Y0391300D02*
X0611258Y0392067D01*
X0614327Y0395137D01*
X0614327Y0395904D01*
X0613956Y0375904D02*
X0611654Y0375904D01*
X0611654Y0371300D01*
X0611654Y0372835D02*
X0613956Y0372835D01*
X0614723Y0373602D01*
X0614723Y0375137D01*
X0613956Y0375904D01*
X0616258Y0375137D02*
X0616258Y0374369D01*
X0617025Y0373602D01*
X0618560Y0373602D01*
X0619327Y0372835D01*
X0619327Y0372067D01*
X0618560Y0371300D01*
X0617025Y0371300D01*
X0616258Y0372067D01*
X0616258Y0372835D01*
X0617025Y0373602D01*
X0618560Y0373602D02*
X0619327Y0374369D01*
X0619327Y0375137D01*
X0618560Y0375904D01*
X0617025Y0375904D01*
X0616258Y0375137D01*
X0613188Y0372835D02*
X0614723Y0371300D01*
X0615862Y0365904D02*
X0618163Y0365904D01*
X0618931Y0365137D01*
X0618931Y0363602D01*
X0618163Y0362835D01*
X0615862Y0362835D01*
X0617396Y0362835D02*
X0618931Y0361300D01*
X0620465Y0361300D02*
X0623535Y0361300D01*
X0622000Y0361300D02*
X0622000Y0365904D01*
X0620465Y0364369D01*
X0625069Y0365137D02*
X0625069Y0362067D01*
X0628139Y0365137D01*
X0628139Y0362067D01*
X0627371Y0361300D01*
X0625837Y0361300D01*
X0625069Y0362067D01*
X0625069Y0365137D02*
X0625837Y0365904D01*
X0627371Y0365904D01*
X0628139Y0365137D01*
X0615862Y0365904D02*
X0615862Y0361300D01*
X0585462Y0278973D02*
X0585462Y0275904D01*
X0585462Y0277439D02*
X0580858Y0277439D01*
X0582392Y0275904D01*
X0585462Y0274369D02*
X0585462Y0271300D01*
X0580858Y0271300D01*
X0635858Y0231498D02*
X0638160Y0229196D01*
X0638160Y0232265D01*
X0640462Y0231498D02*
X0635858Y0231498D01*
X0636625Y0227661D02*
X0635858Y0226894D01*
X0635858Y0225359D01*
X0636625Y0224592D01*
X0639694Y0224592D01*
X0640462Y0225359D01*
X0640462Y0226894D01*
X0639694Y0227661D01*
X0594562Y0193600D02*
X0594562Y0178600D01*
X0576762Y0178600D01*
X0576762Y0193600D01*
X0594562Y0193600D01*
X0585035Y0194800D02*
X0581965Y0194800D01*
X0583500Y0194800D02*
X0583500Y0199404D01*
X0581965Y0197869D01*
X0580431Y0198637D02*
X0579663Y0199404D01*
X0577362Y0199404D01*
X0577362Y0194800D01*
X0579663Y0194800D01*
X0580431Y0195567D01*
X0580431Y0198637D01*
X0579663Y0174404D02*
X0577362Y0174404D01*
X0577362Y0169800D01*
X0579663Y0169800D01*
X0580431Y0170567D01*
X0580431Y0173637D01*
X0579663Y0174404D01*
X0581965Y0173637D02*
X0582733Y0174404D01*
X0584267Y0174404D01*
X0585035Y0173637D01*
X0585035Y0172869D01*
X0581965Y0169800D01*
X0585035Y0169800D01*
X0576762Y0168600D02*
X0594562Y0168600D01*
X0594562Y0153600D01*
X0576762Y0153600D01*
X0576762Y0168600D01*
X0577362Y0149404D02*
X0579663Y0149404D01*
X0580431Y0148637D01*
X0580431Y0145567D01*
X0579663Y0144800D01*
X0577362Y0144800D01*
X0577362Y0149404D01*
X0581965Y0148637D02*
X0582733Y0149404D01*
X0584267Y0149404D01*
X0585035Y0148637D01*
X0585035Y0147869D01*
X0584267Y0147102D01*
X0585035Y0146335D01*
X0585035Y0145567D01*
X0584267Y0144800D01*
X0582733Y0144800D01*
X0581965Y0145567D01*
X0583500Y0147102D02*
X0584267Y0147102D01*
X0576762Y0143600D02*
X0576762Y0128600D01*
X0594562Y0128600D01*
X0594562Y0143600D01*
X0576762Y0143600D01*
X0577362Y0124404D02*
X0579663Y0124404D01*
X0580431Y0123637D01*
X0580431Y0120567D01*
X0579663Y0119800D01*
X0577362Y0119800D01*
X0577362Y0124404D01*
X0581965Y0122102D02*
X0585035Y0122102D01*
X0584267Y0124404D02*
X0581965Y0122102D01*
X0584267Y0119800D02*
X0584267Y0124404D01*
X0576762Y0118600D02*
X0576762Y0103600D01*
X0594562Y0103600D01*
X0594562Y0118600D01*
X0576762Y0118600D01*
X0547292Y0109705D02*
X0544490Y0109705D01*
X0545891Y0108304D01*
X0545891Y0110173D01*
X0539292Y0097216D02*
X0539292Y0094147D01*
X0539292Y0095682D02*
X0534688Y0095682D01*
X0536223Y0094147D01*
X0534688Y0092612D02*
X0534688Y0089543D01*
X0534688Y0091078D02*
X0539292Y0091078D01*
X0519825Y0111785D02*
X0520292Y0112252D01*
X0520292Y0113187D01*
X0519825Y0113654D01*
X0519358Y0113654D01*
X0518891Y0113187D01*
X0518891Y0112720D01*
X0518891Y0113187D02*
X0518424Y0113654D01*
X0517957Y0113654D01*
X0517490Y0113187D01*
X0517490Y0112252D01*
X0517957Y0111785D01*
X0508535Y0103404D02*
X0505465Y0103404D01*
X0505465Y0101102D01*
X0507000Y0101869D01*
X0507767Y0101869D01*
X0508535Y0101102D01*
X0508535Y0099567D01*
X0507767Y0098800D01*
X0506233Y0098800D01*
X0505465Y0099567D01*
X0503931Y0098800D02*
X0502396Y0100335D01*
X0503163Y0100335D02*
X0500862Y0100335D01*
X0500862Y0098800D02*
X0500862Y0103404D01*
X0503163Y0103404D01*
X0503931Y0102637D01*
X0503931Y0101102D01*
X0503163Y0100335D01*
X0517920Y0120885D02*
X0517453Y0121352D01*
X0517453Y0122287D01*
X0517920Y0122754D01*
X0518387Y0122754D01*
X0520255Y0120885D01*
X0520255Y0122754D01*
X0520292Y0129397D02*
X0520292Y0131265D01*
X0520292Y0130331D02*
X0517490Y0130331D01*
X0518424Y0129397D01*
X0528519Y0144840D02*
X0528519Y0159840D01*
X0546319Y0159840D01*
X0546319Y0144840D01*
X0528519Y0144840D01*
X0536912Y0143644D02*
X0536912Y0139040D01*
X0539214Y0139040D01*
X0539981Y0139807D01*
X0539981Y0142876D01*
X0539214Y0143644D01*
X0536912Y0143644D01*
X0541515Y0141342D02*
X0541515Y0139807D01*
X0542283Y0139040D01*
X0543817Y0139040D01*
X0544585Y0139807D01*
X0544585Y0140574D01*
X0543817Y0141342D01*
X0541515Y0141342D01*
X0543050Y0142876D01*
X0544585Y0143644D01*
X0514694Y0178800D02*
X0511625Y0178800D01*
X0510858Y0179567D01*
X0510858Y0181102D01*
X0511625Y0181869D01*
X0510858Y0183404D02*
X0513160Y0183404D01*
X0512392Y0184939D01*
X0512392Y0185706D01*
X0513160Y0186473D01*
X0514694Y0186473D01*
X0515462Y0185706D01*
X0515462Y0184171D01*
X0514694Y0183404D01*
X0514694Y0181869D02*
X0515462Y0181102D01*
X0515462Y0179567D01*
X0514694Y0178800D01*
X0510858Y0183404D02*
X0510858Y0186473D01*
X0499347Y0164526D02*
X0497812Y0164526D01*
X0497045Y0163759D01*
X0495510Y0163759D02*
X0494743Y0164526D01*
X0493208Y0164526D01*
X0492441Y0163759D01*
X0492441Y0160689D01*
X0493208Y0159922D01*
X0494743Y0159922D01*
X0495510Y0160689D01*
X0497045Y0160689D02*
X0497812Y0159922D01*
X0499347Y0159922D01*
X0500114Y0160689D01*
X0500114Y0161457D01*
X0499347Y0162224D01*
X0498580Y0162224D01*
X0499347Y0162224D02*
X0500114Y0162991D01*
X0500114Y0163759D01*
X0499347Y0164526D01*
X0484694Y0143973D02*
X0483927Y0143973D01*
X0483160Y0143206D01*
X0483160Y0140904D01*
X0484694Y0140904D01*
X0485462Y0141671D01*
X0485462Y0143206D01*
X0484694Y0143973D01*
X0481625Y0142439D02*
X0483160Y0140904D01*
X0483160Y0139369D02*
X0483927Y0138602D01*
X0483927Y0136300D01*
X0485462Y0136300D02*
X0480858Y0136300D01*
X0480858Y0138602D01*
X0481625Y0139369D01*
X0483160Y0139369D01*
X0483927Y0137835D02*
X0485462Y0139369D01*
X0481625Y0142439D02*
X0480858Y0143973D01*
X0470462Y0143998D02*
X0465858Y0143998D01*
X0468160Y0141696D01*
X0468160Y0144765D01*
X0468160Y0140161D02*
X0468927Y0139394D01*
X0468927Y0137092D01*
X0470462Y0137092D02*
X0465858Y0137092D01*
X0465858Y0139394D01*
X0466625Y0140161D01*
X0468160Y0140161D01*
X0468927Y0138627D02*
X0470462Y0140161D01*
X0446665Y0173147D02*
X0434658Y0173147D01*
X0434658Y0179053D02*
X0446665Y0179053D01*
X0460858Y0191300D02*
X0460858Y0193602D01*
X0461625Y0194369D01*
X0463160Y0194369D01*
X0463927Y0193602D01*
X0463927Y0191300D01*
X0465462Y0191300D02*
X0460858Y0191300D01*
X0463927Y0192835D02*
X0465462Y0194369D01*
X0465462Y0195904D02*
X0462392Y0198973D01*
X0461625Y0198973D01*
X0460858Y0198206D01*
X0460858Y0196671D01*
X0461625Y0195904D01*
X0465462Y0195904D02*
X0465462Y0198973D01*
X0426950Y0227067D02*
X0426183Y0226300D01*
X0424648Y0226300D01*
X0423881Y0227067D01*
X0422346Y0226300D02*
X0419277Y0226300D01*
X0419277Y0230904D01*
X0422346Y0230904D01*
X0423881Y0230137D02*
X0423881Y0229369D01*
X0424648Y0228602D01*
X0426183Y0228602D01*
X0426950Y0227835D01*
X0426950Y0227067D01*
X0426950Y0230137D02*
X0426183Y0230904D01*
X0424648Y0230904D01*
X0423881Y0230137D01*
X0420812Y0228602D02*
X0419277Y0228602D01*
X0417743Y0230904D02*
X0417743Y0226300D01*
X0414673Y0226300D02*
X0414673Y0230904D01*
X0416208Y0229369D01*
X0417743Y0230904D01*
X0413139Y0229369D02*
X0413139Y0226300D01*
X0413139Y0228602D02*
X0410069Y0228602D01*
X0410069Y0229369D02*
X0411604Y0230904D01*
X0413139Y0229369D01*
X0410069Y0229369D02*
X0410069Y0226300D01*
X0408535Y0226300D02*
X0408535Y0230904D01*
X0405465Y0230904D02*
X0408535Y0226300D01*
X0405465Y0226300D02*
X0405465Y0230904D01*
X0403931Y0228602D02*
X0400862Y0226300D01*
X0403931Y0228602D02*
X0400862Y0230904D01*
X0416625Y0144765D02*
X0417392Y0144765D01*
X0418160Y0143998D01*
X0418927Y0144765D01*
X0419694Y0144765D01*
X0420462Y0143998D01*
X0420462Y0142463D01*
X0419694Y0141696D01*
X0420462Y0140161D02*
X0418927Y0138627D01*
X0418927Y0139394D02*
X0418927Y0137092D01*
X0420462Y0137092D02*
X0415858Y0137092D01*
X0415858Y0139394D01*
X0416625Y0140161D01*
X0418160Y0140161D01*
X0418927Y0139394D01*
X0416625Y0141696D02*
X0415858Y0142463D01*
X0415858Y0143998D01*
X0416625Y0144765D01*
X0418160Y0143998D02*
X0418160Y0143231D01*
X0522050Y0216300D02*
X0522050Y0220904D01*
X0524352Y0220904D01*
X0525119Y0220137D01*
X0525119Y0218602D01*
X0524352Y0217835D01*
X0522050Y0217835D01*
X0523584Y0217835D02*
X0525119Y0216300D01*
X0526654Y0216300D02*
X0529723Y0216300D01*
X0531258Y0216300D02*
X0534327Y0216300D01*
X0532792Y0216300D02*
X0532792Y0220904D01*
X0531258Y0219369D01*
X0528188Y0220904D02*
X0528188Y0216300D01*
X0526654Y0219369D02*
X0528188Y0220904D01*
D18*
X0470662Y0201300D03*
X0470662Y0190900D03*
X0460662Y0146300D03*
X0460662Y0135900D03*
X0490662Y0135900D03*
X0490662Y0146300D03*
X0410662Y0146300D03*
X0410662Y0135900D03*
X0184401Y0112411D03*
X0184401Y0102011D03*
X0130662Y0115900D03*
X0130662Y0126300D03*
X0130662Y0140900D03*
X0130662Y0151300D03*
X0118162Y0108800D03*
X0118162Y0098400D03*
X0470662Y0400900D03*
X0470662Y0411300D03*
X0505662Y0410900D03*
X0505662Y0421300D03*
X0505662Y0435900D03*
X0505662Y0446300D03*
D19*
X0240976Y0421100D03*
X0230347Y0421100D03*
X0435347Y0176100D03*
X0445976Y0176100D03*
D20*
X0374412Y0198600D03*
D21*
X0390662Y0196100D02*
X0390662Y0216100D01*
X0460662Y0216100D01*
X0460662Y0196100D01*
X0390662Y0196100D01*
X0701154Y0118810D02*
X0710162Y0118810D01*
X0710162Y0115808D02*
X0710162Y0121813D01*
X0704156Y0115808D02*
X0701154Y0118810D01*
X0701154Y0112605D02*
X0701154Y0109603D01*
X0701154Y0111104D02*
X0708660Y0111104D01*
X0710162Y0109603D01*
X0710162Y0108101D01*
X0708660Y0106600D01*
D22*
X0574838Y0251380D02*
X0494838Y0251380D01*
X0494838Y0241380D01*
X0389838Y0241380D01*
X0389838Y0376380D01*
X0574838Y0376380D01*
X0574838Y0251380D01*
D23*
X0535862Y0226100D03*
X0525462Y0226100D03*
X0510862Y0093600D03*
X0500462Y0093600D03*
X0197251Y0092006D03*
X0186851Y0092006D03*
X0154751Y0112173D03*
X0144351Y0112173D03*
X0166572Y0121027D03*
X0176972Y0121027D03*
X0101198Y0138460D03*
X0090798Y0138460D03*
X0160462Y0186100D03*
X0170862Y0186100D03*
X0104698Y0308060D03*
X0094298Y0308060D03*
X0094298Y0325727D03*
X0104698Y0325727D03*
X0104698Y0343394D03*
X0094298Y0343394D03*
X0605462Y0401100D03*
X0615862Y0401100D03*
X0620862Y0381100D03*
X0610462Y0381100D03*
X0615462Y0356100D03*
X0625862Y0356100D03*
X0615862Y0421100D03*
X0605462Y0421100D03*
D24*
X0595612Y0186100D03*
X0575712Y0186100D03*
X0575712Y0161100D03*
X0595612Y0161100D03*
X0595612Y0136100D03*
X0575712Y0136100D03*
X0547369Y0152340D03*
X0527469Y0152340D03*
X0575712Y0111100D03*
X0595612Y0111100D03*
D25*
X0581429Y0111100D03*
X0581429Y0136100D03*
X0581429Y0161100D03*
X0581429Y0186100D03*
X0541652Y0152340D03*
D26*
X0675662Y0153600D02*
X0691662Y0153600D01*
X0691662Y0188600D01*
X0675662Y0188600D01*
X0675662Y0193600D02*
X0691662Y0193600D01*
X0691662Y0228600D01*
X0675662Y0228600D01*
X0675662Y0233600D02*
X0691662Y0233600D01*
X0691662Y0268600D01*
X0675662Y0268600D01*
X0675662Y0273600D02*
X0691662Y0273600D01*
X0691662Y0308600D01*
X0675662Y0308600D01*
X0675662Y0313600D02*
X0691662Y0313600D01*
X0691662Y0348600D01*
X0675662Y0348600D01*
X0675662Y0353600D02*
X0691662Y0353600D01*
X0691662Y0388600D01*
X0675662Y0388600D01*
X0675662Y0393600D02*
X0691662Y0393600D01*
X0691662Y0408600D01*
X0675662Y0408600D01*
X0675662Y0413600D02*
X0691662Y0413600D01*
X0691662Y0423600D01*
X0675662Y0423600D01*
X0675662Y0148600D02*
X0691662Y0148600D01*
X0691662Y0133600D01*
X0675662Y0133600D01*
X0675662Y0128600D02*
X0691662Y0128600D01*
X0691662Y0118600D01*
X0675662Y0118600D01*
X0175662Y0157400D02*
X0155662Y0157400D01*
D27*
X0696506Y0376450D02*
X0696506Y0379603D01*
X0697557Y0380654D01*
X0701761Y0380654D01*
X0702812Y0379603D01*
X0702812Y0376450D01*
X0696506Y0376450D01*
X0696506Y0382895D02*
X0696506Y0384997D01*
X0696506Y0383946D02*
X0702812Y0383946D01*
X0702812Y0382895D02*
X0702812Y0384997D01*
X0702812Y0387192D02*
X0696506Y0387192D01*
X0702812Y0391396D01*
X0696506Y0391396D01*
X0699659Y0400083D02*
X0699659Y0404287D01*
X0698608Y0406529D02*
X0696506Y0408631D01*
X0702812Y0408631D01*
X0702812Y0406529D02*
X0702812Y0410733D01*
X0701761Y0412974D02*
X0699659Y0412974D01*
X0699659Y0416127D01*
X0700710Y0417178D01*
X0701761Y0417178D01*
X0702812Y0416127D01*
X0702812Y0414025D01*
X0701761Y0412974D01*
X0699659Y0412974D02*
X0697557Y0415076D01*
X0696506Y0417178D01*
X0698608Y0419420D02*
X0696506Y0421522D01*
X0702812Y0421522D01*
X0702812Y0419420D02*
X0702812Y0423624D01*
X0702812Y0425865D02*
X0698608Y0430069D01*
X0697557Y0430069D01*
X0696506Y0429018D01*
X0696506Y0426916D01*
X0697557Y0425865D01*
X0702812Y0425865D02*
X0702812Y0430069D01*
X0706506Y0427944D02*
X0706506Y0425842D01*
X0707557Y0424791D01*
X0711761Y0424791D01*
X0712812Y0425842D01*
X0712812Y0427944D01*
X0711761Y0428995D01*
X0707557Y0428995D02*
X0706506Y0427944D01*
X0709659Y0416104D02*
X0712812Y0416104D01*
X0712812Y0414002D02*
X0709659Y0414002D01*
X0708608Y0415053D01*
X0709659Y0416104D01*
X0709659Y0414002D02*
X0708608Y0412951D01*
X0708608Y0411900D01*
X0712812Y0411900D01*
X0708608Y0409682D02*
X0708608Y0408631D01*
X0710710Y0406529D01*
X0712812Y0406529D02*
X0708608Y0406529D01*
X0709659Y0404287D02*
X0708608Y0403236D01*
X0708608Y0401134D01*
X0709659Y0400083D01*
X0711761Y0400083D01*
X0712812Y0401134D01*
X0712812Y0403236D01*
X0711761Y0404287D01*
X0709659Y0404287D01*
X0709659Y0397888D02*
X0709659Y0395786D01*
X0707557Y0396837D02*
X0706506Y0397888D01*
X0707557Y0396837D02*
X0712812Y0396837D01*
X0712812Y0393545D02*
X0708608Y0393545D01*
X0712812Y0393545D02*
X0712812Y0390392D01*
X0711761Y0389341D01*
X0708608Y0389341D01*
X0709659Y0387099D02*
X0712812Y0387099D01*
X0712812Y0383946D01*
X0711761Y0382895D01*
X0710710Y0383946D01*
X0710710Y0387099D01*
X0709659Y0387099D02*
X0708608Y0386048D01*
X0708608Y0383946D01*
X0708608Y0380654D02*
X0709659Y0379603D01*
X0709659Y0376450D01*
X0712812Y0376450D02*
X0712812Y0379603D01*
X0711761Y0380654D01*
X0710710Y0380654D01*
X0709659Y0379603D01*
X0708608Y0380654D02*
X0707557Y0380654D01*
X0706506Y0379603D01*
X0706506Y0376450D01*
X0712812Y0376450D01*
X0699659Y0400083D02*
X0696506Y0403236D01*
X0702812Y0403236D01*
D28*
X0674912Y0406100D03*
X0674912Y0396100D03*
X0674912Y0386100D03*
X0674912Y0376100D03*
X0674912Y0366100D03*
X0674912Y0356100D03*
X0674912Y0346100D03*
X0674912Y0336100D03*
X0674912Y0326100D03*
X0674912Y0316100D03*
X0674912Y0306100D03*
X0674912Y0296100D03*
X0674912Y0286100D03*
X0674912Y0276100D03*
X0674912Y0266100D03*
X0674912Y0256100D03*
X0674912Y0246100D03*
X0674912Y0236100D03*
X0674912Y0226100D03*
X0674912Y0216100D03*
X0674912Y0206100D03*
X0674912Y0196100D03*
X0674912Y0186100D03*
X0674912Y0176100D03*
X0674912Y0166100D03*
X0674912Y0156100D03*
X0674912Y0146100D03*
X0674912Y0136100D03*
X0674912Y0126100D03*
X0674912Y0116100D03*
X0674912Y0416100D03*
X0674912Y0426100D03*
D29*
X0670662Y0426100D03*
X0660662Y0426100D03*
X0660662Y0416100D03*
X0670662Y0416100D03*
X0670662Y0406100D03*
X0670662Y0396100D03*
X0660662Y0396100D03*
X0660662Y0406100D03*
X0660662Y0386100D03*
X0670662Y0386100D03*
X0670662Y0376100D03*
X0660662Y0376100D03*
X0660662Y0366100D03*
X0670662Y0366100D03*
X0670662Y0356100D03*
X0660662Y0356100D03*
X0660662Y0346100D03*
X0670662Y0346100D03*
X0670662Y0336100D03*
X0670662Y0326100D03*
X0660662Y0326100D03*
X0660662Y0336100D03*
X0660662Y0316100D03*
X0670662Y0316100D03*
X0670662Y0306100D03*
X0660662Y0306100D03*
X0660662Y0296100D03*
X0670662Y0296100D03*
X0670662Y0286100D03*
X0660662Y0286100D03*
X0660662Y0276100D03*
X0670662Y0276100D03*
X0670662Y0266100D03*
X0660662Y0266100D03*
X0660662Y0256100D03*
X0670662Y0256100D03*
X0670662Y0246100D03*
X0660662Y0246100D03*
X0660662Y0236100D03*
X0670662Y0236100D03*
X0670662Y0226100D03*
X0660662Y0226100D03*
X0660662Y0216100D03*
X0670662Y0216100D03*
X0670662Y0206100D03*
X0660662Y0206100D03*
X0660662Y0196100D03*
X0670662Y0196100D03*
X0670662Y0186100D03*
X0660662Y0186100D03*
X0660662Y0176100D03*
X0670662Y0176100D03*
X0670662Y0166100D03*
X0660662Y0166100D03*
X0660662Y0156100D03*
X0670662Y0156100D03*
X0670662Y0146100D03*
X0670662Y0136100D03*
X0660662Y0136100D03*
X0660662Y0146100D03*
X0660662Y0126100D03*
X0670662Y0126100D03*
X0670662Y0116100D03*
X0660662Y0116100D03*
D30*
X0651912Y0116100D03*
X0651912Y0126100D03*
X0651912Y0136100D03*
X0651912Y0146100D03*
X0651912Y0156100D03*
X0651912Y0166100D03*
X0651912Y0176100D03*
X0651912Y0186100D03*
X0651912Y0196100D03*
X0651912Y0206100D03*
X0651912Y0216100D03*
X0651912Y0226100D03*
X0651912Y0236100D03*
X0651912Y0246100D03*
X0651912Y0256100D03*
X0651912Y0266100D03*
X0651912Y0276100D03*
X0651912Y0286100D03*
X0651912Y0296100D03*
X0651912Y0306100D03*
X0651912Y0316100D03*
X0651912Y0326100D03*
X0651912Y0336100D03*
X0651912Y0346100D03*
X0651912Y0356100D03*
X0651912Y0366100D03*
X0651912Y0376100D03*
X0651912Y0386100D03*
X0651912Y0396100D03*
X0651912Y0406100D03*
X0651912Y0416100D03*
X0651912Y0426100D03*
D31*
X0655662Y0426100D03*
X0665662Y0426100D03*
X0665662Y0416100D03*
X0665662Y0406100D03*
X0665662Y0396100D03*
X0665662Y0386100D03*
X0665662Y0376100D03*
X0665662Y0366100D03*
X0665662Y0356100D03*
X0665662Y0346100D03*
X0665662Y0336100D03*
X0665662Y0326100D03*
X0665662Y0316100D03*
X0665662Y0306100D03*
X0665662Y0296100D03*
X0665662Y0286100D03*
X0665662Y0276100D03*
X0665662Y0266100D03*
X0665662Y0256100D03*
X0665662Y0246100D03*
X0665662Y0236100D03*
X0665662Y0226100D03*
X0665662Y0216100D03*
X0665662Y0206100D03*
X0665662Y0196100D03*
X0665662Y0186100D03*
X0665662Y0176100D03*
X0665662Y0166100D03*
X0665662Y0156100D03*
X0665662Y0146100D03*
X0665662Y0136100D03*
X0665662Y0126100D03*
X0665662Y0116100D03*
X0655662Y0116100D03*
X0655662Y0126100D03*
X0655662Y0136100D03*
X0655662Y0146100D03*
X0655662Y0156100D03*
X0655662Y0166100D03*
X0655662Y0176100D03*
X0655662Y0186100D03*
X0655662Y0196100D03*
X0655662Y0206100D03*
X0655662Y0216100D03*
X0655662Y0226100D03*
X0655662Y0236100D03*
X0655662Y0246100D03*
X0655662Y0256100D03*
X0655662Y0266100D03*
X0655662Y0276100D03*
X0655662Y0286100D03*
X0655662Y0296100D03*
X0655662Y0306100D03*
X0655662Y0316100D03*
X0655662Y0326100D03*
X0655662Y0336100D03*
X0655662Y0346100D03*
X0655662Y0356100D03*
X0655662Y0366100D03*
X0655662Y0376100D03*
X0655662Y0386100D03*
X0655662Y0396100D03*
X0655662Y0406100D03*
X0655662Y0416100D03*
D32*
X0395701Y0416100D03*
X0395701Y0411100D03*
X0395701Y0421100D03*
X0395701Y0426100D03*
X0395701Y0431100D03*
X0395701Y0436100D03*
X0395701Y0441100D03*
X0375622Y0441100D03*
X0375622Y0436100D03*
X0375622Y0431100D03*
X0375622Y0426100D03*
X0375622Y0421100D03*
X0375622Y0416100D03*
X0375622Y0411100D03*
D33*
X0350662Y0420785D03*
X0350662Y0431415D03*
X0418162Y0431415D03*
X0418162Y0420785D03*
X0530662Y0415785D03*
X0530662Y0426415D03*
X0195662Y0151415D03*
X0195662Y0140785D03*
D34*
X0173162Y0141150D03*
X0168162Y0141150D03*
X0163162Y0141150D03*
X0158162Y0141150D03*
X0158162Y0161050D03*
X0163162Y0160950D03*
X0168162Y0161050D03*
X0173162Y0161050D03*
D35*
X0132445Y0104025D03*
X0140345Y0100325D03*
X0132445Y0096625D03*
X0155792Y0099025D03*
X0163692Y0095325D03*
X0155792Y0091625D03*
D36*
X0545042Y0118551D03*
X0545042Y0118551D03*
D37*
X0523542Y0118551D03*
X0523542Y0118551D03*
X0523542Y0109451D03*
X0523542Y0109451D03*
X0523542Y0127651D03*
X0523542Y0127651D03*
D38*
X0200088Y0120308D03*
X0200088Y0100408D03*
D39*
X0200088Y0114590D03*
D40*
X0073835Y0144650D03*
X0073401Y0319650D03*
X0072968Y0337650D03*
X0072535Y0355650D03*
D41*
X0072535Y0356900D03*
X0072968Y0338900D03*
X0073401Y0320900D03*
X0073835Y0145900D03*
D42*
X0069461Y0185203D02*
X0069712Y0185454D01*
X0069712Y0185704D01*
X0069461Y0185954D01*
X0068210Y0185954D01*
X0068210Y0185704D02*
X0068210Y0186204D01*
X0068460Y0186677D02*
X0068210Y0186927D01*
X0068210Y0187427D01*
X0068460Y0187678D01*
X0068711Y0187678D01*
X0069712Y0186677D01*
X0069712Y0187678D01*
M02*
