%
M48
M72
T01C0.03150
T02C0.03200
T03C0.03600
T04C0.03937
T05C0.04331
T06C0.04724
T07C0.05118
T08C0.11000
T09C0.11024
T10C0.11800
T11C0.12598
%
T01
X600662Y277478
X600662Y324722
T02
X73401Y318150
X72968Y326150
X72968Y336150
X72535Y344150
X72535Y354150
X73401Y308150
X73835Y143150
X73835Y133150
T03
X265662Y441100
X275662Y441100
X650662Y426100
X660662Y426100
X670662Y426100
X670662Y416100
X660662Y416100
X650662Y416100
X650662Y406100
X660662Y406100
X670662Y406100
X670662Y396100
X660662Y396100
X650662Y396100
X650662Y386100
X660662Y386100
X670662Y386100
X670662Y376100
X660662Y376100
X650662Y376100
X650662Y366100
X660662Y366100
X670662Y366100
X670662Y356100
X660662Y356100
X650662Y356100
X650662Y346100
X660662Y346100
X670662Y346100
X670662Y336100
X670662Y326100
X660662Y326100
X660662Y336100
X650662Y336100
X650662Y326100
X650662Y316100
X660662Y316100
X670662Y316100
X670662Y306100
X660662Y306100
X650662Y306100
X650662Y296100
X660662Y296100
X670662Y296100
X670662Y286100
X660662Y286100
X650662Y286100
X650662Y276100
X660662Y276100
X670662Y276100
X670662Y266100
X660662Y266100
X650662Y266100
X650662Y256100
X660662Y256100
X670662Y256100
X670662Y246100
X660662Y246100
X650662Y246100
X650662Y236100
X660662Y236100
X670662Y236100
X670662Y226100
X660662Y226100
X650662Y226100
X650662Y216100
X660662Y216100
X670662Y216100
X670662Y206100
X660662Y206100
X650662Y206100
X650662Y196100
X660662Y196100
X670662Y196100
X670662Y186100
X660662Y186100
X650662Y186100
X650662Y176100
X660662Y176100
X670662Y176100
X670662Y166100
X660662Y166100
X650662Y166100
X650662Y156100
X660662Y156100
X670662Y156100
X670662Y146100
X670662Y136100
X660662Y136100
X660662Y146100
X650662Y146100
X650662Y136100
X650662Y126100
X660662Y126100
X670662Y126100
X670662Y116100
X660662Y116100
X650662Y116100
T04
X310662Y218600
X300662Y218600
X290662Y218600
X280662Y218600
X270662Y218600
X260662Y218600
X250662Y218600
X240662Y218600
X224662Y218600
X214662Y218600
X204662Y218600
X194662Y218600
X184662Y218600
X174662Y218600
X164662Y218600
X154662Y218600
X180662Y406100
X190662Y406100
X200662Y406100
X210662Y406100
X220662Y406100
X230662Y406100
X240662Y406100
X260662Y406100
X270662Y406100
X280662Y406100
X290662Y406100
X300662Y406100
X310662Y406100
T05
X370662Y361100
X400662Y206100
X410662Y206100
X420662Y206100
X430662Y206100
X440662Y206100
X450662Y206100
X510662Y156100
X508162Y128600
X490662Y121100
X490662Y101100
X405662Y96100
X310662Y96100
X220662Y86100
X210662Y151100
X270662Y191100
X115662Y146100
T06
X125662Y91100
X475662Y436100
T07
X430662Y431100
X325662Y456100
X545662Y441100
X590662Y391100
X625662Y401100
X635662Y381100
X590662Y356100
X600787Y324600
X615662Y301100
X600662Y277475
X615662Y186100
X625662Y161100
X610662Y91100
X425662Y156100
X368860Y177350
X368860Y109850
X234963Y109850
X234963Y177350
X635662Y436100
T08
X680662Y446100
X680662Y96100
T09
X73848Y95535
X73848Y446042
T10
X78476Y173100
X90287Y154596
X102099Y173100
T11
X320662Y276100
M30
